<?xml version="1.0" encoding="utf-8"?>
<!-- Generator: Adobe Illustrator 21.0.0, SVG Export Plug-In . SVG Version: 6.00 Build 0)  -->
<svg version="1.1" xmlns="http://www.w3.org/2000/svg" xmlns:xlink="http://www.w3.org/1999/xlink" x="0px" y="0px"
	 viewBox="0 0 1920 1280" style="enable-background:new 0 0 1920 1280;" xml:space="preserve">
<style type="text/css">
	.st0{display:none;}
	.st1{opacity:0.7;fill:#97F492;}
	.st2{fill:#F8FF99;}
	.st3{fill:#FCDFB1;}
	.st4{fill:#C2CCFF;}
	.st5{fill:#E2E2E2;}
	.st6{fill:none;stroke:#99C4E9;stroke-width:2;stroke-miterlimit:10;}
	.st7{fill:#1C1511;}
	.st8{fill:#FFFFFF;}
	.st9{fill:#148865;}
	.st10{fill:#FF4E10;stroke:#2C287C;stroke-width:7;stroke-miterlimit:10;}
	.st11{fill:#FFFABB;}
</style>
<g id="图层_4" class="st0">
	
		<image style="display:inline;overflow:visible;" width="833" height="599" xlink:href="57923E34.jpg"  transform="matrix(2.1797 0 0 2.1797 -23 -85.6625)">
	</image>
</g>
<g id="图层_2" class="st0">
	
		<image style="display:inline;overflow:visible;" width="802" height="588" xlink:href="57923E3E.jpg"  transform="matrix(2.1769 0 0 2.1769 78.7373 -1)">
	</image>
</g>
<g id="图层_5" class="st0">
	
		<image style="display:inline;overflow:visible;" width="791" height="566" xlink:href="57923E3F.jpg"  transform="matrix(2.1836 0 0 2.1836 108.8056 -5.4855)">
	</image>
</g>
<g id="图层_1">
	<path class="st1" d="M207.5,642.6v403.5c0,0,86.9,111.4,369-8v23.4c301.5-85.7,358.5-2.5,564.2,10.8
		C1307,1069,1586,944,1599.4,627.5l1-372.9c0,0,22.6,0.9,28.3-20.8v-125h-53.7V17.5h-75.3v90h-196.7v366.1l-299.1,301H579.5V643.5
		L207.5,642.6z"/>
	<path class="st2" d="M510,1054.3c-181.3,67.3-276.6,12.6-295-12.3V650h295V1054.3z"/>
	<rect x="516.3" y="650" class="st3" width="58.3" height="124"/>
	<polygon class="st4" points="516.3,780.7 576.7,780.7 576.7,1030 516.3,1052 	"/>
	<polygon class="st4" points="1620,144 1470,144 1470.7,252.5 1450,252.5 1450.5,144 1309.3,144 1309.3,115.3 1511,115.3 1511,29 
		1566,29 1566,115.3 1620,115.3 	"/>
	<g>
		<g>
			<rect x="1339" y="613" class="st5" width="117.2" height="26.6"/>
			<rect x="1339" y="613" class="st6" width="9.1" height="26.6"/>
			<rect x="1348.1" y="613" class="st6" width="9.1" height="26.6"/>
			<rect x="1357.1" y="613" class="st6" width="9.1" height="26.6"/>
			<rect x="1366.2" y="613" class="st6" width="9.1" height="26.6"/>
			<rect x="1375.2" y="613" class="st6" width="9.1" height="26.6"/>
			<rect x="1384.3" y="613" class="st6" width="9.1" height="26.6"/>
			<rect x="1393.3" y="613" class="st6" width="9.1" height="26.6"/>
			<rect x="1402.4" y="613" class="st6" width="9.1" height="26.6"/>
			<rect x="1411.4" y="613" class="st6" width="9.1" height="26.6"/>
			<rect x="1420.5" y="613" class="st6" width="9.1" height="26.6"/>
			<rect x="1429.5" y="613" class="st6" width="9.1" height="26.6"/>
			<rect x="1438.6" y="613" class="st6" width="9.1" height="26.6"/>
			<rect x="1447.7" y="613" class="st6" width="9.1" height="26.6"/>
		</g>
		<g>
			<rect x="1338.8" y="645.2" class="st5" width="117.2" height="26.6"/>
			<rect x="1338.8" y="645.2" class="st6" width="9.1" height="26.6"/>
			<rect x="1347.8" y="645.2" class="st6" width="9.1" height="26.6"/>
			<rect x="1356.9" y="645.2" class="st6" width="9.1" height="26.6"/>
			<rect x="1365.9" y="645.2" class="st6" width="9.1" height="26.6"/>
			<rect x="1375" y="645.2" class="st6" width="9.1" height="26.6"/>
			<rect x="1384" y="645.2" class="st6" width="9.1" height="26.6"/>
			<rect x="1393.1" y="645.2" class="st6" width="9.1" height="26.6"/>
			<rect x="1402.1" y="645.2" class="st6" width="9.1" height="26.6"/>
			<rect x="1411.2" y="645.2" class="st6" width="9.1" height="26.6"/>
			<rect x="1420.3" y="645.2" class="st6" width="9.1" height="26.6"/>
			<rect x="1429.3" y="645.2" class="st6" width="9.1" height="26.6"/>
			<rect x="1438.4" y="645.2" class="st6" width="9.1" height="26.6"/>
			<rect x="1447.4" y="645.2" class="st6" width="9.1" height="26.6"/>
		</g>
	</g>
	<g>
		<path class="st7" d="M1417.8,643.6c0,11.4-9.3,20.6-20.8,20.6c-11.5,0-20.8-9.2-20.8-20.6c0-11.4,9.3-20.6,20.8-20.6
			C1408.5,623,1417.8,632.2,1417.8,643.6z"/>
		<path class="st8" d="M1404.9,631L1404.9,631c0,0-4.1,3.5-8.1,7.6v-2.5c0-1-1-1.5-2-1.5c-0.5,0-1.5,0.5-1.5,1.5v5.5
			c-3.5,3-7.1,6-7.1,6c-0.5,0-1.5,0-1.5,0c-2.5,0-4.6,2-4.6,4.5c0,2.5,2,4.5,4.6,4.5h4.1c0,0,19.3-16.1,19.8-16.6c0.5,0,1,0,1,0
			c2.5,0,4.6-2,4.6-4.5c0-2.5-2-4.5-4.6-4.5L1404.9,631L1404.9,631z M1409.5,632.5c2,0,3,1.5,3,3c0,2-1,3-3,3h-1.5l-19.8,16.6
			c-0.5,0-3.5,0-3.5,0c-1.5,0-3-1.5-3-3c0-1.5,1.5-3,3-3h2c0,0,18.2-16.1,18.8-16.6C1405.9,632.5,1409.5,632.5,1409.5,632.5
			L1409.5,632.5z M1396.8,632c0,1-1,2-2,2c-1,0-1.5-1-1.5-2c0-0.5,0.5-1.5,1.5-1.5C1395.8,630.5,1396.8,631.5,1396.8,632L1396.8,632
			z"/>
	</g>
	<g>
		<g>
			<rect x="1173.6" y="816.6" class="st5" width="26.6" height="117.2"/>
			<rect x="1173.6" y="816.6" class="st6" width="26.6" height="9.1"/>
			<rect x="1173.6" y="825.7" class="st6" width="26.6" height="9.1"/>
			<rect x="1173.6" y="834.7" class="st6" width="26.6" height="9.1"/>
			<rect x="1173.6" y="843.8" class="st6" width="26.6" height="9.1"/>
			<rect x="1173.6" y="852.8" class="st6" width="26.6" height="9.1"/>
			<rect x="1173.6" y="861.9" class="st6" width="26.6" height="9.1"/>
			<rect x="1173.6" y="870.9" class="st6" width="26.6" height="9.1"/>
			<rect x="1173.6" y="880" class="st6" width="26.6" height="9.1"/>
			<rect x="1173.6" y="889" class="st6" width="26.6" height="9.1"/>
			<rect x="1173.6" y="898.1" class="st6" width="26.6" height="9.1"/>
			<rect x="1173.6" y="907.1" class="st6" width="26.6" height="9.1"/>
			<rect x="1173.6" y="916.2" class="st6" width="26.6" height="9.1"/>
			<rect x="1173.6" y="925.3" class="st6" width="26.6" height="9.1"/>
		</g>
		<g>
			<rect x="1141.4" y="816.4" class="st5" width="26.6" height="117.2"/>
			<rect x="1141.4" y="816.4" class="st6" width="26.6" height="9.1"/>
			<rect x="1141.4" y="825.4" class="st6" width="26.6" height="9.1"/>
			<rect x="1141.4" y="834.5" class="st6" width="26.6" height="9.1"/>
			<rect x="1141.4" y="843.5" class="st6" width="26.6" height="9.1"/>
			<rect x="1141.4" y="852.6" class="st6" width="26.6" height="9.1"/>
			<rect x="1141.4" y="861.6" class="st6" width="26.6" height="9.1"/>
			<rect x="1141.4" y="870.7" class="st6" width="26.6" height="9.1"/>
			<rect x="1141.4" y="879.7" class="st6" width="26.6" height="9.1"/>
			<rect x="1141.4" y="888.8" class="st6" width="26.6" height="9.1"/>
			<rect x="1141.4" y="897.8" class="st6" width="26.6" height="9.1"/>
			<rect x="1141.4" y="906.9" class="st6" width="26.6" height="9.1"/>
			<rect x="1141.4" y="916" class="st6" width="26.6" height="9.1"/>
			<rect x="1141.4" y="925" class="st6" width="26.6" height="9.1"/>
		</g>
	</g>
	<g>
		<path class="st7" d="M1192.8,875c0,11.4-9.3,20.6-20.8,20.6s-20.8-9.2-20.8-20.6c0-11.4,9.3-20.6,20.8-20.6
			C1183.5,854.3,1192.8,863.6,1192.8,875z"/>
		<path class="st8" d="M1179.9,862.4L1179.9,862.4c0,0-4.1,3.5-8.1,7.6v-2.5c0-1-1-1.5-2-1.5c-0.5,0-1.5,0.5-1.5,1.5v5.5
			c-3.5,3-7.1,6-7.1,6c-0.5,0-1.5,0-1.5,0c-2.5,0-4.6,2-4.6,4.5c0,2.5,2,4.5,4.6,4.5h4.1c0,0,19.3-16.1,19.8-16.6c0.5,0,1,0,1,0
			c2.5,0,4.6-2,4.6-4.5c0-2.5-2-4.5-4.6-4.5L1179.9,862.4L1179.9,862.4z M1184.4,863.9c2,0,3,1.5,3,3c0,2-1,3-3,3h-1.5l-19.8,16.6
			c-0.5,0-3.5,0-3.5,0c-1.5,0-3-1.5-3-3c0-1.5,1.5-3,3-3h2c0,0,18.2-16.1,18.8-16.6C1180.9,863.9,1184.4,863.9,1184.4,863.9
			L1184.4,863.9z M1171.7,863.4c0,1-1,2-2,2c-1,0-1.5-1-1.5-2c0-0.5,0.5-1.5,1.5-1.5C1170.7,861.9,1171.7,862.9,1171.7,863.4
			L1171.7,863.4z"/>
	</g>
	<g>
		<path class="st9" d="M554,626.2c11.3,0,20.4,9,20.4,20.1c-0.1,11-9.2,20-20.5,19.9c-11.3,0-20.4-9-20.4-20.1
			C533.5,635,542.7,626.1,554,626.2z"/>
		<path class="st8" d="M550.8,630.6l-0.1,19.5l-7.4-7.3l0,8.3l10.4,10.8l11-10.7l0-8.8l-8,8.3l0.1-20L550.8,630.6z"/>
	</g>
	<path class="st10" d="M1141.4,774.6"/>
	<path class="st10" d="M1010,774.6"/>
	<line class="st10" x1="1309.3" y1="613" x2="1477.1" y2="613"/>
	<line class="st10" x1="1141.4" y1="770.7" x2="1141.4" y2="938.5"/>
	<line class="st10" x1="1444.7" y1="254.5" x2="1444.7" y2="335"/>
	<path class="st2" d="M992,780.7H585V1052c70.2-15.9,156.2-44,284.9-31.4c96.1,9.4,120.3,21.6,120.3,21.6"/>
	<g>
		<path class="st9" d="M1012,976.6c0.1,11.3-8.8,20.5-19.8,20.6c-11,0.1-20.1-9-20.2-20.3c-0.1-11.3,8.8-20.5,19.8-20.6
			C1002.9,956.2,1011.9,965.3,1012,976.6z"/>
		<path class="st8" d="M1007.6,973.4l-19.5,0.2l7.2-7.5l-8.3,0.1l-10.6,10.6l10.8,10.9l8.8-0.1l-8.4-7.9l20-0.2L1007.6,973.4z"/>
	</g>
	<g>
		<path class="st9" d="M596.7,924.6c0,11.3-9,20.4-20.1,20.4c-11-0.1-20-9.2-19.9-20.5c0-11.3,9-20.4,20.1-20.4
			C587.8,904.1,596.7,913.3,596.7,924.6z"/>
		<path class="st8" d="M592.3,921.4l-19.5-0.1l7.3-7.4l-8.3,0l-10.8,10.4l10.7,11l8.8,0l-8.3-8l20,0.1L592.3,921.4z"/>
	</g>
	<g>
		<path class="st9" d="M496.3,923.4c0.1-11.3,9.2-20.4,20.2-20.2c11,0.1,19.9,9.4,19.8,20.7c-0.1,11.3-9.2,20.4-20.2,20.2
			C505.1,943.9,496.2,934.7,496.3,923.4z"/>
		<path class="st8" d="M500.7,926.7l19.5,0.2l-7.4,7.4l8.3,0.1l10.8-10.4l-10.6-11.1l-8.8-0.1l8.2,8.1l-20-0.2L500.7,926.7z"/>
	</g>
	<g>
		<path class="st9" d="M195,868.1c0.1-11.3,9.2-20.4,20.2-20.2c11,0.1,19.9,9.4,19.8,20.7c-0.1,11.3-9.2,20.4-20.2,20.2
			C203.7,888.7,194.9,879.4,195,868.1z"/>
		<path class="st8" d="M199.4,871.4l19.5,0.2l-7.4,7.4l8.3,0.1l10.8-10.4L220,857.7l-8.8-0.1l8.2,8.1l-20-0.2L199.4,871.4z"/>
	</g>
	<g>
		<path class="st9" d="M195,823.5c0.1-11.3,9.2-20.4,20.2-20.2c11,0.1,19.9,9.4,19.8,20.7c-0.1,11.3-9.2,20.4-20.2,20.2
			C203.7,844,194.9,834.8,195,823.5z"/>
		<path class="st8" d="M199.3,826.8l19.5,0.2l-7.4,7.4l8.3,0.1l10.8-10.4L220,813l-8.8-0.1l8.2,8.1l-20-0.2L199.3,826.8z"/>
	</g>
	<g>
		<path class="st9" d="M188.5,686.4c0.1-11.3,9.2-20.4,20.2-20.2c11,0.1,19.9,9.4,19.8,20.7c-0.1,11.3-9.2,20.4-20.2,20.2
			C197.3,707,188.4,697.7,188.5,686.4z"/>
		<path class="st8" d="M192.9,689.7l19.5,0.2l-7.4,7.4l8.3,0.1l10.8-10.4L213.5,676l-8.8-0.1l8.2,8.1l-20-0.2L192.9,689.7z"/>
	</g>
	<rect x="1309.3" y="150" class="st11" width="135.7" height="103"/>
	<rect x="1476" y="150" class="st11" width="54" height="103"/>
	<path class="st11" d="M1621,231c0,0-1,5.5-5.2,9.2S1602,246,1602,246h-36v-49h55V231z"/>
	<rect x="1587.5" y="150" class="st11" width="32.5" height="41"/>
	<rect x="1566" y="150" class="st11" width="16.5" height="41"/>
	<rect x="1450" y="258.5" class="st11" width="80" height="23.5"/>
	<rect x="1535" y="150" class="st11" width="26" height="17.5"/>
	<g>
		<path class="st9" d="M1460.4,263.3c-7.8,0-14.1-6.2-14.1-13.9c0-7.6,6.4-13.8,14.2-13.7c7.8,0,14.1,6.2,14.1,13.9
			C1474.6,257.1,1468.2,263.3,1460.4,263.3z"/>
		<path class="st8" d="M1462.7,260.2l0.1-13.5l5.1,5.1l0-5.7l-7.2-7.4l-7.6,7.4l0,6.1l5.5-5.7l-0.1,13.8L1462.7,260.2z"/>
	</g>
	<g>
		<path class="st9" d="M1552.2,228.7c0-7.8,6.2-14.1,13.9-14.1c7.6,0,13.8,6.4,13.7,14.2c0,7.8-6.2,14.1-13.9,14.1
			C1558.3,242.9,1552.2,236.5,1552.2,228.7z"/>
		<path class="st8" d="M1555.2,231l13.5,0.1l-5.1,5.1l5.7,0l7.4-7.2l-7.4-7.6l-6.1,0l5.7,5.5l-13.8-0.1L1555.2,231z"/>
	</g>
	<g>
		<path class="st9" d="M1548.5,176.9c-5.3,0-9.6-4.2-9.6-9.4c0-5.2,4.3-9.4,9.6-9.4c5.3,0,9.6,4.2,9.6,9.4
			C1558.1,172.7,1553.8,176.9,1548.5,176.9z"/>
		<path class="st8" d="M1550,174.8l0-9.2l3.5,3.4l0-3.9l-4.9-5.1l-5.2,5l0,4.1l3.8-3.9l0,9.4L1550,174.8z"/>
	</g>
	<g>
		<path class="st9" d="M1553.8,179.9c0-5.3,4.2-9.6,9.4-9.6c5.2,0,9.4,4.3,9.4,9.6c0,5.3-4.2,9.6-9.4,9.6
			C1557.9,189.5,1553.8,185.2,1553.8,179.9z"/>
		<path class="st8" d="M1555.8,181.4l9.2,0l-3.4,3.5l3.9,0l5.1-4.9l-5-5.2l-4.1,0l3.9,3.8l-9.4,0L1555.8,181.4z"/>
	</g>
	<g>
		<path class="st9" d="M1578.1,179.9c0-5.3,4.2-9.6,9.4-9.6c5.2,0,9.4,4.3,9.4,9.6c0,5.3-4.2,9.6-9.4,9.6
			C1582.3,189.5,1578.1,185.2,1578.1,179.9z"/>
		<path class="st8" d="M1580.2,181.4l9.2,0l-3.4,3.5l3.9,0l5.1-4.9l-5-5.2l-4.1,0l3.9,3.8l-9.4,0L1580.2,181.4z"/>
	</g>
	<g>
		<path class="st9" d="M1542.3,270.3c0,7.8-6.2,14.1-13.9,14.1c-7.6,0-13.8-6.4-13.7-14.2c0-7.8,6.2-14.1,13.9-14.1
			C1536.2,256.2,1542.3,262.5,1542.3,270.3z"/>
		<path class="st8" d="M1539.3,268.1l-13.5-0.1l5.1-5.1l-5.7,0l-7.4,7.2l7.4,7.6l6.1,0l-5.7-5.5l13.8,0.1L1539.3,268.1z"/>
	</g>
</g>
</svg>
