<?xml version="1.0" encoding="utf-8"?>
<!-- Generator: Adobe Illustrator 21.0.0, SVG Export Plug-In . SVG Version: 6.00 Build 0)  -->
<svg version="1.1" id="图层_1" xmlns="http://www.w3.org/2000/svg" xmlns:xlink="http://www.w3.org/1999/xlink" x="0px" y="0px"
	 viewBox="0 0 1920 1280" style="enable-background:new 0 0 1920 1280;" xml:space="preserve">
<style type="text/css">
	.st0{display:none;}
	.st1{opacity:0.7;fill:#88DDFF;enable-background:new    ;}
	.st2{fill:#FFFFFF;}
	.st3{fill:#A7F3FD;}
	.st4{fill:#FFFC8A;}
	.st5{fill:#FFC294;}
	.st6{fill:#E2E2E2;}
	.st7{fill:none;stroke:#99C4E9;stroke-width:2;stroke-miterlimit:10;}
	.st8{fill:#1C1511;}
	.st9{fill:#148865;}
	.st10{fill:none;stroke:#2C287C;stroke-width:7;stroke-miterlimit:10;}
</style>
<g id="图层_4" class="st0">
	
		<image style="display:inline;overflow:visible;enable-background:new    ;" width="832" height="599" xlink:href="AAAAA93A.jpg"  transform="matrix(2.1814 0 0 2.1814 -22.6281 -86.1794)">
	</image>
</g>
<g id="图层_2" class="st0">
	
		<image style="display:inline;overflow:visible;enable-background:new    ;" width="801" height="587" xlink:href="AAAAA93B.jpg"  transform="matrix(2.18 0 0 2.18 78.5986 -0.8108)">
	</image>
</g>
<g id="图层_3" class="st0">
	
		<image style="display:inline;overflow:visible;enable-background:new    ;" width="788" height="593" xlink:href="AAAAA93E.jpg"  transform="matrix(2.1807 0 0 2.1824 66.5393 -29.6216)">
	</image>
</g>
<g id="图层_1_1_">
	<path class="st1" d="M208.5,642.6v403.5c0,0,86.9,111.4,369-8v23.4c301.5-85.7,358.5-2.5,564.2,10.8
		C1308,1069,1587,944,1600.4,627.5l1-372.9c0,0,22.6,0.9,28.3-20.8v-125H1576V17.5h-75.3v90H1304v366.1l-299.1,301H580.5V643.5
		L208.5,642.6z"/>
	<g>
		<path d="M1570.1,64.8c-0.2,18.2-15.3,32.8-33.8,32.6c-18.5-0.2-33.4-15.1-33.2-33.3c0.2-18.2,15.3-32.8,33.8-32.6
			C1555.4,31.7,1570.3,46.6,1570.1,64.8z"/>
		<path class="st2" d="M1540,86.2l-3.6,3.5l-3.5-4.2v-2.8l2.8,2.8V82h2.1v3.5l2.2-2.1V86.2z M1533.2,43.4l3.6-4.2l3.5,4.2v2.8
			l-2.1-2.8v3.5h-2.9v-3.5l-2.2,2.1L1533.2,43.4z M1530.9,66.5c0,0-0.7,0.7-1.4,0.7l-0.7-0.7l0.1-8.4c0,0,0.7-1.4,2.2-2.1l5,0.1
			c0,0,0.7,0,1.4,1.4l1.4,2.1c0,0,0.7,0.7,0.7,0l1.4-1.4c0.7,0,1.4,0,1.4,0c0.7,0.7,0.7,0.7,0,1.4l-2.2,2.8c0,0-0.7,0.7-2.1,0
			l-2.1-3.5l-0.2,17.5c0,0.7-0.7,1.4-0.7,1.4c-0.7,0-1.4-0.7-1.4-1.4l0.1-9.8c0,0-0.7-0.7-0.7,0l-0.1,9.8c0,0.7,0,1.4-0.7,1.4
			s-1.4-0.7-1.4-1.4l0.2-17.5c0,0,0,0,0,0.7L1530.9,66.5z M1545.1,64.6c0,0.7,0,1.4-0.7,1.4c0,0-0.7-0.7-0.7-1.4l0.7-0.7
			C1545.2,63.9,1545.1,64.6,1545.1,64.6L1545.1,64.6z M1545.2,61.8c0,0,0,0.7-0.7,0.7l-0.7-0.7c0-0.7,0.7-1.4,0.7-1.4
			C1545.2,60.4,1545.2,61.1,1545.2,61.8L1545.2,61.8z M1545.2,59c0,0.7,0,0.7-0.7,0.7c0,0-0.7,0-0.7-0.7s0.7-0.7,0.7-0.7
			C1545.2,58.3,1545.2,58.3,1545.2,59L1545.2,59z M1545.2,55.5c0,0.7,0,0.7-0.7,0.7c0,0-0.7,0-0.7-0.7s0.7-0.7,0.7-0.7
			C1545.2,54.8,1545.2,54.8,1545.2,55.5L1545.2,55.5z M1535.3,54c0,0.7-0.7,1.4-2.1,1.4c-0.7,0-1.4-0.7-1.4-1.4
			c0-1.4,0.7-2.1,1.4-2.1C1534.6,51.9,1535.3,52.6,1535.3,54L1535.3,54z M1548.9,49.2L1524,49l-0.3,31.5l26.3,0.2l0.3-31.5
			L1548.9,49.2z M1548.1,50.6c0,2.1-0.2,26.6-0.3,28c-2.1,0-20.6-0.2-22.8-0.2c0-1.4,0.2-25.9,0.3-28
			C1527.5,50.4,1546,50.6,1548.1,50.6L1548.1,50.6z M1558.4,89.9l-7.1-0.1l0.5-50.4l7.1,0.1L1558.4,89.9z M1521.4,89.6l-7.1-0.1
			l0.4-50.4l7.1,0.1L1521.4,89.6z"/>
	</g>
	<path class="st3" d="M510,1054.3c-181.3,67.3-276.6,12.6-295-12.3V650h295V1054.3z"/>
	<rect x="516.3" y="650" class="st4" width="58.3" height="124"/>
	<polygon class="st5" points="516.3,780.7 576.7,780.7 576.7,1030 516.3,1052 	"/>
	<rect x="1309.3" y="115.3" class="st4" width="310.7" height="28.7"/>
	<g>
		<g>
			<rect x="1339" y="613" class="st6" width="117.2" height="26.6"/>
			<rect x="1339" y="613" class="st7" width="9.1" height="26.6"/>
			<rect x="1348.1" y="613" class="st7" width="9.1" height="26.6"/>
			<rect x="1357.1" y="613" class="st7" width="9.1" height="26.6"/>
			<rect x="1366.2" y="613" class="st7" width="9.1" height="26.6"/>
			<rect x="1375.2" y="613" class="st7" width="9.1" height="26.6"/>
			<rect x="1384.3" y="613" class="st7" width="9.1" height="26.6"/>
			<rect x="1393.3" y="613" class="st7" width="9.1" height="26.6"/>
			<rect x="1402.4" y="613" class="st7" width="9.1" height="26.6"/>
			<rect x="1411.4" y="613" class="st7" width="9.1" height="26.6"/>
			<rect x="1420.5" y="613" class="st7" width="9.1" height="26.6"/>
			<rect x="1429.5" y="613" class="st7" width="9.1" height="26.6"/>
			<rect x="1438.6" y="613" class="st7" width="9.1" height="26.6"/>
			<rect x="1447.7" y="613" class="st7" width="9.1" height="26.6"/>
		</g>
		<g>
			<rect x="1338.8" y="645.2" class="st6" width="117.2" height="26.6"/>
			<rect x="1338.8" y="645.2" class="st7" width="9.1" height="26.6"/>
			<rect x="1347.8" y="645.2" class="st7" width="9.1" height="26.6"/>
			<rect x="1356.9" y="645.2" class="st7" width="9.1" height="26.6"/>
			<rect x="1365.9" y="645.2" class="st7" width="9.1" height="26.6"/>
			<rect x="1375" y="645.2" class="st7" width="9.1" height="26.6"/>
			<rect x="1384" y="645.2" class="st7" width="9.1" height="26.6"/>
			<rect x="1393.1" y="645.2" class="st7" width="9.1" height="26.6"/>
			<rect x="1402.1" y="645.2" class="st7" width="9.1" height="26.6"/>
			<rect x="1411.2" y="645.2" class="st7" width="9.1" height="26.6"/>
			<rect x="1420.3" y="645.2" class="st7" width="9.1" height="26.6"/>
			<rect x="1429.3" y="645.2" class="st7" width="9.1" height="26.6"/>
			<rect x="1438.4" y="645.2" class="st7" width="9.1" height="26.6"/>
			<rect x="1447.4" y="645.2" class="st7" width="9.1" height="26.6"/>
		</g>
	</g>
	<g>
		<path class="st8" d="M1417.8,643.6c0,11.4-9.3,20.6-20.8,20.6s-20.8-9.2-20.8-20.6c0-11.4,9.3-20.6,20.8-20.6
			S1417.8,632.2,1417.8,643.6z"/>
		<path class="st2" d="M1404.9,631L1404.9,631c0,0-4.1,3.5-8.1,7.6v-2.5c0-1-1-1.5-2-1.5c-0.5,0-1.5,0.5-1.5,1.5v5.5
			c-3.5,3-7.1,6-7.1,6c-0.5,0-1.5,0-1.5,0c-2.5,0-4.6,2-4.6,4.5s2,4.5,4.6,4.5h4.1c0,0,19.3-16.1,19.8-16.6c0.5,0,1,0,1,0
			c2.5,0,4.6-2,4.6-4.5s-2-4.5-4.6-4.5H1404.9L1404.9,631z M1409.5,632.5c2,0,3,1.5,3,3c0,2-1,3-3,3h-1.5l-19.8,16.6
			c-0.5,0-3.5,0-3.5,0c-1.5,0-3-1.5-3-3s1.5-3,3-3h2c0,0,18.2-16.1,18.8-16.6C1405.9,632.5,1409.5,632.5,1409.5,632.5L1409.5,632.5z
			 M1396.8,632c0,1-1,2-2,2s-1.5-1-1.5-2c0-0.5,0.5-1.5,1.5-1.5S1396.8,631.5,1396.8,632L1396.8,632z"/>
	</g>
	<g>
		<g>
			<rect x="1173.6" y="816.6" class="st6" width="26.6" height="117.2"/>
			<rect x="1173.6" y="816.6" class="st7" width="26.6" height="9.1"/>
			<rect x="1173.6" y="825.7" class="st7" width="26.6" height="9.1"/>
			<rect x="1173.6" y="834.7" class="st7" width="26.6" height="9.1"/>
			<rect x="1173.6" y="843.8" class="st7" width="26.6" height="9.1"/>
			<rect x="1173.6" y="852.8" class="st7" width="26.6" height="9.1"/>
			<rect x="1173.6" y="861.9" class="st7" width="26.6" height="9.1"/>
			<rect x="1173.6" y="870.9" class="st7" width="26.6" height="9.1"/>
			<rect x="1173.6" y="880" class="st7" width="26.6" height="9.1"/>
			<rect x="1173.6" y="889" class="st7" width="26.6" height="9.1"/>
			<rect x="1173.6" y="898.1" class="st7" width="26.6" height="9.1"/>
			<rect x="1173.6" y="907.1" class="st7" width="26.6" height="9.1"/>
			<rect x="1173.6" y="916.2" class="st7" width="26.6" height="9.1"/>
			<rect x="1173.6" y="925.3" class="st7" width="26.6" height="9.1"/>
		</g>
		<g>
			<rect x="1141.4" y="816.4" class="st6" width="26.6" height="117.2"/>
			<rect x="1141.4" y="816.4" class="st7" width="26.6" height="9.1"/>
			<rect x="1141.4" y="825.4" class="st7" width="26.6" height="9.1"/>
			<rect x="1141.4" y="834.5" class="st7" width="26.6" height="9.1"/>
			<rect x="1141.4" y="843.5" class="st7" width="26.6" height="9.1"/>
			<rect x="1141.4" y="852.6" class="st7" width="26.6" height="9.1"/>
			<rect x="1141.4" y="861.6" class="st7" width="26.6" height="9.1"/>
			<rect x="1141.4" y="870.7" class="st7" width="26.6" height="9.1"/>
			<rect x="1141.4" y="879.7" class="st7" width="26.6" height="9.1"/>
			<rect x="1141.4" y="888.8" class="st7" width="26.6" height="9.1"/>
			<rect x="1141.4" y="897.8" class="st7" width="26.6" height="9.1"/>
			<rect x="1141.4" y="906.9" class="st7" width="26.6" height="9.1"/>
			<rect x="1141.4" y="916" class="st7" width="26.6" height="9.1"/>
			<rect x="1141.4" y="925" class="st7" width="26.6" height="9.1"/>
		</g>
	</g>
	<g>
		<path class="st8" d="M1192.8,875c0,11.4-9.3,20.6-20.8,20.6s-20.8-9.2-20.8-20.6c0-11.4,9.3-20.6,20.8-20.6
			C1183.5,854.3,1192.8,863.6,1192.8,875z"/>
		<path class="st2" d="M1179.9,862.4L1179.9,862.4c0,0-4.1,3.5-8.1,7.6v-2.5c0-1-1-1.5-2-1.5c-0.5,0-1.5,0.5-1.5,1.5v5.5
			c-3.5,3-7.1,6-7.1,6c-0.5,0-1.5,0-1.5,0c-2.5,0-4.6,2-4.6,4.5s2,4.5,4.6,4.5h4.1c0,0,19.3-16.1,19.8-16.6c0.5,0,1,0,1,0
			c2.5,0,4.6-2,4.6-4.5s-2-4.5-4.6-4.5H1179.9L1179.9,862.4z M1184.4,863.9c2,0,3,1.5,3,3c0,2-1,3-3,3h-1.5l-19.8,16.6
			c-0.5,0-3.5,0-3.5,0c-1.5,0-3-1.5-3-3s1.5-3,3-3h2c0,0,18.2-16.1,18.8-16.6C1180.9,863.9,1184.4,863.9,1184.4,863.9L1184.4,863.9z
			 M1171.7,863.4c0,1-1,2-2,2s-1.5-1-1.5-2c0-0.5,0.5-1.5,1.5-1.5S1171.7,862.9,1171.7,863.4L1171.7,863.4z"/>
	</g>
	<g>
		<path class="st9" d="M554,626.2c11.3,0,20.4,9,20.4,20.1c-0.1,11-9.2,20-20.5,19.9c-11.3,0-20.4-9-20.4-20.1
			C533.5,635,542.7,626.1,554,626.2z"/>
		<path class="st2" d="M550.8,630.6l-0.1,19.5l-7.4-7.3v8.3l10.4,10.8l11-10.7v-8.8l-8,8.3l0.1-20L550.8,630.6z"/>
	</g>
	<line class="st10" x1="1010" y1="774.6" x2="1141.4" y2="774.6"/>
	<line class="st10" x1="1309.3" y1="613" x2="1477.1" y2="613"/>
	<line class="st10" x1="1141.4" y1="770.7" x2="1141.4" y2="938.5"/>
	<path class="st3" d="M585,780.7V1052c70.2-15.9,156.2-44,284.9-31.4C966,1030,997,1052,1136,1066V924.5L992,780.7H585z"/>
	<g>
		<path class="st9" d="M1047,824.1c6,9.6,3.2,22.1-6.2,27.9c-9.4,5.8-21.8,2.8-27.8-6.8s-3.2-22.1,6.2-27.9
			C1028.6,811.5,1041,814.5,1047,824.1z"/>
		<path class="st2" d="M1041.5,823.7L1025,834l2.3-10.2l-7,4.4l-3.6,14.6l14.9,3.6l7.5-4.6l-11.3-2.4l17-10.6L1041.5,823.7z"/>
	</g>
	<g>
		<path class="st9" d="M596.7,924.6c0,11.3-9,20.4-20.1,20.4c-11-0.1-20-9.2-19.9-20.5c0-11.3,9-20.4,20.1-20.4
			C587.8,904.1,596.7,913.3,596.7,924.6z"/>
		<path class="st2" d="M592.3,921.4l-19.5-0.1l7.3-7.4h-8.3L561,924.3l10.7,11h8.8l-8.3-8l20,0.1L592.3,921.4z"/>
	</g>
	<g>
		<path class="st9" d="M496.3,923.4c0.1-11.3,9.2-20.4,20.2-20.2c11,0.1,19.9,9.4,19.8,20.7c-0.1,11.3-9.2,20.4-20.2,20.2
			C505.1,943.9,496.2,934.7,496.3,923.4z"/>
		<path class="st2" d="M500.7,926.7l19.5,0.2l-7.4,7.4l8.3,0.1l10.8-10.4l-10.6-11.1l-8.8-0.1l8.2,8.1l-20-0.2V926.7z"/>
	</g>
	<g>
		<path class="st9" d="M195,868.1c0.1-11.3,9.2-20.4,20.2-20.2c11,0.1,19.9,9.4,19.8,20.7c-0.1,11.3-9.2,20.4-20.2,20.2
			C203.7,888.7,194.9,879.4,195,868.1z"/>
		<path class="st2" d="M199.4,871.4l19.5,0.2l-7.4,7.4l8.3,0.1l10.8-10.4l-10.6-11l-8.8-0.1l8.2,8.1l-20-0.2V871.4z"/>
	</g>
	<g>
		<path class="st9" d="M195,823.5c0.1-11.3,9.2-20.4,20.2-20.2c11,0.1,19.9,9.4,19.8,20.7c-0.1,11.3-9.2,20.4-20.2,20.2
			C203.7,844,194.9,834.8,195,823.5z"/>
		<path class="st2" d="M199.3,826.8l19.5,0.2l-7.4,7.4l8.3,0.1l10.8-10.4L220,813l-8.8-0.1l8.2,8.1l-20-0.2L199.3,826.8z"/>
	</g>
	<g>
		<path class="st9" d="M188.5,686.4c0.1-11.3,9.2-20.4,20.2-20.2c11,0.1,19.9,9.4,19.8,20.7c-0.1,11.3-9.2,20.4-20.2,20.2
			C197.3,707,188.4,697.7,188.5,686.4z"/>
		<path class="st2" d="M192.9,689.7l19.5,0.2l-7.4,7.4l8.3,0.1l10.8-10.4l-10.6-11l-8.8-0.1l8.2,8.1l-20-0.2V689.7z"/>
	</g>
</g>
</svg>
