<?xml version="1.0" encoding="utf-8"?>
<!-- Generator: Adobe Illustrator 17.0.0, SVG Export Plug-In . SVG Version: 6.00 Build 0)  -->
<!DOCTYPE svg PUBLIC "-//W3C//DTD SVG 1.1//EN" "http://www.w3.org/Graphics/SVG/1.1/DTD/svg11.dtd">
<svg version="1.1" id="图层_1" xmlns="http://www.w3.org/2000/svg" xmlns:xlink="http://www.w3.org/1999/xlink" x="0px" y="0px"
	 width="1920px" height="1280px" viewBox="0 0 1920 1280" enable-background="new 0 0 1920 1280" xml:space="preserve">
<rect x="6.581" y="48.708" opacity="0.7" fill="#A0A0A0" enable-background="new    " width="1907.912" height="1180.922"/>
<rect x="124.845" y="723.901" fill="#F4D5BF" width="187.779" height="121.599"/>
<rect x="124.845" y="854.5" fill="#E2E2E2" width="187.002" height="69.168"/>
<rect x="1016.694" y="437.5" fill="#90CFC8" width="46.5" height="45.5"/>
<rect x="1016.694" y="342.5" fill="#FCFAD3" width="46.5" height="86.5"/>
<rect x="1016.694" y="488.667" fill="#90CFC8" width="46.5" height="45.5"/>
<rect x="842.027" y="437.5" fill="#FCFAD3" width="65.015" height="119.833"/>
<rect x="124.845" y="854.5" fill="none" stroke="#99C4E9" stroke-width="2" stroke-miterlimit="10" width="14.445" height="69.168"/>
<rect x="139.29" y="854.5" fill="none" stroke="#99C4E9" stroke-width="2" stroke-miterlimit="10" width="14.445" height="69.168"/>
<rect x="153.735" y="854.5" fill="none" stroke="#99C4E9" stroke-width="2" stroke-miterlimit="10" width="14.445" height="69.168"/>
<rect x="168.179" y="854.5" fill="none" stroke="#99C4E9" stroke-width="2" stroke-miterlimit="10" width="14.445" height="69.168"/>
<rect x="182.624" y="854.5" fill="none" stroke="#99C4E9" stroke-width="2" stroke-miterlimit="10" width="14.445" height="69.168"/>
<rect x="197.068" y="854.5" fill="none" stroke="#99C4E9" stroke-width="2" stroke-miterlimit="10" width="14.445" height="69.168"/>
<rect x="211.513" y="854.5" fill="none" stroke="#99C4E9" stroke-width="2" stroke-miterlimit="10" width="14.445" height="69.168"/>
<rect x="225.957" y="854.5" fill="none" stroke="#99C4E9" stroke-width="2" stroke-miterlimit="10" width="14.445" height="69.168"/>
<rect x="240.402" y="854.5" fill="none" stroke="#99C4E9" stroke-width="2" stroke-miterlimit="10" width="14.445" height="69.168"/>
<rect x="254.847" y="854.5" fill="none" stroke="#99C4E9" stroke-width="2" stroke-miterlimit="10" width="14.445" height="69.168"/>
<rect x="269.291" y="854.5" fill="none" stroke="#99C4E9" stroke-width="2" stroke-miterlimit="10" width="14.445" height="69.168"/>
<rect x="283.736" y="854.5" fill="none" stroke="#99C4E9" stroke-width="2" stroke-miterlimit="10" width="14.445" height="69.168"/>
<rect x="298.18" y="854.5" fill="none" stroke="#99C4E9" stroke-width="2" stroke-miterlimit="10" width="14.445" height="69.168"/>
<rect x="1600.673" y="722.415" fill="#F4D5BF" width="184.452" height="113.907"/>
<rect x="1600.673" y="845.5" fill="#E2E2E2" width="181.125" height="77.738"/>
<rect x="1665.963" y="845.5" fill="none" stroke="#99C4E9" stroke-width="2" stroke-miterlimit="10" width="14.445" height="77.453"/>
<rect x="1680.407" y="845.5" fill="none" stroke="#99C4E9" stroke-width="2" stroke-miterlimit="10" width="14.445" height="77.453"/>
<rect x="1694.852" y="845.5" fill="none" stroke="#99C4E9" stroke-width="2" stroke-miterlimit="10" width="14.445" height="77.453"/>
<rect x="1709.297" y="845.5" fill="none" stroke="#99C4E9" stroke-width="2" stroke-miterlimit="10" width="14.445" height="77.453"/>
<rect x="1723.741" y="845.5" fill="none" stroke="#99C4E9" stroke-width="2" stroke-miterlimit="10" width="14.445" height="77.453"/>
<rect x="1738.186" y="845.5" fill="none" stroke="#99C4E9" stroke-width="2" stroke-miterlimit="10" width="14.445" height="77.453"/>
<rect x="1752.63" y="845.5" fill="none" stroke="#99C4E9" stroke-width="2" stroke-miterlimit="10" width="14.445" height="77.453"/>
<rect x="1767.075" y="845.5" fill="none" stroke="#99C4E9" stroke-width="2" stroke-miterlimit="10" width="14.445" height="77.453"/>
<rect x="1608.508" y="845.5" fill="none" stroke="#99C4E9" stroke-width="2" stroke-miterlimit="10" width="14.445" height="77.453"/>
<rect x="1622.953" y="845.5" fill="none" stroke="#99C4E9" stroke-width="2" stroke-miterlimit="10" width="14.445" height="77.453"/>
<rect x="1637.397" y="845.5" fill="none" stroke="#99C4E9" stroke-width="2" stroke-miterlimit="10" width="14.445" height="77.453"/>
<rect x="1651.842" y="845.5" fill="none" stroke="#99C4E9" stroke-width="2" stroke-miterlimit="10" width="14.445" height="77.453"/>
<rect x="1539" y="1058" fill="#A7DAE6" width="246.125" height="106"/>
<rect x="124.845" y="1058" fill="#A7DAE6" width="187.002" height="106"/>
<path fill="#99CCFF" d="M1785.125,84v64.112h-65.279V84H132.068v123H22v135.5h110.068v119.75h50.556v73.917h-50.556V717H339v218
	h-91.376v110H323v119h16h1186v-120h52h85.062V936H1577V714h208.125V536.167h-50.551V462.25h50.551V342.5H1881V84H1785.125z
	 M1071,539.833H919v22.75h-85V429h85h87.534v-94H1071v205"/>
<rect x="35.468" y="218.441" fill="none" stroke="#FFFFFF" stroke-width="2" stroke-miterlimit="10" width="111.045" height="49.497"/>
<rect x="35.468" y="267.938" fill="none" stroke="#FFFFFF" stroke-width="2" stroke-miterlimit="10" width="111.045" height="49.497"/>
<rect x="1761.955" y="227.44" fill="none" stroke="#FFFFFF" stroke-width="2" stroke-miterlimit="10" width="111.045" height="49.497"/>
<rect x="1761.955" y="276.938" fill="none" stroke="#FFFFFF" stroke-width="2" stroke-miterlimit="10" width="111.045" height="49.497"/>
<rect x="1666.955" y="610" fill="none" stroke="#FFFFFF" stroke-width="2" stroke-miterlimit="10" width="111.045" height="49.497"/>
<rect x="1666.955" y="560.503" fill="none" stroke="#FFFFFF" stroke-width="2" stroke-miterlimit="10" width="111.045" height="49.497"/>
<rect x="1666.955" y="659.497" fill="none" stroke="#FFFFFF" stroke-width="2" stroke-miterlimit="10" width="111.045" height="49.497"/>
<rect x="138.622" y="610.753" fill="none" stroke="#FFFFFF" stroke-width="2" stroke-miterlimit="10" width="111.045" height="49.497"/>
<rect x="138.622" y="561.256" fill="none" stroke="#FFFFFF" stroke-width="2" stroke-miterlimit="10" width="111.045" height="49.497"/>
<rect x="138.622" y="660.251" fill="none" stroke="#FFFFFF" stroke-width="2" stroke-miterlimit="10" width="111.045" height="49.497"/>
<rect x="249.667" y="441.149" fill="none" stroke="#FFFFFF" stroke-width="2" stroke-miterlimit="10" width="49.497" height="111.045"/>
<rect x="322.169" y="441.149" fill="none" stroke="#FFFFFF" stroke-width="2" stroke-miterlimit="10" width="49.497" height="111.045"/>
<rect x="371.667" y="441.149" fill="none" stroke="#FFFFFF" stroke-width="2" stroke-miterlimit="10" width="49.497" height="111.045"/>
<rect x="421.164" y="441.149" fill="none" stroke="#FFFFFF" stroke-width="2" stroke-miterlimit="10" width="49.497" height="111.045"/>
<rect x="322.169" y="330.104" fill="none" stroke="#FFFFFF" stroke-width="2" stroke-miterlimit="10" width="49.497" height="111.045"/>
<rect x="371.667" y="330.104" fill="none" stroke="#FFFFFF" stroke-width="2" stroke-miterlimit="10" width="49.497" height="111.045"/>
<rect x="421.164" y="330.104" fill="none" stroke="#FFFFFF" stroke-width="2" stroke-miterlimit="10" width="49.497" height="111.045"/>
<rect x="150.672" y="330.104" fill="none" stroke="#FFFFFF" stroke-width="2" stroke-miterlimit="10" width="49.497" height="111.045"/>
<rect x="200.169" y="330.104" fill="none" stroke="#FFFFFF" stroke-width="2" stroke-miterlimit="10" width="49.497" height="111.045"/>
<rect x="249.667" y="330.104" fill="none" stroke="#FFFFFF" stroke-width="2" stroke-miterlimit="10" width="49.497" height="111.045"/>
<rect x="149.513" y="90.482" fill="none" stroke="#FFFFFF" stroke-width="2" stroke-miterlimit="10" width="49.497" height="111.045"/>
<rect x="199.01" y="90.482" fill="none" stroke="#FFFFFF" stroke-width="2" stroke-miterlimit="10" width="49.497" height="111.045"/>
<rect x="248.507" y="90.482" fill="none" stroke="#FFFFFF" stroke-width="2" stroke-miterlimit="10" width="49.497" height="111.045"/>
<rect x="322.508" y="90.482" fill="none" stroke="#FFFFFF" stroke-width="2" stroke-miterlimit="10" width="49.497" height="111.045"/>
<rect x="372.005" y="90.482" fill="none" stroke="#FFFFFF" stroke-width="2" stroke-miterlimit="10" width="49.497" height="111.045"/>
<rect x="421.503" y="90.482" fill="none" stroke="#FFFFFF" stroke-width="2" stroke-miterlimit="10" width="49.497" height="111.045"/>
<rect x="501.175" y="90.482" fill="none" stroke="#FFFFFF" stroke-width="2" stroke-miterlimit="10" width="49.497" height="111.045"/>
<rect x="550.672" y="90.482" fill="none" stroke="#FFFFFF" stroke-width="2" stroke-miterlimit="10" width="49.497" height="111.045"/>
<rect x="600.169" y="90.482" fill="none" stroke="#FFFFFF" stroke-width="2" stroke-miterlimit="10" width="49.497" height="111.045"/>
<rect x="677.508" y="90.482" fill="none" stroke="#FFFFFF" stroke-width="2" stroke-miterlimit="10" width="49.497" height="111.045"/>
<rect x="727.005" y="90.482" fill="none" stroke="#FFFFFF" stroke-width="2" stroke-miterlimit="10" width="49.497" height="111.045"/>
<rect x="776.503" y="90.482" fill="none" stroke="#FFFFFF" stroke-width="2" stroke-miterlimit="10" width="49.497" height="111.045"/>
<rect x="854.508" y="90.482" fill="none" stroke="#FFFFFF" stroke-width="2" stroke-miterlimit="10" width="49.497" height="111.045"/>
<rect x="904.005" y="90.482" fill="none" stroke="#FFFFFF" stroke-width="2" stroke-miterlimit="10" width="49.497" height="111.045"/>
<rect x="953.503" y="90.482" fill="none" stroke="#FFFFFF" stroke-width="2" stroke-miterlimit="10" width="49.497" height="111.045"/>
<rect x="1003" y="90.482" fill="none" stroke="#FFFFFF" stroke-width="2" stroke-miterlimit="10" width="49.497" height="111.045"/>
<rect x="1082.175" y="90.482" fill="none" stroke="#FFFFFF" stroke-width="2" stroke-miterlimit="10" width="49.497" height="111.045"/>
<rect x="1131.672" y="90.482" fill="none" stroke="#FFFFFF" stroke-width="2" stroke-miterlimit="10" width="49.497" height="111.045"/>
<rect x="1181.169" y="90.482" fill="none" stroke="#FFFFFF" stroke-width="2" stroke-miterlimit="10" width="49.497" height="111.045"/>
<rect x="1257.508" y="90.482" fill="none" stroke="#FFFFFF" stroke-width="2" stroke-miterlimit="10" width="49.497" height="111.045"/>
<rect x="1307.005" y="90.482" fill="none" stroke="#FFFFFF" stroke-width="2" stroke-miterlimit="10" width="49.497" height="111.045"/>
<rect x="1356.503" y="90.482" fill="none" stroke="#FFFFFF" stroke-width="2" stroke-miterlimit="10" width="49.497" height="111.045"/>
<rect x="1436.841" y="90.482" fill="none" stroke="#FFFFFF" stroke-width="2" stroke-miterlimit="10" width="49.497" height="111.045"/>
<rect x="1486.339" y="90.482" fill="none" stroke="#FFFFFF" stroke-width="2" stroke-miterlimit="10" width="49.497" height="111.045"/>
<rect x="1535.836" y="90.482" fill="none" stroke="#FFFFFF" stroke-width="2" stroke-miterlimit="10" width="49.497" height="111.045"/>
<rect x="1613.463" y="90.482" fill="none" stroke="#FFFFFF" stroke-width="2" stroke-miterlimit="10" width="49.497" height="111.045"/>
<rect x="1662.961" y="90.482" fill="none" stroke="#FFFFFF" stroke-width="2" stroke-miterlimit="10" width="49.497" height="111.045"/>
<rect x="677.508" y="330.104" fill="none" stroke="#FFFFFF" stroke-width="2" stroke-miterlimit="10" width="49.497" height="111.045"/>
<rect x="727.005" y="330.104" fill="none" stroke="#FFFFFF" stroke-width="2" stroke-miterlimit="10" width="49.497" height="111.045"/>
<rect x="776.503" y="330.104" fill="none" stroke="#FFFFFF" stroke-width="2" stroke-miterlimit="10" width="49.497" height="111.045"/>
<rect x="677.508" y="441.894" fill="none" stroke="#FFFFFF" stroke-width="2" stroke-miterlimit="10" width="49.497" height="111.045"/>
<rect x="727.005" y="441.894" fill="none" stroke="#FFFFFF" stroke-width="2" stroke-miterlimit="10" width="49.497" height="111.045"/>
<rect x="776.503" y="441.894" fill="none" stroke="#FFFFFF" stroke-width="2" stroke-miterlimit="10" width="49.497" height="111.045"/>
<rect x="1082.175" y="330.104" fill="none" stroke="#FFFFFF" stroke-width="2" stroke-miterlimit="10" width="49.497" height="111.045"/>
<rect x="1131.672" y="330.104" fill="none" stroke="#FFFFFF" stroke-width="2" stroke-miterlimit="10" width="49.497" height="111.045"/>
<rect x="1181.169" y="330.104" fill="none" stroke="#FFFFFF" stroke-width="2" stroke-miterlimit="10" width="49.497" height="111.045"/>
<rect x="1082.175" y="441.894" fill="none" stroke="#FFFFFF" stroke-width="2" stroke-miterlimit="10" width="49.497" height="111.045"/>
<rect x="1131.672" y="441.894" fill="none" stroke="#FFFFFF" stroke-width="2" stroke-miterlimit="10" width="49.497" height="111.045"/>
<rect x="1181.169" y="441.894" fill="none" stroke="#FFFFFF" stroke-width="2" stroke-miterlimit="10" width="49.497" height="111.045"/>
<rect x="1436.841" y="330.104" fill="none" stroke="#FFFFFF" stroke-width="2" stroke-miterlimit="10" width="49.497" height="111.045"/>
<rect x="1486.339" y="330.104" fill="none" stroke="#FFFFFF" stroke-width="2" stroke-miterlimit="10" width="49.497" height="111.045"/>
<rect x="1535.836" y="330.104" fill="none" stroke="#FFFFFF" stroke-width="2" stroke-miterlimit="10" width="49.497" height="111.045"/>
<rect x="1436.841" y="441.894" fill="none" stroke="#FFFFFF" stroke-width="2" stroke-miterlimit="10" width="49.497" height="111.045"/>
<rect x="1486.339" y="441.894" fill="none" stroke="#FFFFFF" stroke-width="2" stroke-miterlimit="10" width="49.497" height="111.045"/>
<rect x="1535.836" y="441.894" fill="none" stroke="#FFFFFF" stroke-width="2" stroke-miterlimit="10" width="49.497" height="111.045"/>
<rect x="1608.508" y="330.104" fill="none" stroke="#FFFFFF" stroke-width="2" stroke-miterlimit="10" width="49.497" height="111.045"/>
<rect x="1658.005" y="330.104" fill="none" stroke="#FFFFFF" stroke-width="2" stroke-miterlimit="10" width="49.497" height="111.045"/>
<rect x="1707.503" y="330.104" fill="none" stroke="#FFFFFF" stroke-width="2" stroke-miterlimit="10" width="49.497" height="111.045"/>
<rect x="1608.508" y="441.894" fill="none" stroke="#FFFFFF" stroke-width="2" stroke-miterlimit="10" width="49.497" height="111.045"/>
<rect x="1257.508" y="330.104" fill="none" stroke="#FFFFFF" stroke-width="2" stroke-miterlimit="10" width="49.497" height="111.045"/>
<rect x="1257.508" y="441.894" fill="none" stroke="#FFFFFF" stroke-width="2" stroke-miterlimit="10" width="49.497" height="111.045"/>
<rect x="600.169" y="330.104" fill="none" stroke="#FFFFFF" stroke-width="2" stroke-miterlimit="10" width="49.497" height="111.045"/>
<rect x="600.169" y="441.894" fill="none" stroke="#FFFFFF" stroke-width="2" stroke-miterlimit="10" width="49.497" height="111.045"/>
<rect x="677.508" y="700.955" fill="none" stroke="#FFFFFF" stroke-width="2" stroke-miterlimit="10" width="49.497" height="111.045"/>
<rect x="727.005" y="700.955" fill="none" stroke="#FFFFFF" stroke-width="2" stroke-miterlimit="10" width="49.497" height="111.045"/>
<rect x="727.005" y="812.745" fill="none" stroke="#FFFFFF" stroke-width="2" stroke-miterlimit="10" width="49.497" height="111.045"/>
<rect x="776.503" y="700.955" fill="none" stroke="#FFFFFF" stroke-width="2" stroke-miterlimit="10" width="49.497" height="111.045"/>
<rect x="677.508" y="812.745" fill="none" stroke="#FFFFFF" stroke-width="2" stroke-miterlimit="10" width="49.497" height="111.045"/>
<rect x="776.503" y="812.745" fill="none" stroke="#FFFFFF" stroke-width="2" stroke-miterlimit="10" width="49.497" height="111.045"/>
<rect x="347.257" y="700.955" fill="none" stroke="#FFFFFF" stroke-width="2" stroke-miterlimit="10" width="49.497" height="111.045"/>
<rect x="396.754" y="700.955" fill="none" stroke="#FFFFFF" stroke-width="2" stroke-miterlimit="10" width="49.497" height="111.045"/>
<rect x="396.754" y="812.745" fill="none" stroke="#FFFFFF" stroke-width="2" stroke-miterlimit="10" width="49.497" height="111.045"/>
<rect x="446.251" y="700.955" fill="none" stroke="#FFFFFF" stroke-width="2" stroke-miterlimit="10" width="49.497" height="111.045"/>
<rect x="347.257" y="812.745" fill="none" stroke="#FFFFFF" stroke-width="2" stroke-miterlimit="10" width="49.497" height="111.045"/>
<rect x="446.251" y="812.745" fill="none" stroke="#FFFFFF" stroke-width="2" stroke-miterlimit="10" width="49.497" height="111.045"/>
<rect x="1418.093" y="700.955" fill="none" stroke="#FFFFFF" stroke-width="2" stroke-miterlimit="10" width="49.497" height="111.045"/>
<rect x="1467.59" y="700.955" fill="none" stroke="#FFFFFF" stroke-width="2" stroke-miterlimit="10" width="49.497" height="111.045"/>
<rect x="1467.59" y="812.745" fill="none" stroke="#FFFFFF" stroke-width="2" stroke-miterlimit="10" width="49.497" height="111.045"/>
<rect x="1517.087" y="700.955" fill="none" stroke="#FFFFFF" stroke-width="2" stroke-miterlimit="10" width="49.497" height="111.045"/>
<rect x="1418.093" y="812.745" fill="none" stroke="#FFFFFF" stroke-width="2" stroke-miterlimit="10" width="49.497" height="111.045"/>
<rect x="1517.087" y="812.745" fill="none" stroke="#FFFFFF" stroke-width="2" stroke-miterlimit="10" width="49.497" height="111.045"/>
<rect x="1082.175" y="700.955" fill="none" stroke="#FFFFFF" stroke-width="2" stroke-miterlimit="10" width="49.497" height="111.045"/>
<rect x="1131.672" y="700.955" fill="none" stroke="#FFFFFF" stroke-width="2" stroke-miterlimit="10" width="49.497" height="111.045"/>
<rect x="1181.169" y="700.955" fill="none" stroke="#FFFFFF" stroke-width="2" stroke-miterlimit="10" width="49.497" height="111.045"/>
<rect x="1082.175" y="812.745" fill="none" stroke="#FFFFFF" stroke-width="2" stroke-miterlimit="10" width="49.497" height="111.045"/>
<rect x="1131.672" y="812.745" fill="none" stroke="#FFFFFF" stroke-width="2" stroke-miterlimit="10" width="49.497" height="111.045"/>
<rect x="1181.169" y="812.745" fill="none" stroke="#FFFFFF" stroke-width="2" stroke-miterlimit="10" width="49.497" height="111.045"/>
<rect x="854.175" y="700.955" fill="none" stroke="#FFFFFF" stroke-width="2" stroke-miterlimit="10" width="49.497" height="111.045"/>
<rect x="903.672" y="700.955" fill="none" stroke="#FFFFFF" stroke-width="2" stroke-miterlimit="10" width="49.497" height="111.045"/>
<rect x="953.169" y="700.955" fill="none" stroke="#FFFFFF" stroke-width="2" stroke-miterlimit="10" width="49.497" height="111.045"/>
<rect x="854.175" y="812.745" fill="none" stroke="#FFFFFF" stroke-width="2" stroke-miterlimit="10" width="49.497" height="111.045"/>
<rect x="903.672" y="812.745" fill="none" stroke="#FFFFFF" stroke-width="2" stroke-miterlimit="10" width="49.497" height="111.045"/>
<rect x="953.169" y="812.745" fill="none" stroke="#FFFFFF" stroke-width="2" stroke-miterlimit="10" width="49.497" height="111.045"/>
<rect x="1002.667" y="700.955" fill="none" stroke="#FFFFFF" stroke-width="2" stroke-miterlimit="10" width="49.497" height="111.045"/>
<rect x="1002.667" y="812.745" fill="none" stroke="#FFFFFF" stroke-width="2" stroke-miterlimit="10" width="49.497" height="111.045"/>
<rect x="1257.508" y="700.955" fill="none" stroke="#FFFFFF" stroke-width="2" stroke-miterlimit="10" width="49.497" height="111.045"/>
<rect x="1257.508" y="812.745" fill="none" stroke="#FFFFFF" stroke-width="2" stroke-miterlimit="10" width="49.497" height="111.045"/>
<rect x="600.169" y="700.955" fill="none" stroke="#FFFFFF" stroke-width="2" stroke-miterlimit="10" width="49.497" height="111.045"/>
<rect x="600.169" y="812.745" fill="none" stroke="#FFFFFF" stroke-width="2" stroke-miterlimit="10" width="49.497" height="111.045"/>
<rect x="849.786" y="317.955" fill="none" stroke="#FFFFFF" stroke-width="2" stroke-miterlimit="10" width="49.497" height="111.045"/>
<rect x="899.283" y="317.955" fill="none" stroke="#FFFFFF" stroke-width="2" stroke-miterlimit="10" width="49.497" height="111.045"/>
<rect x="396.415" y="1041.849" fill="none" stroke="#FFFFFF" stroke-width="2" stroke-miterlimit="10" width="49.497" height="111.045"/>
<rect x="346.918" y="1041.849" fill="none" stroke="#FFFFFF" stroke-width="2" stroke-miterlimit="10" width="49.497" height="111.045"/>
<rect x="445.913" y="1041.849" fill="none" stroke="#FFFFFF" stroke-width="2" stroke-miterlimit="10" width="49.497" height="111.045"/>
<rect x="544.907" y="1041.849" fill="none" stroke="#FFFFFF" stroke-width="2" stroke-miterlimit="10" width="49.497" height="111.045"/>
<rect x="495.41" y="1041.849" fill="none" stroke="#FFFFFF" stroke-width="2" stroke-miterlimit="10" width="49.497" height="111.045"/>
<rect x="594.405" y="1041.849" fill="none" stroke="#FFFFFF" stroke-width="2" stroke-miterlimit="10" width="49.497" height="111.045"/>
<rect x="693.399" y="1041.849" fill="none" stroke="#FFFFFF" stroke-width="2" stroke-miterlimit="10" width="49.497" height="111.045"/>
<rect x="643.902" y="1041.849" fill="none" stroke="#FFFFFF" stroke-width="2" stroke-miterlimit="10" width="49.497" height="111.045"/>
<rect x="742.897" y="1041.849" fill="none" stroke="#FFFFFF" stroke-width="2" stroke-miterlimit="10" width="49.497" height="111.045"/>
<rect x="792.394" y="1041.849" fill="none" stroke="#FFFFFF" stroke-width="2" stroke-miterlimit="10" width="49.497" height="111.045"/>
<rect x="1403.169" y="1041.849" fill="none" stroke="#FFFFFF" stroke-width="2" stroke-miterlimit="10" width="49.497" height="111.045"/>
<rect x="1353.672" y="1041.849" fill="none" stroke="#FFFFFF" stroke-width="2" stroke-miterlimit="10" width="49.497" height="111.045"/>
<rect x="1452.667" y="1041.849" fill="none" stroke="#FFFFFF" stroke-width="2" stroke-miterlimit="10" width="49.497" height="111.045"/>
<rect x="1254.677" y="1041.849" fill="none" stroke="#FFFFFF" stroke-width="2" stroke-miterlimit="10" width="49.497" height="111.045"/>
<rect x="1205.18" y="1041.849" fill="none" stroke="#FFFFFF" stroke-width="2" stroke-miterlimit="10" width="49.497" height="111.045"/>
<rect x="1304.175" y="1041.849" fill="none" stroke="#FFFFFF" stroke-width="2" stroke-miterlimit="10" width="49.497" height="111.045"/>
<rect x="1106.185" y="1041.849" fill="none" stroke="#FFFFFF" stroke-width="2" stroke-miterlimit="10" width="49.497" height="111.045"/>
<rect x="1056.688" y="1041.849" fill="none" stroke="#FFFFFF" stroke-width="2" stroke-miterlimit="10" width="49.497" height="111.045"/>
<rect x="1155.683" y="1041.849" fill="none" stroke="#FFFFFF" stroke-width="2" stroke-miterlimit="10" width="49.497" height="111.045"/>
<rect x="957.694" y="1041.849" fill="none" stroke="#FFFFFF" stroke-width="2" stroke-miterlimit="10" width="49.497" height="111.045"/>
<rect x="1007.191" y="1041.849" fill="none" stroke="#FFFFFF" stroke-width="2" stroke-miterlimit="10" width="49.497" height="111.045"/>
<g>
	<path d="M1001.276,483.35c-0.182,19.772-16.633,35.659-36.75,35.468c-20.116-0.191-36.279-16.383-36.104-36.168
		c0.182-19.777,16.633-35.659,36.749-35.468C985.287,447.368,1001.458,463.565,1001.276,483.35z"/>
	<path fill="#FFFFFF" d="M968.51,506.639l-3.907,3.767l-3.835-4.611l0.038-3.042l3.067,3.071l0.034-3.797l2.321,0.021l-0.038,3.801
		l2.346-2.261L968.51,506.639z M961.184,460.12l3.911-4.53l3.826,4.607l-0.025,3.046l-2.291-3.067l-0.03,3.801l-3.101-0.021
		l0.034-3.809l-2.341,2.257L961.184,460.12z M958.638,485.225c0,0-0.784,0.751-1.557,0.742l-0.768-0.772l0.085-9.134
		c0,0,0.793-1.514,2.346-2.261l5.421,0.055c0,0,0.768,0.009,1.531,1.54l1.523,2.291c0,0,0.759,0.776,0.776,0.013l1.557-1.506
		c0.772,0.004,1.549,0.013,1.549,0.013c0.764,0.772,0.764,0.772-0.017,1.519l-2.346,3.024c0,0-0.776,0.751-2.32-0.021l-2.282-3.831
		l-0.179,19.035c-0.004,0.763-0.789,1.514-0.789,1.514c-0.772-0.004-1.544-0.776-1.531-1.536l0.097-10.66
		c0,0-0.768-0.764-0.776-0.004l-0.093,10.656c-0.013,0.764-0.013,1.532-0.789,1.515c-0.776-0.009-1.544-0.772-1.536-1.536
		l0.178-19.03c0,0,0,0-0.013,0.755L958.638,485.225z M974.13,483.086c-0.004,0.764-0.013,1.519-0.784,1.515
		c0,0-0.764-0.768-0.755-1.532l0.776-0.755C974.143,482.323,974.13,483.086,974.13,483.086L974.13,483.086z M974.16,480.041
		c0,0-0.004,0.763-0.785,0.751l-0.759-0.768c0.004-0.76,0.785-1.515,0.785-1.515C974.173,478.518,974.165,479.282,974.16,480.041
		L974.16,480.041z M974.19,476.999c-0.013,0.755-0.013,0.755-0.781,0.746c0,0-0.772,0-0.764-0.768
		c0.009-0.759,0.777-0.759,0.777-0.759C974.194,476.231,974.194,476.231,974.19,476.999L974.19,476.999z M974.224,473.19
		c0,0.764,0,0.764-0.785,0.755c0,0-0.768-0.013-0.764-0.772s0.781-0.751,0.781-0.751
		C974.232,472.435,974.232,472.435,974.224,473.19L974.224,473.19z M963.398,471.561c0,0.764-0.784,1.519-2.329,1.506
		c-0.772-0.009-1.544-0.781-1.535-1.54c0.013-1.523,0.797-2.278,1.574-2.27C962.652,469.27,963.424,470.042,963.398,471.561
		L963.398,471.561z M978.156,466.373l-27.086-0.259l-0.306,34.268l28.626,0.258l0.31-34.255L978.156,466.373z M977.367,467.887
		c-0.013,2.287-0.259,28.935-0.276,30.454c-2.325-0.03-22.437-0.212-24.766-0.237c0.017-1.519,0.263-28.168,0.28-30.45
		C954.922,467.683,975.047,467.866,977.367,467.887L977.367,467.887z M988.583,510.627l-7.734-0.072l0.492-54.808l7.738,0.068
		L988.583,510.627z M948.356,510.253l-7.733-0.072l0.488-54.812l7.737,0.063L948.356,510.253z"/>
</g>
<g>
	<path fill="#1C1511" d="M255.099,889.09c0,20.15-16.455,36.486-36.754,36.486c-20.298,0-36.753-16.336-36.753-36.486
		c0-20.158,16.455-36.499,36.753-36.499C238.644,852.591,255.099,868.932,255.099,889.09z"/>
	<path fill="#FFFFFF" d="M232.234,866.832L232.234,866.832c0,0-7.169,6.231-14.338,13.354v-4.454c0-1.778-1.79-2.668-3.585-2.668
		c-0.895,0-2.685,0.891-2.685,2.668v9.791c-6.27,5.341-12.544,10.682-12.544,10.682c-0.895,0-2.69,0-2.69,0
		c-4.475,0-8.064,3.559-8.064,8.018c0,4.446,3.589,8.005,8.064,8.005h7.169c0,0,34.047-28.482,34.946-29.372
		c0.891,0,1.791,0,1.791,0c4.479,0,8.064-3.559,8.064-8.014c0-4.446-3.585-8.009-8.064-8.009L232.234,866.832L232.234,866.832z
		 M240.299,869.5c3.58,0,5.375,2.668,5.375,5.341c0,3.563-1.794,5.345-5.375,5.345h-2.69l-34.942,29.372c-0.895,0-6.274,0-6.274,0
		c-2.689,0-5.375-2.668-5.375-5.336s2.685-5.345,5.375-5.345h3.585c0,0,32.257-28.481,33.152-29.377
		C234.029,869.5,240.299,869.5,240.299,869.5L240.299,869.5z M217.896,868.61c0,1.786-1.79,3.559-3.585,3.559
		c-1.786,0-2.685-1.773-2.685-3.559c0-0.891,0.899-2.668,2.685-2.668C216.106,865.941,217.896,867.719,217.896,868.61
		L217.896,868.61z"/>
</g>
<g>
	<path fill="#1C1511" d="M1729.652,884.233c0,20.15-16.455,36.486-36.754,36.486c-20.298,0-36.753-16.336-36.753-36.486
		c0-20.158,16.455-36.499,36.753-36.499C1713.198,847.734,1729.652,864.075,1729.652,884.233z"/>
	<path fill="#FFFFFF" d="M1706.787,861.975L1706.787,861.975c0,0-7.169,6.231-14.338,13.354v-4.454c0-1.778-1.79-2.668-3.585-2.668
		c-0.895,0-2.685,0.891-2.685,2.668v9.791c-6.27,5.341-12.544,10.682-12.544,10.682c-0.895,0-2.69,0-2.69,0
		c-4.475,0-8.064,3.559-8.064,8.018c0,4.446,3.589,8.005,8.064,8.005h7.169c0,0,34.047-28.482,34.946-29.372
		c0.891,0,1.791,0,1.791,0c4.479,0,8.064-3.559,8.064-8.014c0-4.446-3.585-8.009-8.064-8.009L1706.787,861.975L1706.787,861.975z
		 M1714.853,864.643c3.58,0,5.375,2.668,5.375,5.341c0,3.563-1.794,5.345-5.375,5.345h-2.69l-34.942,29.372
		c-0.895,0-6.274,0-6.274,0c-2.689,0-5.375-2.668-5.375-5.336s2.685-5.345,5.375-5.345h3.585c0,0,32.257-28.481,33.152-29.377
		C1708.583,864.643,1714.853,864.643,1714.853,864.643L1714.853,864.643z M1692.449,863.753c0,1.786-1.79,3.559-3.585,3.559
		c-1.786,0-2.685-1.773-2.685-3.559c0-0.891,0.899-2.668,2.685-2.668C1690.659,861.084,1692.449,862.862,1692.449,863.753
		L1692.449,863.753z"/>
</g>
</svg>
