<?xml version="1.0" encoding="utf-8"?>
<!-- Generator: Adobe Illustrator 17.0.0, SVG Export Plug-In . SVG Version: 6.00 Build 0)  -->
<!DOCTYPE svg PUBLIC "-//W3C//DTD SVG 1.1//EN" "http://www.w3.org/Graphics/SVG/1.1/DTD/svg11.dtd">
<svg version="1.1" id="图层_1" xmlns="http://www.w3.org/2000/svg" xmlns:xlink="http://www.w3.org/1999/xlink" x="0px" y="0px"
	 width="5000px" height="4000px" viewBox="0 0 5000 4000" enable-background="new 0 0 5000 4000" xml:space="preserve">
<path fill="#070001" d="M4432.956,1198.13H483.505V803.514h3949.451V1198.13z"/>
<path fill="none" stroke="#323333" stroke-width="20" d="M4432.956,1000.987H483.505"/>
<path fill="#070001" d="M3958.693,3161.577h-470.972V1591.689h470.972V3161.577z"/>
<path fill="#070001" d="M4432.956,2509.259h-417.984v-917.57h417.984V2509.259z"/>
<path fill="#070001" d="M3434.732,2972.99h-379.806v-119.142h379.806V2972.99z"/>
<circle fill="#336231" cx="1382.334" cy="2994.054" r="168.181"/>
<path fill="#070001" d="M1420.841,1547.579h-286.006v-310.69h286.006V1547.579z"/>
<path fill="#070001" d="M913.008,3185.273H483.505V1195.39h429.503V3185.273z"/>
<path fill="none" stroke="#323333" stroke-width="20" d="M698.092,3173.952V1195.39"/>
<path fill="#070001" d="M1420.841,2213.379h-142.838v-621.69h142.838L1420.841,2213.379L1420.841,2213.379z"/>
<path fill="#070001" d="M1211.191,2213.131H984.756v-621.194h226.435L1211.191,2213.131L1211.191,2213.131z"/>
<path fill="#070001" d="M1084.48,1426.133h-99.724v-189.245h99.724V1426.133L1084.48,1426.133z"/>
<path fill="#070001" d="M3020.04,2972.99h-379.806v-119.142h379.806V2972.99z"/>
<path fill="#070001" d="M3434.732,3126.031h-379.806V3006.89h379.806V3126.031z"/>
<path fill="#070001" d="M3020.04,3126.031h-379.806V3006.89h379.806V3126.031z"/>
<path fill="#4785BE" d="M4409.392,3121.231c-100.053,77.014-290.284,21.064-318.918-60.558
	c-25.342-72.407,84.255-143.168,49.368-247.499c-12.507-37.849-35.874-55.292-38.507-104.331
	c-0.329-7.899-3.291-78.989,32.912-104.331c54.305-38.178,187.928,31.266,258.36,126.382
	C4471.925,2837.858,4516.686,3038.293,4409.392,3121.231z"/>
<circle fill="#336231" cx="1110.81" cy="2452.979" r="140.864"/>
<circle fill="#336231" cx="4341.742" cy="1371.143" r="98.736"/>
<circle fill="#336231" cx="4104.775" cy="1371.143" r="98.736"/>
<circle fill="#336231" cx="3860.238" cy="1371.143" r="98.736"/>
<path fill="#070001" d="M2581.651,3126.031h-978.147v-265.93h978.147V3126.031z"/>
<circle fill="#336231" cx="1063.745" cy="3022.029" r="89.192"/>
<path fill="#070001" d="M3440.986,2798.227H901.489v-139.876h2539.497L3440.986,2798.227L3440.986,2798.227z"/>
<circle fill="#336231" cx="1356.005" cy="2509.259" r="74.71"/>
<circle fill="#336231" cx="3626.891" cy="1371.143" r="98.736"/>
<path fill="#646363" d="M1310.257,1420.033v-48.71c0-6.582-5.266-11.848-11.848-11.848h-14.481v-6.582h13.165v-6.582h-39.495v6.582
	h13.165v6.582h-14.481c-6.582,0-11.848,5.266-11.848,11.848v48.71c0,6.582,5.266,11.848,11.848,11.848h1.316l-4.608,6.582h-8.557
	v6.582h4.608l-4.608,6.582h13.165l3.949-6.582h32.254l3.949,6.582h13.165l-4.608-6.582h3.949v-6.582h-8.557l-4.608-6.582h1.316
	C1304.991,1431.882,1310.257,1426.616,1310.257,1420.033z M1251.015,1371.982c0-3.291,2.633-5.924,5.924-5.924h40.153
	c3.949,0,6.582,2.633,6.582,5.924v13.823c0,3.949-2.633,6.582-5.924,6.582h-40.811c-3.291,0-5.924-2.633-5.924-5.924V1371.982z
	 M1251.015,1418.717c0-3.949,2.633-6.582,6.582-6.582c3.949,0,6.582,2.633,6.582,6.582c0,3.949-2.633,6.582-6.582,6.582
	C1253.648,1425.299,1251.015,1422.666,1251.015,1418.717z M1289.851,1438.464h-25.013l3.949-6.582h17.114L1289.851,1438.464z
	 M1290.51,1418.717c0-3.949,2.633-6.582,6.582-6.582c3.949,0,6.582,2.633,6.582,6.582c0,3.949-2.633,6.582-6.582,6.582
	S1290.51,1422.666,1290.51,1418.717z"/>
<path fill="#646363" d="M2126.806,2987.472c-1.316,0-2.633,0.329-4.279,0.329l-10.861-24.026c-0.658-1.317-1.975-1.975-3.291-1.975
	h-6.912c-1.975,0-3.62,1.646-3.62,3.62c0,1.975,1.646,3.62,3.62,3.62h4.608l2.962,6.582h-30.279l-1.975-4.608h1.646
	c1.975,0,3.62-1.646,3.62-3.62s-1.646-3.62-3.62-3.62h-13.165c-1.975,0-3.62,1.646-3.62,3.62s1.646,3.62,3.62,3.62h3.62l3.62,7.57
	l-6.912,10.203c-2.304-0.987-4.608-1.317-7.241-1.317c-10.203,0-18.431,8.228-18.431,18.431c0,10.203,8.228,18.431,18.431,18.431
	c8.886,0,16.456-6.253,18.102-14.81h2.962c1.646,4.278,6.253,6.911,11.19,5.924c5.266-0.987,8.557-6.253,7.57-11.519
	c0-0.658-0.329-1.317-0.658-1.975l16.127-16.456l2.633,5.595c-4.608,3.291-7.57,8.886-7.57,14.811
	c0,10.203,8.228,18.431,18.431,18.431c10.203,0,18.431-8.228,18.431-18.431C2145.237,2995.7,2137.009,2987.472,2126.806,2987.472
	L2126.806,2987.472z M2081.387,2998.991c-0.987,0.987-1.646,1.975-1.975,3.291h-2.962c-0.658-3.62-2.304-6.911-4.937-9.215
	l4.279-6.583L2081.387,2998.991L2081.387,2998.991z M2067.235,2999.32c0.658,0.987,1.316,1.975,1.646,2.962h-3.62L2067.235,2999.32z
	 M2058.349,3017.093c-6.253,0-11.19-4.937-11.19-11.19c0-6.253,4.937-11.19,11.19-11.19c0.987,0,1.975,0.329,2.962,0.329
	l-5.924,8.557c-0.658,0.987-0.987,2.633-0.329,3.62c0.658,1.317,1.975,1.975,3.291,1.975h10.532
	C2067.235,3013.802,2063.285,3017.093,2058.349,3017.093L2058.349,3017.093z M2092.248,2997.016
	c-1.316-0.658-2.633-0.658-4.279-0.658l-5.924-13.165h24.026C2106.071,2982.864,2092.248,2997.016,2092.248,2997.016z
	 M2126.806,3017.093c-6.253,0-11.19-4.937-11.19-11.19c0-3.291,1.316-5.924,3.62-8.228l4.279,9.545
	c0.658,1.317,1.975,1.975,3.291,1.975c0.658,0,0.987,0,1.316-0.329c1.975-0.658,2.633-2.962,1.646-4.608l-4.279-9.545
	c0.329,0,0.658,0,0.987,0c6.253,0,11.19,4.937,11.19,11.19C2137.996,3012.156,2133.059,3017.093,2126.806,3017.093z"/>
<g>
	<path fill="#646363" d="M1062.1,1863.746c0.658,0,0.987,0,1.975,0c3.291,0,5.924-0.658,7.899-2.633
		c1.316-1.316,2.304-3.291,2.304-5.595c0-2.304-0.987-4.279-2.633-5.595s-3.949-1.975-7.241-1.975c-3.291,0-5.595,0.329-7.241,0.658
		v23.697h5.266L1062.1,1863.746L1062.1,1863.746z M1062.1,1852.556c0.329,0,0.987-0.329,2.304-0.329c2.633,0,4.279,1.316,4.279,3.62
		c0,2.304-1.646,3.949-4.608,3.949c-0.658,0-1.316,0-1.975,0V1852.556L1062.1,1852.556z"/>
	<path fill="#646363" d="M1051.897,1879.873h26.659c3.291,0,6.253-2.633,6.253-6.253v-26.659c0-3.291-2.633-6.253-6.253-6.253
		h-26.659c-3.291,0-6.253,2.633-6.253,6.253v26.659C1045.973,1877.24,1048.606,1879.873,1051.897,1879.873z M1050.58,1847.29
		c0-0.987,0.658-1.646,1.646-1.646h26.001c0.987,0,1.646,0.658,1.646,1.646v26.001c0,0.987-0.658,1.646-1.646,1.646h-26.001
		c-0.987,0-1.646-0.658-1.646-1.646V1847.29z"/>
	<path fill="#646363" d="M1070.657,1912.127c-5.924,0-10.861,4.937-10.861,10.861s4.937,10.861,10.861,10.861
		c5.924,0,10.861-4.937,10.861-10.861C1081.518,1916.735,1076.581,1912.127,1070.657,1912.127z M1070.657,1925.95
		c-1.646,0-3.291-1.316-3.291-3.291c0-1.646,1.316-3.291,3.291-3.291c1.646,0,3.291,1.316,3.291,3.291
		C1073.948,1924.633,1072.632,1925.95,1070.657,1925.95z"/>
	<path fill="#646363" d="M1148.988,1913.773l-1.646-14.152c-0.329-2.633-2.633-4.608-5.595-4.608l-3.949,0.329l-11.848-10.861
		c-0.987-0.987-2.633-1.646-4.279-1.646h-24.355c-5.595,0-10.861,1.975-14.81,5.266l-13.494,10.861l-18.102,4.608
		c-2.304,0.658-3.949,2.633-3.949,4.937v5.266c-0.658,0-1.316,0.658-1.316,1.316v6.912c0,0.987,0.658,1.646,1.646,1.646h10.203
		c0-0.329,0-0.987,0-1.316c0-7.57,5.924-13.494,13.494-13.494c7.57,0,13.494,5.924,13.494,13.494c0,0.329,0,0.987,0,1.316h28.304
		c0-0.329,0-0.987,0-1.316c0-7.57,5.924-13.494,13.494-13.494c7.57,0,13.494,5.924,13.494,13.494c0,0.329,0,0.987,0,1.316h9.544
		c0.987,0,1.646-0.658,1.646-1.646v-6.582C1150.633,1914.76,1149.975,1913.773,1148.988,1913.773L1148.988,1913.773z
		 M1112.784,1896.329l-33.899,1.646l6.582-5.266c3.62-2.962,7.899-4.279,12.507-4.279h14.81V1896.329z M1118.379,1896v-7.57h2.304
		c0.658,0,1.646,0.329,1.975,0.658l6.912,6.253C1129.569,1895.671,1118.379,1896,1118.379,1896z"/>
	<path fill="#646363" d="M1125.949,1912.127c-5.924,0-10.861,4.937-10.861,10.861s4.937,10.861,10.861,10.861
		c5.924,0,10.861-4.937,10.861-10.861C1136.481,1916.735,1131.873,1912.127,1125.949,1912.127z M1125.949,1925.95
		c-1.646,0-3.291-1.316-3.291-3.291c0-1.646,1.316-3.291,3.291-3.291c1.646,0,3.291,1.316,3.291,3.291
		C1129.24,1924.633,1127.595,1925.95,1125.949,1925.95z"/>
</g>
<path fill="#646363" d="M1430.057,3024.539h-19.089v-7.241h3.62c1.316,0,2.304-0.987,2.304-2.304s-0.987-2.304-2.304-2.304h-12.178
	c-1.316,0-2.304,0.987-2.304,2.304s0.987,2.304,2.304,2.304h3.62v7.241h-38.178v-16.456h19.089c0.987,0,1.975-0.658,2.304-1.317
	c0.329-0.987,0.329-1.975-0.329-2.633l-12.178-13.165h5.595c0.987,0,1.975-0.658,2.304-1.317c0.329-0.987,0.329-1.975-0.329-2.633
	l-11.19-12.178h5.595c0.987,0,1.975-0.658,2.304-1.317c0.329-0.987,0.329-1.975-0.329-2.633l-15.469-16.456
	c-0.987-0.987-2.633-0.987-3.62,0l-15.469,16.456c-0.658,0.658-0.658,1.646-0.329,2.633s1.316,1.317,2.304,1.317h5.595
	l-11.19,12.178c-0.658,0.658-0.658,1.646-0.329,2.633c0.329,0.987,1.316,1.317,2.304,1.317h5.595l-12.178,13.165
	c-0.658,0.658-0.658,1.646-0.329,2.633c0.329,0.987,1.316,1.317,2.304,1.317h19.089v16.456h-24.026
	c-2.633,0-4.937,2.304-4.937,4.937c0,2.633,2.304,4.937,4.937,4.937h95.774c2.633,0,4.937-2.304,4.937-4.937
	C1434.994,3026.843,1432.69,3024.539,1430.057,3024.539L1430.057,3024.539z"/>
</svg>
