<?xml version="1.0" encoding="utf-8"?>
<!-- Generator: Adobe Illustrator 17.0.0, SVG Export Plug-In . SVG Version: 6.00 Build 0)  -->
<!DOCTYPE svg PUBLIC "-//W3C//DTD SVG 1.1//EN" "http://www.w3.org/Graphics/SVG/1.1/DTD/svg11.dtd">
<svg version="1.1" id="图层_1" xmlns="http://www.w3.org/2000/svg" xmlns:xlink="http://www.w3.org/1999/xlink" x="0px" y="0px"
	 width="1920px" height="1280px" viewBox="0 0 1920 1280" enable-background="new 0 0 1920 1280" xml:space="preserve">
<rect x="6.581" y="125.942" opacity="0.7" fill="#97F5D6" enable-background="new    " width="1907.912" height="1027.751"/>
<rect x="483" y="806" fill="#DAC7E0" width="175" height="78.97"/>
<rect x="624.03" y="860.218" fill="#E2E2E2" width="33.97" height="24.751"/>
<polygon fill="#DAC7E0" points="835,260 835,208.292 480,208.292 480,517.347 175.401,517.347 175.401,611.401 124.845,611.401 
	124.845,713.734 175.401,713.734 312,713.734 312,795 312,884.97 472.366,884.97 472.366,795 658,795 658,713.734 835,713.734 
	835,409.493 907.709,409.493 907.709,260 "/>
<rect x="124.845" y="931.734" fill="#E2E2E2" width="235.154" height="69.168"/>
<rect x="1551" y="208.456" fill="#E2E2E2" width="234.125" height="69.168"/>
<rect x="1712.027" y="286.734" fill="#F4D5BF" width="73.098" height="68"/>
<rect x="842.694" y="419.734" fill="#E2E2E2" width="65.015" height="181.781"/>
<rect x="1016.694" y="514.734" fill="#90CFC8" width="46.5" height="45.5"/>
<rect x="1016.694" y="419.734" fill="#FCFAD3" width="46.5" height="86.5"/>
<rect x="1016.694" y="565.901" fill="#90CFC8" width="46.5" height="45.5"/>
<rect x="1016.694" y="617.067" fill="#90CFC8" width="46.5" height="45.5"/>
<rect x="1016.694" y="668.234" fill="#90CFC8" width="46.5" height="45.5"/>
<rect x="842.694" y="611.401" fill="#FCFAD3" width="65.015" height="102.333"/>
<rect x="1611.79" y="208.456" fill="none" stroke="#99C4E9" stroke-width="2" stroke-miterlimit="10" width="14.445" height="69.168"/>
<rect x="1626.235" y="208.456" fill="none" stroke="#99C4E9" stroke-width="2" stroke-miterlimit="10" width="14.445" height="69.168"/>
<rect x="1640.679" y="208.456" fill="none" stroke="#99C4E9" stroke-width="2" stroke-miterlimit="10" width="14.445" height="69.168"/>
<rect x="1655.124" y="208.456" fill="none" stroke="#99C4E9" stroke-width="2" stroke-miterlimit="10" width="14.445" height="69.168"/>
<rect x="1669.568" y="208.456" fill="none" stroke="#99C4E9" stroke-width="2" stroke-miterlimit="10" width="14.445" height="69.168"/>
<rect x="1684.013" y="208.456" fill="none" stroke="#99C4E9" stroke-width="2" stroke-miterlimit="10" width="14.445" height="69.168"/>
<rect x="1698.458" y="208.456" fill="none" stroke="#99C4E9" stroke-width="2" stroke-miterlimit="10" width="14.445" height="69.168"/>
<rect x="1712.902" y="208.456" fill="none" stroke="#99C4E9" stroke-width="2" stroke-miterlimit="10" width="14.445" height="69.168"/>
<rect x="1727.347" y="208.456" fill="none" stroke="#99C4E9" stroke-width="2" stroke-miterlimit="10" width="14.445" height="69.168"/>
<rect x="1741.791" y="208.456" fill="none" stroke="#99C4E9" stroke-width="2" stroke-miterlimit="10" width="14.445" height="69.168"/>
<rect x="1756.236" y="208.456" fill="none" stroke="#99C4E9" stroke-width="2" stroke-miterlimit="10" width="14.445" height="69.168"/>
<rect x="1770.68" y="208.456" fill="none" stroke="#99C4E9" stroke-width="2" stroke-miterlimit="10" width="14.445" height="69.168"/>
<rect x="124.845" y="931.734" fill="none" stroke="#99C4E9" stroke-width="2" stroke-miterlimit="10" width="14.445" height="69.168"/>
<rect x="139.29" y="931.734" fill="none" stroke="#99C4E9" stroke-width="2" stroke-miterlimit="10" width="14.445" height="69.168"/>
<rect x="153.735" y="931.734" fill="none" stroke="#99C4E9" stroke-width="2" stroke-miterlimit="10" width="14.445" height="69.168"/>
<rect x="168.179" y="931.734" fill="none" stroke="#99C4E9" stroke-width="2" stroke-miterlimit="10" width="14.445" height="69.168"/>
<rect x="182.624" y="931.734" fill="none" stroke="#99C4E9" stroke-width="2" stroke-miterlimit="10" width="14.445" height="69.168"/>
<rect x="197.068" y="931.734" fill="none" stroke="#99C4E9" stroke-width="2" stroke-miterlimit="10" width="14.445" height="69.168"/>
<rect x="211.513" y="931.734" fill="none" stroke="#99C4E9" stroke-width="2" stroke-miterlimit="10" width="14.445" height="69.168"/>
<rect x="225.957" y="931.734" fill="none" stroke="#99C4E9" stroke-width="2" stroke-miterlimit="10" width="14.445" height="69.168"/>
<rect x="842.694" y="419.734" fill="none" stroke="#99C4E9" stroke-width="2" stroke-miterlimit="10" width="65.015" height="14.445"/>
<rect x="842.694" y="433.679" fill="none" stroke="#99C4E9" stroke-width="2" stroke-miterlimit="10" width="65.015" height="14.445"/>
<rect x="842.694" y="447.624" fill="none" stroke="#99C4E9" stroke-width="2" stroke-miterlimit="10" width="65.015" height="14.445"/>
<rect x="842.694" y="461.568" fill="none" stroke="#99C4E9" stroke-width="2" stroke-miterlimit="10" width="65.015" height="14.445"/>
<rect x="842.694" y="475.513" fill="none" stroke="#99C4E9" stroke-width="2" stroke-miterlimit="10" width="65.015" height="14.445"/>
<rect x="842.694" y="489.458" fill="none" stroke="#99C4E9" stroke-width="2" stroke-miterlimit="10" width="65.015" height="14.445"/>
<rect x="842.694" y="503.402" fill="none" stroke="#99C4E9" stroke-width="2" stroke-miterlimit="10" width="65.015" height="14.445"/>
<rect x="842.694" y="517.347" fill="none" stroke="#99C4E9" stroke-width="2" stroke-miterlimit="10" width="65.015" height="14.445"/>
<rect x="842.694" y="531.292" fill="none" stroke="#99C4E9" stroke-width="2" stroke-miterlimit="10" width="65.015" height="14.445"/>
<rect x="842.694" y="545.237" fill="none" stroke="#99C4E9" stroke-width="2" stroke-miterlimit="10" width="65.015" height="14.445"/>
<rect x="842.694" y="559.181" fill="none" stroke="#99C4E9" stroke-width="2" stroke-miterlimit="10" width="65.015" height="14.445"/>
<rect x="842.694" y="573.126" fill="none" stroke="#99C4E9" stroke-width="2" stroke-miterlimit="10" width="65.015" height="14.445"/>
<rect x="842.694" y="587.071" fill="none" stroke="#99C4E9" stroke-width="2" stroke-miterlimit="10" width="65.015" height="14.445"/>
<polygon fill="#99C4E9" points="123.995,208.293 123.995,506.234 123.995,545.737 167.329,545.737 167.329,506.234 472.366,506.234 
	472.366,208.293 "/>
<rect x="370" y="895.893" fill="#ABD7B1" width="162" height="104.845"/>
<rect x="542" y="895.893" fill="#FFE2E2" width="116" height="104.845"/>
<polygon fill="#ABD7B1" points="168.179,725 146.512,725 146.512,806 124.845,806 124.845,863 146.512,863 168.179,863 168.179,922 
	303,922 303,725 "/>
<rect x="1365" y="208.456" fill="#A7DAE6" width="117" height="85.544"/>
<rect x="1489" y="208.293" fill="#A7DAE6" width="52" height="85.707"/>
<rect x="1558" y="156" fill="#E2E2E2" width="44" height="52.293"/>
<rect x="668" y="724" fill="#DEFFD9" width="573" height="276.738"/>
<rect x="1605" y="286.734" fill="#DAC7E0" width="50.124" height="40.266"/>
<polygon fill="#F4D5BF" points="1655.124,286.734 1662.346,286.734 1662.346,286.734 "/>
<rect x="1605" y="359" fill="#F4D5BF" width="180.125" height="65"/>
<polygon fill="#F4D5BF" points="1658.735,286.734 1658.735,331 1605,331 1605,354.734 1707.5,354.734 1707.5,331 1707.5,286.734 "/>
<rect x="1016.694" y="344.997" fill="#A7DAE6" width="415.216" height="64.497"/>
<rect x="1440.668" y="344.997" fill="#A7DAE6" width="100.332" height="64.497"/>
<rect x="247.624" y="1000.902" fill="#E2E2E2" width="96.598" height="53.56"/>
<rect x="370" y="1000.902" fill="#E2E2E2" width="44" height="53.56"/>
<rect x="831.698" y="1000.902" fill="#E2E2E2" width="246.996" height="106.057"/>
<rect x="1617.659" y="1000.738" fill="#E2E2E2" width="44.998" height="53.192"/>
<rect x="849.697" y="189.005" fill="#E2E2E2" width="213.496" height="67.29"/>
<rect x="269.291" y="243.002" fill="#CDE9EE" width="62.932" height="176.732"/>
<rect x="312" y="851" fill="#E8E8E8" width="24" height="33.97"/>
<polygon fill="#FFD6BB" points="1350.672,301.999 1350.672,208.292 1075.694,208.292 1075.694,262.501 1016.694,262.501 
	1016.694,301.999 1016.694,339.497 1541,339.497 1541,301.999 "/>
<polygon fill="#FFE2E2" points="1605,429.237 1605,622.571 1741.791,622.571 1741.791,546.631 1785.125,546.631 1785.125,429.237 
	"/>
<rect x="1604" y="923" fill="#E2E2E2" width="181.125" height="77.738"/>
<polygon fill="#88DDFF" points="1541,629.571 1541,419.734 1078.694,419.734 1078.694,713.734 1249,713.734 1249,1000.738 
	1541,1000.738 1593,1000.738 1593,913 1742,913 1742,872 1785.125,872 1785.125,629.571 "/>
<rect x="165" y="482.735" fill="#E2E2E2" width="69" height="23.499"/>
<rect x="839.565" y="365" fill="#E2E2E2" width="68.144" height="44.493"/>
<rect x="247.625" y="1041.112" fill="none" stroke="#99C4E9" stroke-width="2" stroke-miterlimit="10" width="96.598" height="13.458"/>
<rect x="247.625" y="1027.654" fill="none" stroke="#99C4E9" stroke-width="2" stroke-miterlimit="10" width="96.598" height="13.458"/>
<rect x="247.625" y="1014.196" fill="none" stroke="#99C4E9" stroke-width="2" stroke-miterlimit="10" width="96.598" height="13.458"/>
<rect x="247.625" y="1000.738" fill="none" stroke="#99C4E9" stroke-width="2" stroke-miterlimit="10" width="96.598" height="13.458"/>
<rect x="369.999" y="1041.113" fill="none" stroke="#99C4E9" stroke-width="2" stroke-miterlimit="10" width="44" height="13.458"/>
<rect x="369.999" y="1027.655" fill="none" stroke="#99C4E9" stroke-width="2" stroke-miterlimit="10" width="44" height="13.458"/>
<rect x="311.499" y="873.647" fill="none" stroke="#99C4E9" stroke-width="2" stroke-miterlimit="10" width="24.501" height="11.323"/>
<rect x="311.749" y="862.323" fill="none" stroke="#99C4E9" stroke-width="2" stroke-miterlimit="10" width="24.501" height="11.323"/>
<rect x="311.749" y="851" fill="none" stroke="#99C4E9" stroke-width="2" stroke-miterlimit="10" width="24.501" height="11.323"/>
<rect x="369.999" y="1014.197" fill="none" stroke="#99C4E9" stroke-width="2" stroke-miterlimit="10" width="44" height="13.458"/>
<rect x="369.999" y="1000.739" fill="none" stroke="#99C4E9" stroke-width="2" stroke-miterlimit="10" width="44" height="13.458"/>
<rect x="1618.158" y="1040.792" fill="none" stroke="#99C4E9" stroke-width="2" stroke-miterlimit="10" width="44" height="13.458"/>
<rect x="1618.158" y="1027.334" fill="none" stroke="#99C4E9" stroke-width="2" stroke-miterlimit="10" width="44" height="13.458"/>
<rect x="1618.158" y="1013.876" fill="none" stroke="#99C4E9" stroke-width="2" stroke-miterlimit="10" width="44" height="13.458"/>
<rect x="1618.158" y="1000.418" fill="none" stroke="#99C4E9" stroke-width="2" stroke-miterlimit="10" width="44" height="13.458"/>
<rect x="831.698" y="1094.111" fill="none" stroke="#99C4E9" stroke-width="2" stroke-miterlimit="10" width="246.999" height="13.458"/>
<rect x="831.698" y="1080.653" fill="none" stroke="#99C4E9" stroke-width="2" stroke-miterlimit="10" width="246.999" height="13.458"/>
<rect x="831.698" y="1067.195" fill="none" stroke="#99C4E9" stroke-width="2" stroke-miterlimit="10" width="246.999" height="13.458"/>
<rect x="831.698" y="1053.737" fill="none" stroke="#99C4E9" stroke-width="2" stroke-miterlimit="10" width="246.999" height="13.458"/>
<rect x="849.697" y="189.005" fill="none" stroke="#99C4E9" stroke-width="2" stroke-miterlimit="10" width="213.496" height="13.458"/>
<rect x="849.697" y="202.463" fill="none" stroke="#99C4E9" stroke-width="2" stroke-miterlimit="10" width="213.496" height="13.458"/>
<rect x="849.697" y="215.921" fill="none" stroke="#99C4E9" stroke-width="2" stroke-miterlimit="10" width="213.496" height="13.458"/>
<rect x="849.697" y="229.379" fill="none" stroke="#99C4E9" stroke-width="2" stroke-miterlimit="10" width="213.496" height="13.458"/>
<rect x="849.697" y="242.837" fill="none" stroke="#99C4E9" stroke-width="2" stroke-miterlimit="10" width="213.496" height="13.458"/>
<rect x="873.535" y="364.75" fill="none" stroke="#99C4E9" stroke-width="2" stroke-miterlimit="10" width="11.323" height="44.29"/>
<rect x="862.212" y="364.75" fill="none" stroke="#99C4E9" stroke-width="2" stroke-miterlimit="10" width="11.323" height="44.29"/>
<rect x="850.888" y="364.75" fill="none" stroke="#99C4E9" stroke-width="2" stroke-miterlimit="10" width="11.323" height="44.29"/>
<rect x="839.565" y="364.75" fill="none" stroke="#99C4E9" stroke-width="2" stroke-miterlimit="10" width="11.323" height="44.29"/>
<rect x="884.858" y="365.203" fill="none" stroke="#99C4E9" stroke-width="2" stroke-miterlimit="10" width="11.323" height="44.29"/>
<rect x="896.181" y="365.203" fill="none" stroke="#99C4E9" stroke-width="2" stroke-miterlimit="10" width="11.323" height="44.29"/>
<rect x="1669.29" y="923" fill="none" stroke="#99C4E9" stroke-width="2" stroke-miterlimit="10" width="14.445" height="77.453"/>
<rect x="1683.735" y="923" fill="none" stroke="#99C4E9" stroke-width="2" stroke-miterlimit="10" width="14.445" height="77.453"/>
<rect x="1698.179" y="923" fill="none" stroke="#99C4E9" stroke-width="2" stroke-miterlimit="10" width="14.445" height="77.453"/>
<rect x="1712.624" y="923" fill="none" stroke="#99C4E9" stroke-width="2" stroke-miterlimit="10" width="14.445" height="77.453"/>
<rect x="1727.068" y="923" fill="none" stroke="#99C4E9" stroke-width="2" stroke-miterlimit="10" width="14.445" height="77.453"/>
<rect x="1741.513" y="923" fill="none" stroke="#99C4E9" stroke-width="2" stroke-miterlimit="10" width="14.445" height="77.453"/>
<rect x="1755.958" y="923" fill="none" stroke="#99C4E9" stroke-width="2" stroke-miterlimit="10" width="14.445" height="77.453"/>
<rect x="1770.402" y="923" fill="none" stroke="#99C4E9" stroke-width="2" stroke-miterlimit="10" width="14.445" height="77.453"/>
<rect x="624.03" y="860.218" fill="none" stroke="#99C4E9" stroke-width="2" stroke-miterlimit="10" width="11.323" height="24.501"/>
<rect x="635.353" y="860.218" fill="none" stroke="#99C4E9" stroke-width="2" stroke-miterlimit="10" width="11.323" height="24.501"/>
<rect x="646.677" y="860.218" fill="none" stroke="#99C4E9" stroke-width="2" stroke-miterlimit="10" width="11.323" height="24.501"/>
<rect x="165" y="482.234" fill="none" stroke="#99C4E9" stroke-width="2" stroke-miterlimit="10" width="11.323" height="24.501"/>
<rect x="176.323" y="482.234" fill="none" stroke="#99C4E9" stroke-width="2" stroke-miterlimit="10" width="11.323" height="24.501"/>
<rect x="187.647" y="482.234" fill="none" stroke="#99C4E9" stroke-width="2" stroke-miterlimit="10" width="11.323" height="24.501"/>
<rect x="198.97" y="482.234" fill="none" stroke="#99C4E9" stroke-width="2" stroke-miterlimit="10" width="11.323" height="24.501"/>
<rect x="210.293" y="482.234" fill="none" stroke="#99C4E9" stroke-width="2" stroke-miterlimit="10" width="11.323" height="24.501"/>
<rect x="221.616" y="482.234" fill="none" stroke="#99C4E9" stroke-width="2" stroke-miterlimit="10" width="11.323" height="24.501"/>
<g>
	<path d="M996.964,614.11c-0.182,19.772-16.633,35.659-36.75,35.468c-20.116-0.191-36.279-16.383-36.104-36.168
		c0.182-19.777,16.633-35.659,36.749-35.468C980.975,578.128,997.146,594.325,996.964,614.11z"/>
	<path fill="#FFFFFF" d="M964.198,637.399l-3.907,3.767l-3.835-4.611l0.038-3.042l3.067,3.071l0.034-3.797l2.321,0.021l-0.038,3.801
		l2.346-2.261L964.198,637.399z M956.872,590.88l3.911-4.53l3.826,4.607l-0.025,3.046l-2.291-3.067l-0.03,3.801l-3.101-0.021
		l0.034-3.809l-2.341,2.257L956.872,590.88z M954.326,615.985c0,0-0.784,0.751-1.557,0.742l-0.768-0.772l0.085-9.134
		c0,0,0.793-1.514,2.346-2.261l5.421,0.055c0,0,0.768,0.009,1.531,1.54l1.523,2.291c0,0,0.759,0.776,0.776,0.013l1.557-1.506
		c0.772,0.004,1.549,0.013,1.549,0.013c0.764,0.772,0.764,0.772-0.017,1.519l-2.346,3.024c0,0-0.776,0.751-2.32-0.021l-2.282-3.831
		l-0.179,19.035c-0.004,0.763-0.789,1.514-0.789,1.514c-0.772-0.004-1.544-0.776-1.531-1.536l0.097-10.66
		c0,0-0.768-0.764-0.776-0.004l-0.093,10.656c-0.013,0.764-0.013,1.532-0.789,1.515c-0.776-0.009-1.544-0.772-1.536-1.536
		l0.178-19.03c0,0,0,0-0.013,0.755L954.326,615.985z M969.818,613.846c-0.004,0.764-0.013,1.519-0.784,1.515
		c0,0-0.764-0.768-0.755-1.532l0.776-0.755C969.831,613.083,969.818,613.846,969.818,613.846L969.818,613.846z M969.848,610.801
		c0,0-0.004,0.763-0.785,0.751l-0.759-0.768c0.004-0.76,0.785-1.515,0.785-1.515C969.861,609.278,969.853,610.042,969.848,610.801
		L969.848,610.801z M969.878,607.759c-0.013,0.755-0.013,0.755-0.781,0.746c0,0-0.772,0-0.764-0.768
		c0.009-0.759,0.777-0.759,0.777-0.759C969.882,606.991,969.882,606.991,969.878,607.759L969.878,607.759z M969.912,603.95
		c0,0.764,0,0.764-0.785,0.755c0,0-0.768-0.013-0.764-0.772s0.781-0.751,0.781-0.751C969.92,603.195,969.92,603.195,969.912,603.95
		L969.912,603.95z M959.086,602.321c0,0.764-0.784,1.519-2.329,1.506c-0.772-0.009-1.544-0.781-1.535-1.54
		c0.013-1.523,0.797-2.278,1.574-2.27C958.34,600.03,959.112,600.802,959.086,602.321L959.086,602.321z M973.844,597.133
		l-27.086-0.259l-0.306,34.268l28.626,0.258l0.31-34.255L973.844,597.133z M973.055,598.647c-0.013,2.287-0.259,28.935-0.276,30.454
		c-2.325-0.03-22.437-0.212-24.766-0.237c0.017-1.519,0.263-28.168,0.28-30.45C950.61,598.443,970.735,598.626,973.055,598.647
		L973.055,598.647z M984.271,641.387l-7.734-0.072l0.492-54.808l7.738,0.068L984.271,641.387z M944.044,641.013l-7.733-0.072
		l0.488-54.812l7.737,0.063L944.044,641.013z"/>
</g>
<g>
	<path fill="#1C1511" d="M1743.818,358.818c0.098,19.849-16.077,36.02-36.138,36.121c-20.057,0.098-36.397-15.916-36.499-35.761
		c-0.093-19.849,16.086-36.015,36.147-36.117C1727.384,322.955,1743.72,338.969,1743.818,358.818z"/>
	<g>
		<path fill="#FFFFFF" d="M1729.344,336.102c0.009,2.63-1.752,4.39-4.407,4.403c-2.656,0.008-4.433-1.731-4.45-4.361
			c-0.013-2.63,1.752-4.391,4.407-4.403C1727.545,331.728,1729.327,333.472,1729.344,336.102L1729.344,336.102z"/>
		<path fill="#FFFFFF" d="M1684.309,361.741c0.009,0.878-0.874,1.761-1.76,1.765c-0.883,0-1.777-0.874-1.777-1.748l-0.085-17.528
			c0,0,0.866-4.387,4.403-4.408l10.631-0.051c0,0,4.42-0.021,4.441,4.361l0.089,17.533c0,0.878-0.878,1.752-1.765,1.76
			c-0.887,0.004-1.773-0.87-1.782-1.743l-0.076-15.777c0,0-0.891-0.878-0.878,0.883l0.182,38.569
			c0.013,1.748-0.861,2.626-2.639,2.643c-0.882,0-1.777-0.874-1.782-2.626l-0.11-22.789c0,0-0.891-0.878-0.887,0l0.107,22.792
			c0.012,1.752-1.756,2.639-2.643,2.643c-0.878,0.004-2.656-0.87-2.668-2.617l-0.187-38.565c0,0-0.004-0.878-0.882,0.004
			L1684.309,361.741z"/>
		<path fill="#FFFFFF" d="M1732.033,344.849l0.059,9.647l2.681,6.121c0.891,0.874,0.009,1.756-0.874,1.761
			c-0.887,0.878-1.773,0.009-1.781-0.87l-2.685-6.121l-0.025-7.012c-0.013-0.882-0.895,0-0.895,0l0.038,7.012l6.278,16.621
			l-6.197,0.03l0.072,14.033c0.004,0.874-0.878,1.756-1.765,1.756c-0.882,0.009-1.773-0.861-1.777-1.739l-0.063-13.15
			c-0.009-0.87-0.891-0.87-0.891-0.87l0.064,14.02c0.009,0.878-0.869,1.761-1.76,1.765c-0.887,0.008-1.778-0.87-1.778-1.744
			l-0.068-14.024l-6.202,0.026l7.008-16.685l-0.042-7.012h-0.883l0.038,7.012l-2.626,6.151c-0.882,0.883-1.765,1.761-2.655,0.895
			c-0.882,0.004-0.891-0.878-0.891-1.756l2.626-6.143l-0.043-8.768c0.87-3.512,4.403-4.403,4.403-4.403
			c0.891,1.748,1.786,2.622,3.555,2.613s2.647-0.895,3.529-2.652C1728.483,341.362,1732.025,342.219,1732.033,344.849
			L1732.033,344.849z"/>
		<path fill="#FFFFFF" d="M1694.809,334.515c0.009,1.756-1.761,3.516-4.416,3.533c-1.769,0.009-3.546-1.739-3.555-3.499
			c-0.017-2.618,1.743-4.387,3.516-4.399C1693.01,330.142,1694.792,331.881,1694.809,334.515L1694.809,334.515z"/>
		
			<rect x="1705.527" y="329.257" transform="matrix(1 -0.0047 0.0047 1 -1.6667 8.0261)" fill="#FFFFFF" width="2.66" height="58.735"/>
	</g>
</g>
<g>
	<path fill="#1C1511" d="M911.955,514.74c0,20.15-16.455,36.486-36.754,36.486c-20.298,0-36.753-16.336-36.753-36.486
		c0-20.158,16.455-36.499,36.753-36.499C895.5,478.241,911.955,494.582,911.955,514.74z"/>
	<path fill="#FFFFFF" d="M889.09,492.482L889.09,492.482c0,0-7.169,6.231-14.338,13.354v-4.454c0-1.778-1.79-2.668-3.585-2.668
		c-0.895,0-2.685,0.891-2.685,2.668v9.791c-6.27,5.341-12.544,10.682-12.544,10.682c-0.895,0-2.69,0-2.69,0
		c-4.475,0-8.064,3.559-8.064,8.018c0,4.446,3.589,8.005,8.064,8.005h7.169c0,0,34.047-28.482,34.946-29.372
		c0.891,0,1.791,0,1.791,0c4.479,0,8.064-3.559,8.064-8.014c0-4.446-3.585-8.009-8.064-8.009L889.09,492.482L889.09,492.482z
		 M897.155,495.15c3.58,0,5.375,2.668,5.375,5.341c0,3.563-1.794,5.345-5.375,5.345h-2.69l-34.942,29.372c-0.895,0-6.274,0-6.274,0
		c-2.689,0-5.375-2.668-5.375-5.336s2.685-5.345,5.375-5.345h3.585c0,0,32.257-28.481,33.152-29.377
		C890.885,495.15,897.155,495.15,897.155,495.15L897.155,495.15z M874.752,494.26c0,1.786-1.79,3.559-3.585,3.559
		c-1.786,0-2.685-1.773-2.685-3.559c0-0.891,0.899-2.668,2.685-2.668C872.962,491.591,874.752,493.369,874.752,494.26
		L874.752,494.26z"/>
</g>
<g>
	<path fill="#148865" d="M959.852,1023.939c-20.591-0.089-37.216-16.485-37.136-36.635c0.093-20.141,16.85-36.41,37.432-36.321
		c20.591,0.085,37.216,16.485,37.135,36.635C997.199,1007.764,980.439,1024.024,959.852,1023.939z"/>
	<path fill="#FFFFFF" d="M965.795,1015.938l0.144-35.561l13.583,13.392l0.063-15.119l-19.013-19.645l-20.087,19.48l-0.068,16.01
		l14.619-15.06l-0.157,36.461L965.795,1015.938z"/>
</g>
<g>
	<path fill="#148865" d="M960.685,219.817c20.591,0.089,37.216,16.485,37.136,36.635c-0.093,20.141-16.85,36.41-37.432,36.321
		c-20.591-0.085-37.216-16.485-37.135-36.635C923.338,235.992,940.098,219.732,960.685,219.817z"/>
	<path fill="#FFFFFF" d="M954.742,227.818l-0.144,35.561l-13.583-13.392l-0.063,15.119l19.013,19.645l20.087-19.48l0.068-16.01
		l-14.62,15.06l0.157-36.461L954.742,227.818z"/>
</g>
<g>
	<path fill="#148865" d="M1640.01,1103.694c-20.591-0.089-37.216-16.485-37.136-36.635c0.093-20.141,16.85-36.41,37.432-36.321
		c20.591,0.085,37.216,16.485,37.135,36.635C1677.357,1087.519,1660.597,1103.78,1640.01,1103.694z"/>
	<path fill="#FFFFFF" d="M1645.953,1095.694l0.144-35.562l13.583,13.392l0.063-15.119l-19.013-19.645l-20.087,19.48l-0.068,16.01
		l14.619-15.06l-0.157,36.461L1645.953,1095.694z"/>
</g>
<g>
	<path fill="#148865" d="M391.851,1103.684c-20.591-0.089-37.216-16.485-37.136-36.635c0.093-20.141,16.85-36.41,37.432-36.321
		c20.591,0.085,37.216,16.485,37.135,36.635C429.198,1087.509,412.438,1103.769,391.851,1103.684z"/>
	<path fill="#FFFFFF" d="M397.794,1095.683l0.144-35.562l13.583,13.392l0.063-15.119l-19.013-19.645l-20.087,19.48l-0.068,16.01
		l14.619-15.06l-0.157,36.461L397.794,1095.683z"/>
</g>
<g>
	<path fill="#148865" d="M295.775,1103.673c-20.591-0.089-37.216-16.485-37.136-36.635c0.093-20.141,16.85-36.41,37.432-36.321
		c20.591,0.085,37.216,16.485,37.135,36.635C333.122,1087.498,316.362,1103.758,295.775,1103.673z"/>
	<path fill="#FFFFFF" d="M301.718,1095.672l0.144-35.562l13.583,13.392l0.063-15.119l-19.013-19.645l-20.087,19.48l-0.068,16.01
		l14.619-15.06l-0.157,36.461L301.718,1095.672z"/>
</g>
<g>
	<path fill="#1C1511" d="M258.37,966.324c0,20.15-16.455,36.486-36.754,36.486c-20.298,0-36.753-16.336-36.753-36.486
		c0-20.158,16.455-36.499,36.753-36.499C241.914,929.825,258.37,946.166,258.37,966.324z"/>
	<path fill="#FFFFFF" d="M235.505,944.066L235.505,944.066c0,0-7.169,6.231-14.338,13.354v-4.454c0-1.778-1.79-2.668-3.585-2.668
		c-0.895,0-2.685,0.891-2.685,2.668v9.791c-6.27,5.341-12.544,10.682-12.544,10.682c-0.895,0-2.69,0-2.69,0
		c-4.475,0-8.064,3.559-8.064,8.018c0,4.446,3.589,8.005,8.064,8.005h7.169c0,0,34.047-28.482,34.946-29.372
		c0.891,0,1.791,0,1.791,0c4.479,0,8.064-3.559,8.064-8.014c0-4.446-3.585-8.009-8.064-8.009h-8.064V944.066z M243.569,946.734
		c3.58,0,5.375,2.669,5.375,5.341c0,3.563-1.794,5.345-5.375,5.345h-2.69l-34.942,29.372c-0.895,0-6.274,0-6.274,0
		c-2.689,0-5.375-2.668-5.375-5.336s2.685-5.345,5.375-5.345h3.585c0,0,32.257-28.481,33.152-29.377
		C237.299,946.734,243.569,946.734,243.569,946.734L243.569,946.734z M221.166,945.844c0,1.786-1.79,3.559-3.585,3.559
		c-1.786,0-2.685-1.773-2.685-3.559c0-0.891,0.899-2.668,2.685-2.668C219.376,943.175,221.166,944.953,221.166,945.844
		L221.166,945.844z"/>
</g>
<g>
	<path fill="#1C1511" d="M1763.822,242.843c0,20.15-16.455,36.486-36.754,36.486c-20.298,0-36.753-16.336-36.753-36.486
		c0-20.158,16.455-36.499,36.753-36.499C1747.366,206.344,1763.822,222.685,1763.822,242.843z"/>
	<path fill="#FFFFFF" d="M1740.957,220.585L1740.957,220.585c0,0-7.169,6.231-14.338,13.354v-4.454c0-1.778-1.79-2.668-3.585-2.668
		c-0.895,0-2.685,0.891-2.685,2.668v9.791c-6.27,5.341-12.544,10.682-12.544,10.682c-0.895,0-2.69,0-2.69,0
		c-4.475,0-8.064,3.559-8.064,8.018c0,4.446,3.589,8.005,8.064,8.005h7.169c0,0,34.047-28.482,34.946-29.372
		c0.891,0,1.791,0,1.791,0c4.479,0,8.064-3.559,8.064-8.014c0-4.446-3.585-8.009-8.064-8.009h-8.064L1740.957,220.585
		L1740.957,220.585z M1749.021,223.253c3.58,0,5.375,2.668,5.375,5.341c0,3.563-1.794,5.345-5.375,5.345h-2.69l-34.942,29.372
		c-0.895,0-6.274,0-6.274,0c-2.689,0-5.375-2.668-5.375-5.337c0-2.668,2.685-5.345,5.375-5.345h3.585
		c0,0,32.257-28.481,33.152-29.377C1742.751,223.253,1749.021,223.253,1749.021,223.253L1749.021,223.253z M1726.618,222.363
		c0,1.786-1.79,3.559-3.585,3.559c-1.786,0-2.685-1.773-2.685-3.559c0-0.891,0.899-2.668,2.685-2.668
		C1724.828,219.694,1726.618,221.472,1726.618,222.363L1726.618,222.363z"/>
</g>
<g>
	<path fill="#1C1511" d="M1749.657,964.324c0,20.15-16.455,36.486-36.754,36.486c-20.298,0-36.753-16.336-36.753-36.486
		c0-20.158,16.455-36.499,36.753-36.499C1733.201,927.825,1749.657,944.166,1749.657,964.324z"/>
	<path fill="#FFFFFF" d="M1726.792,942.066L1726.792,942.066c0,0-7.169,6.231-14.338,13.354v-4.454c0-1.778-1.79-2.668-3.585-2.668
		c-0.895,0-2.685,0.891-2.685,2.668v9.791c-6.27,5.341-12.544,10.682-12.544,10.682c-0.895,0-2.69,0-2.69,0
		c-4.475,0-8.064,3.559-8.064,8.018c0,4.446,3.589,8.005,8.064,8.005h7.169c0,0,34.047-28.482,34.946-29.372
		c0.891,0,1.791,0,1.791,0c4.479,0,8.064-3.559,8.064-8.014c0-4.446-3.585-8.009-8.064-8.009h-8.064L1726.792,942.066
		L1726.792,942.066z M1734.856,944.734c3.58,0,5.375,2.668,5.375,5.341c0,3.563-1.794,5.345-5.375,5.345h-2.69l-34.942,29.372
		c-0.895,0-6.274,0-6.274,0c-2.689,0-5.375-2.668-5.375-5.336s2.685-5.345,5.375-5.345h3.585c0,0,32.257-28.481,33.152-29.377
		C1728.586,944.734,1734.856,944.734,1734.856,944.734L1734.856,944.734z M1712.453,943.844c0,1.786-1.79,3.559-3.585,3.559
		c-1.786,0-2.685-1.773-2.685-3.559c0-0.891,0.899-2.668,2.685-2.668C1710.663,941.175,1712.453,942.953,1712.453,943.844
		L1712.453,943.844z"/>
</g>
<rect x="1558" y="156" fill="none" stroke="#99C4E9" stroke-width="2" stroke-miterlimit="10" width="44" height="13.114"/>
<rect x="1558" y="169.114" fill="none" stroke="#99C4E9" stroke-width="2" stroke-miterlimit="10" width="44" height="13.114"/>
<rect x="1558" y="182.228" fill="none" stroke="#99C4E9" stroke-width="2" stroke-miterlimit="10" width="44" height="13.114"/>
<rect x="1558" y="195.342" fill="none" stroke="#99C4E9" stroke-width="2" stroke-miterlimit="10" width="44" height="13.114"/>
<g>
	<path fill="#148865" d="M1580.148,213.088c20.591,0.089,37.216,16.485,37.136,36.635c-0.093,20.141-16.85,36.41-37.432,36.321
		c-20.591-0.085-37.216-16.485-37.135-36.635C1542.801,229.263,1559.561,213.003,1580.148,213.088z"/>
	<path fill="#FFFFFF" d="M1574.205,221.089l-0.144,35.561l-13.583-13.392l-0.063,15.119l19.013,19.645l20.087-19.48l0.068-16.01
		l-14.619,15.059l0.157-36.461L1574.205,221.089z"/>
</g>
</svg>
