<?xml version="1.0" encoding="utf-8"?>
<!-- Generator: Adobe Illustrator 17.0.0, SVG Export Plug-In . SVG Version: 6.00 Build 0)  -->
<!DOCTYPE svg PUBLIC "-//W3C//DTD SVG 1.1//EN" "http://www.w3.org/Graphics/SVG/1.1/DTD/svg11.dtd">
<svg version="1.1" id="图层_1" xmlns="http://www.w3.org/2000/svg" xmlns:xlink="http://www.w3.org/1999/xlink" x="0px" y="0px"
	 width="1920px" height="1280px" viewBox="0 0 1920 1280" enable-background="new 0 0 1920 1280" xml:space="preserve">
<rect x="6.581" y="126.171" opacity="0.7" fill="#99CCFF" enable-background="new    " width="1907.912" height="1027.751"/>
<rect x="124.846" y="801.364" fill="#CFF9FF" width="67.85" height="59.299"/>
<rect x="202.694" y="801.364" fill="#F4D5BF" width="44.372" height="38.076"/>
<rect x="202.694" y="847.434" fill="#CFF9FF" width="44.372" height="75.529"/>
<rect x="124.846" y="869.281" fill="#CFF9FF" width="67.85" height="53.682"/>
<rect x="124.845" y="931.963" fill="#E2E2E2" width="187.002" height="69.168"/>
<rect x="1597.345" y="208.685" fill="#E2E2E2" width="187.779" height="69.168"/>
<rect x="1712.027" y="286.963" fill="#CFF9FF" width="73.098" height="68"/>
<rect x="1712.027" y="365.963" fill="#CFF9FF" width="73.098" height="56"/>
<rect x="1652.694" y="339.296" fill="#CFF9FF" width="53.098" height="82.667"/>
<polygon fill="#F4D5BF" points="1676.194,286.963 1676.194,311.463 1652.694,311.463 1652.694,329.463 1705.792,329.463 
	1705.792,318.463 1705.792,311.463 1705.792,286.963 "/>
<rect x="842.694" y="419.963" fill="#E2E2E2" width="65.015" height="181.781"/>
<rect x="1016.694" y="514.963" fill="#90CFC8" width="46.5" height="45.5"/>
<rect x="1016.694" y="419.963" fill="#FCFAD3" width="46.5" height="86.5"/>
<rect x="1016.694" y="566.13" fill="#90CFC8" width="46.5" height="45.5"/>
<rect x="1016.694" y="617.296" fill="#90CFC8" width="46.5" height="45.5"/>
<rect x="1016.694" y="668.463" fill="#90CFC8" width="46.5" height="45.5"/>
<rect x="842.694" y="611.63" fill="#FCFAD3" width="65.015" height="102.333"/>
<rect x="1597.346" y="208.685" fill="none" stroke="#99C4E9" stroke-width="2" stroke-miterlimit="10" width="14.445" height="69.168"/>
<rect x="1611.79" y="208.685" fill="none" stroke="#99C4E9" stroke-width="2" stroke-miterlimit="10" width="14.445" height="69.168"/>
<rect x="1626.235" y="208.685" fill="none" stroke="#99C4E9" stroke-width="2" stroke-miterlimit="10" width="14.445" height="69.168"/>
<rect x="1640.679" y="208.685" fill="none" stroke="#99C4E9" stroke-width="2" stroke-miterlimit="10" width="14.445" height="69.168"/>
<rect x="1655.124" y="208.685" fill="none" stroke="#99C4E9" stroke-width="2" stroke-miterlimit="10" width="14.445" height="69.168"/>
<rect x="1669.568" y="208.685" fill="none" stroke="#99C4E9" stroke-width="2" stroke-miterlimit="10" width="14.445" height="69.168"/>
<rect x="1684.013" y="208.685" fill="none" stroke="#99C4E9" stroke-width="2" stroke-miterlimit="10" width="14.445" height="69.168"/>
<rect x="1698.458" y="208.685" fill="none" stroke="#99C4E9" stroke-width="2" stroke-miterlimit="10" width="14.445" height="69.168"/>
<rect x="1712.902" y="208.685" fill="none" stroke="#99C4E9" stroke-width="2" stroke-miterlimit="10" width="14.445" height="69.168"/>
<rect x="1727.347" y="208.685" fill="none" stroke="#99C4E9" stroke-width="2" stroke-miterlimit="10" width="14.445" height="69.168"/>
<rect x="1741.791" y="208.685" fill="none" stroke="#99C4E9" stroke-width="2" stroke-miterlimit="10" width="14.445" height="69.168"/>
<rect x="1756.236" y="208.685" fill="none" stroke="#99C4E9" stroke-width="2" stroke-miterlimit="10" width="14.445" height="69.168"/>
<rect x="1770.68" y="208.685" fill="none" stroke="#99C4E9" stroke-width="2" stroke-miterlimit="10" width="14.445" height="69.168"/>
<rect x="124.845" y="931.963" fill="none" stroke="#99C4E9" stroke-width="2" stroke-miterlimit="10" width="14.445" height="69.168"/>
<rect x="139.29" y="931.963" fill="none" stroke="#99C4E9" stroke-width="2" stroke-miterlimit="10" width="14.445" height="69.168"/>
<rect x="153.735" y="931.963" fill="none" stroke="#99C4E9" stroke-width="2" stroke-miterlimit="10" width="14.445" height="69.168"/>
<rect x="168.179" y="931.963" fill="none" stroke="#99C4E9" stroke-width="2" stroke-miterlimit="10" width="14.445" height="69.168"/>
<rect x="182.624" y="931.963" fill="none" stroke="#99C4E9" stroke-width="2" stroke-miterlimit="10" width="14.445" height="69.168"/>
<rect x="197.068" y="931.963" fill="none" stroke="#99C4E9" stroke-width="2" stroke-miterlimit="10" width="14.445" height="69.168"/>
<rect x="211.513" y="931.963" fill="none" stroke="#99C4E9" stroke-width="2" stroke-miterlimit="10" width="14.445" height="69.168"/>
<rect x="225.957" y="931.963" fill="none" stroke="#99C4E9" stroke-width="2" stroke-miterlimit="10" width="14.445" height="69.168"/>
<rect x="240.402" y="931.963" fill="none" stroke="#99C4E9" stroke-width="2" stroke-miterlimit="10" width="14.445" height="69.168"/>
<rect x="254.847" y="931.963" fill="none" stroke="#99C4E9" stroke-width="2" stroke-miterlimit="10" width="14.445" height="69.168"/>
<rect x="269.291" y="931.963" fill="none" stroke="#99C4E9" stroke-width="2" stroke-miterlimit="10" width="14.445" height="69.168"/>
<rect x="283.736" y="931.963" fill="none" stroke="#99C4E9" stroke-width="2" stroke-miterlimit="10" width="14.445" height="69.168"/>
<rect x="298.18" y="931.963" fill="none" stroke="#99C4E9" stroke-width="2" stroke-miterlimit="10" width="14.445" height="69.168"/>
<rect x="842.694" y="419.963" fill="none" stroke="#99C4E9" stroke-width="2" stroke-miterlimit="10" width="65.015" height="14.445"/>
<rect x="842.694" y="433.908" fill="none" stroke="#99C4E9" stroke-width="2" stroke-miterlimit="10" width="65.015" height="14.445"/>
<rect x="842.694" y="447.853" fill="none" stroke="#99C4E9" stroke-width="2" stroke-miterlimit="10" width="65.015" height="14.445"/>
<rect x="842.694" y="461.797" fill="none" stroke="#99C4E9" stroke-width="2" stroke-miterlimit="10" width="65.015" height="14.445"/>
<rect x="842.694" y="475.742" fill="none" stroke="#99C4E9" stroke-width="2" stroke-miterlimit="10" width="65.015" height="14.445"/>
<rect x="842.694" y="489.687" fill="none" stroke="#99C4E9" stroke-width="2" stroke-miterlimit="10" width="65.015" height="14.445"/>
<rect x="842.694" y="503.632" fill="none" stroke="#99C4E9" stroke-width="2" stroke-miterlimit="10" width="65.015" height="14.445"/>
<rect x="842.694" y="517.576" fill="none" stroke="#99C4E9" stroke-width="2" stroke-miterlimit="10" width="65.015" height="14.445"/>
<rect x="842.694" y="531.521" fill="none" stroke="#99C4E9" stroke-width="2" stroke-miterlimit="10" width="65.015" height="14.445"/>
<rect x="842.694" y="545.466" fill="none" stroke="#99C4E9" stroke-width="2" stroke-miterlimit="10" width="65.015" height="14.445"/>
<rect x="842.694" y="559.411" fill="none" stroke="#99C4E9" stroke-width="2" stroke-miterlimit="10" width="65.015" height="14.445"/>
<rect x="842.694" y="573.355" fill="none" stroke="#99C4E9" stroke-width="2" stroke-miterlimit="10" width="65.015" height="14.445"/>
<rect x="842.694" y="587.3" fill="none" stroke="#99C4E9" stroke-width="2" stroke-miterlimit="10" width="65.015" height="14.445"/>
<polygon fill="#E6FFE6" points="907.709,208.522 818.625,208.522 798.855,208.522 124.846,208.522 124.846,600.157 317.162,600.157 
	317.162,1000.968 826.625,1000.968 826.625,600.157 826.625,582.183 826.625,404.827 907.709,404.827 "/>
<rect x="124.846" y="612.13" fill="#FFE2E2" width="122.22" height="179.736"/>
<rect x="253.356" y="612.13" fill="#DBDBFF" width="55.269" height="89.868"/>
<rect x="1652.694" y="429.467" fill="#FFE2E2" width="132.431" height="193.333"/>
<rect x="1597.194" y="535.8" fill="#DBDBFF" width="44.431" height="87"/>
<polygon fill="#E6FFE6" points="1584.694,629.8 1584.694,405.8 1584.694,208.522 1016.694,208.522 1016.694,405.8 1078.694,405.8 
	1078.694,1000.968 1584.694,1000.968 1785.125,1000.968 1785.125,629.8 "/>
<g>
	<path d="M997.427,612.48c-0.182,19.772-16.633,35.659-36.75,35.468c-20.116-0.191-36.279-16.383-36.104-36.168
		c0.182-19.777,16.633-35.659,36.749-35.468C981.438,576.499,997.609,592.695,997.427,612.48z"/>
	<path fill="#FFFFFF" d="M964.661,635.769l-3.907,3.767l-3.835-4.611l0.038-3.042l3.067,3.071l0.034-3.797l2.321,0.021l-0.038,3.801
		l2.346-2.261L964.661,635.769z M957.335,589.25l3.911-4.53l3.826,4.607l-0.025,3.046l-2.291-3.067l-0.03,3.801l-3.101-0.021
		l0.034-3.809l-2.341,2.257L957.335,589.25z M954.789,614.355c0,0-0.785,0.751-1.557,0.742l-0.768-0.772l0.085-9.134
		c0,0,0.793-1.514,2.346-2.261l5.421,0.055c0,0,0.768,0.009,1.531,1.54l1.523,2.291c0,0,0.759,0.776,0.776,0.013l1.557-1.506
		c0.772,0.004,1.549,0.013,1.549,0.013c0.764,0.772,0.764,0.772-0.017,1.519l-2.346,3.024c0,0-0.776,0.751-2.32-0.021l-2.282-3.831
		l-0.179,19.035c-0.004,0.763-0.789,1.514-0.789,1.514c-0.772-0.004-1.544-0.776-1.531-1.536l0.097-10.66
		c0,0-0.768-0.764-0.776-0.004l-0.093,10.656c-0.013,0.764-0.013,1.532-0.789,1.515c-0.776-0.009-1.544-0.772-1.536-1.536
		l0.178-19.03c0,0,0,0-0.013,0.755L954.789,614.355z M970.281,612.217c-0.004,0.764-0.013,1.519-0.785,1.515
		c0,0-0.764-0.768-0.755-1.532l0.776-0.755C970.294,611.453,970.281,612.217,970.281,612.217L970.281,612.217z M970.311,609.171
		c0,0-0.004,0.763-0.785,0.751l-0.759-0.768c0.004-0.76,0.785-1.515,0.785-1.515C970.324,607.648,970.316,608.412,970.311,609.171
		L970.311,609.171z M970.341,606.13c-0.013,0.755-0.013,0.755-0.781,0.746c0,0-0.772,0-0.764-0.768
		c0.009-0.759,0.777-0.759,0.777-0.759C970.345,605.362,970.345,605.362,970.341,606.13L970.341,606.13z M970.375,602.32
		c0,0.764,0,0.764-0.784,0.755c0,0-0.768-0.013-0.764-0.772s0.781-0.751,0.781-0.751
		C970.383,601.565,970.383,601.565,970.375,602.32L970.375,602.32z M959.549,600.691c0,0.764-0.784,1.519-2.329,1.506
		c-0.772-0.009-1.544-0.781-1.535-1.54c0.012-1.523,0.797-2.278,1.574-2.27C958.803,598.401,959.574,599.173,959.549,600.691
		L959.549,600.691z M974.307,595.503l-27.086-0.259l-0.306,34.268l28.626,0.258l0.31-34.255L974.307,595.503z M973.518,597.018
		c-0.013,2.287-0.259,28.935-0.276,30.454c-2.325-0.03-22.437-0.212-24.766-0.237c0.017-1.519,0.263-28.168,0.28-30.45
		C951.073,596.814,971.198,596.996,973.518,597.018L973.518,597.018z M984.734,639.757l-7.733-0.072l0.492-54.808l7.738,0.068
		L984.734,639.757z M944.507,639.383l-7.733-0.072l0.488-54.812l7.737,0.063L944.507,639.383z"/>
</g>
<g>
	<path fill="#1C1511" d="M1749.222,365.781c0.098,19.849-16.077,36.02-36.138,36.121c-20.057,0.098-36.397-15.916-36.499-35.761
		c-0.093-19.849,16.086-36.015,36.147-36.117C1732.788,329.918,1749.124,345.932,1749.222,365.781z"/>
	<g>
		<path fill="#FFFFFF" d="M1734.748,343.064c0.009,2.63-1.752,4.39-4.407,4.403c-2.656,0.008-4.433-1.731-4.45-4.361
			c-0.013-2.63,1.752-4.391,4.407-4.403C1732.949,338.691,1734.731,340.434,1734.748,343.064L1734.748,343.064z"/>
		<path fill="#FFFFFF" d="M1689.713,368.703c0.009,0.878-0.874,1.761-1.76,1.765c-0.883,0-1.777-0.874-1.777-1.748l-0.085-17.528
			c0,0,0.866-4.387,4.403-4.408l10.631-0.051c0,0,4.42-0.021,4.441,4.361l0.089,17.533c0,0.878-0.878,1.752-1.765,1.76
			c-0.886,0.004-1.773-0.87-1.782-1.743l-0.076-15.777c0,0-0.891-0.878-0.878,0.883l0.182,38.569
			c0.013,1.748-0.861,2.626-2.639,2.643c-0.882,0-1.777-0.874-1.782-2.626l-0.11-22.789c0,0-0.891-0.878-0.887,0l0.107,22.793
			c0.012,1.752-1.756,2.639-2.643,2.643c-0.878,0.004-2.656-0.87-2.668-2.617l-0.187-38.565c0,0-0.004-0.878-0.882,0.004
			L1689.713,368.703z"/>
		<path fill="#FFFFFF" d="M1737.437,351.812l0.059,9.647l2.681,6.121c0.891,0.874,0.009,1.756-0.874,1.761
			c-0.887,0.878-1.773,0.009-1.781-0.87l-2.685-6.121l-0.025-7.012c-0.013-0.882-0.895,0-0.895,0l0.038,7.012l6.278,16.621
			l-6.197,0.03l0.072,14.033c0.004,0.874-0.878,1.756-1.765,1.756c-0.882,0.009-1.773-0.861-1.777-1.739l-0.063-13.15
			c-0.009-0.87-0.891-0.87-0.891-0.87l0.063,14.02c0.009,0.878-0.869,1.761-1.76,1.765c-0.887,0.008-1.777-0.87-1.777-1.744
			l-0.068-14.024l-6.202,0.026l7.008-16.685l-0.042-7.012h-0.883l0.038,7.012l-2.626,6.151c-0.882,0.883-1.765,1.761-2.655,0.895
			c-0.882,0.004-0.891-0.878-0.891-1.756l2.626-6.143l-0.043-8.768c0.87-3.512,4.403-4.403,4.403-4.403
			c0.891,1.748,1.786,2.622,3.555,2.613s2.647-0.895,3.529-2.652C1733.887,348.324,1737.429,349.181,1737.437,351.812
			L1737.437,351.812z"/>
		<path fill="#FFFFFF" d="M1700.213,341.478c0.009,1.756-1.76,3.516-4.416,3.533c-1.769,0.009-3.546-1.739-3.555-3.499
			c-0.017-2.618,1.743-4.387,3.516-4.399C1698.414,337.104,1700.196,338.843,1700.213,341.478L1700.213,341.478z"/>
		
			<rect x="1710.955" y="336.225" transform="matrix(-1 0.0047 -0.0047 -1 3426.2693 723.1331)" fill="#FFFFFF" width="2.66" height="58.734"/>
	</g>
</g>
<g>
	<path fill="#1C1511" d="M911.955,524.805c0,20.15-16.455,36.486-36.754,36.486c-20.298,0-36.753-16.336-36.753-36.486
		c0-20.158,16.455-36.499,36.753-36.499C895.5,488.306,911.955,504.646,911.955,524.805z"/>
	<path fill="#FFFFFF" d="M889.09,502.547L889.09,502.547c0,0-7.169,6.231-14.338,13.354v-4.454c0-1.778-1.79-2.668-3.585-2.668
		c-0.895,0-2.685,0.891-2.685,2.668v9.791c-6.27,5.341-12.544,10.682-12.544,10.682c-0.895,0-2.69,0-2.69,0
		c-4.475,0-8.064,3.559-8.064,8.018c0,4.446,3.589,8.005,8.064,8.005h7.169c0,0,34.047-28.482,34.946-29.372
		c0.891,0,1.791,0,1.791,0c4.479,0,8.064-3.559,8.064-8.014c0-4.446-3.585-8.009-8.064-8.009L889.09,502.547L889.09,502.547z
		 M897.155,505.215c3.58,0,5.375,2.668,5.375,5.341c0,3.563-1.794,5.345-5.375,5.345h-2.69l-34.942,29.372c-0.895,0-6.274,0-6.274,0
		c-2.689,0-5.375-2.668-5.375-5.336s2.685-5.345,5.375-5.345h3.585c0,0,32.257-28.481,33.152-29.377
		C890.885,505.215,897.155,505.215,897.155,505.215L897.155,505.215z M874.752,504.324c0,1.786-1.79,3.559-3.585,3.559
		c-1.786,0-2.685-1.773-2.685-3.559c0-0.891,0.899-2.668,2.685-2.668C872.962,501.656,874.752,503.433,874.752,504.324
		L874.752,504.324z"/>
</g>
<g>
	<path fill="#148865" d="M941.696,321.111c-0.089,20.591-16.485,37.216-36.635,37.136c-20.141-0.093-36.41-16.85-36.321-37.432
		c0.085-20.591,16.485-37.216,36.635-37.135C925.521,283.764,941.782,300.524,941.696,321.111z"/>
	<path fill="#FFFFFF" d="M933.696,315.168l-35.561-0.144l13.392-13.583l-15.119-0.063l-19.645,19.013l19.48,20.087l16.01,0.068
		l-15.06-14.619l36.461,0.157L933.696,315.168z"/>
</g>
<g>
	<path fill="#148865" d="M860.739,842.17c-0.089,20.591-16.485,37.216-36.635,37.136c-20.141-0.093-36.41-16.85-36.321-37.432
		c0.085-20.591,16.485-37.216,36.635-37.135C844.564,804.822,860.824,821.583,860.739,842.17z"/>
	<path fill="#FFFFFF" d="M852.738,836.227l-35.561-0.144l13.392-13.583l-15.119-0.063l-19.645,19.013l19.48,20.087l16.009,0.068
		l-15.059-14.619l36.461,0.157L852.738,836.227z"/>
</g>
<g>
	<path fill="#148865" d="M1039.944,845.529c0.089-20.591,16.485-37.216,36.635-37.136c20.141,0.093,36.41,16.85,36.321,37.432
		c-0.085,20.591-16.485,37.216-36.635,37.135C1056.119,882.877,1039.859,866.116,1039.944,845.529z"/>
	<path fill="#FFFFFF" d="M1047.945,851.472l35.561,0.144l-13.392,13.583l15.119,0.063l19.645-19.013l-19.48-20.087l-16.01-0.068
		l15.059,14.619l-36.461-0.157L1047.945,851.472z"/>
</g>
<g>
	<path fill="#148865" d="M980.216,320.815c0.089-20.591,16.485-37.216,36.635-37.136c20.141,0.093,36.41,16.85,36.321,37.432
		c-0.085,20.591-16.485,37.216-36.635,37.135C996.391,358.162,980.131,341.402,980.216,320.815z"/>
	<path fill="#FFFFFF" d="M988.217,326.758l35.561,0.144l-13.392,13.583l15.119,0.063l19.645-19.013l-19.48-20.087l-16.009-0.068
		L1024.72,316l-36.461-0.157L988.217,326.758z"/>
</g>
<g>
	<path fill="#1C1511" d="M218.943,869.099c0.098,19.849-16.077,36.02-36.138,36.121c-20.057,0.098-36.397-15.916-36.499-35.761
		c-0.093-19.849,16.086-36.015,36.147-36.117C202.509,833.236,218.845,849.25,218.943,869.099z"/>
	<g>
		<path fill="#FFFFFF" d="M204.469,846.382c0.009,2.63-1.752,4.39-4.407,4.403c-2.656,0.008-4.433-1.731-4.45-4.361
			c-0.013-2.63,1.752-4.391,4.407-4.403C202.67,842.009,204.452,843.752,204.469,846.382L204.469,846.382z"/>
		<path fill="#FFFFFF" d="M159.434,872.021c0.009,0.878-0.874,1.761-1.76,1.765c-0.883,0-1.778-0.874-1.778-1.748l-0.085-17.528
			c0,0,0.866-4.386,4.403-4.408l10.631-0.051c0,0,4.42-0.021,4.441,4.361l0.089,17.533c0,0.878-0.878,1.752-1.765,1.76
			c-0.887,0.004-1.773-0.87-1.782-1.743l-0.076-15.777c0,0-0.891-0.878-0.878,0.883l0.182,38.569
			c0.013,1.748-0.861,2.626-2.639,2.643c-0.882,0-1.777-0.874-1.782-2.626l-0.11-22.789c0,0-0.891-0.878-0.887,0l0.107,22.793
			c0.012,1.752-1.756,2.639-2.643,2.643c-0.878,0.004-2.656-0.87-2.668-2.617l-0.187-38.565c0,0-0.004-0.878-0.882,0.004
			L159.434,872.021z"/>
		<path fill="#FFFFFF" d="M207.158,855.13l0.059,9.647l2.681,6.121c0.891,0.874,0.009,1.756-0.874,1.761
			c-0.887,0.878-1.773,0.009-1.781-0.87l-2.685-6.121l-0.025-7.012c-0.013-0.882-0.895,0-0.895,0l0.038,7.012l6.278,16.621
			l-6.197,0.03l0.072,14.033c0.004,0.874-0.878,1.756-1.765,1.756c-0.882,0.009-1.773-0.861-1.778-1.739l-0.063-13.15
			c-0.009-0.87-0.891-0.87-0.891-0.87l0.064,14.02c0.009,0.878-0.869,1.761-1.76,1.765c-0.887,0.008-1.778-0.87-1.778-1.744
			l-0.068-14.024l-6.202,0.026l7.008-16.685l-0.042-7.012h-0.883l0.038,7.012l-2.626,6.151c-0.882,0.883-1.764,1.761-2.655,0.895
			c-0.882,0.004-0.891-0.878-0.891-1.756l2.626-6.143l-0.043-8.768c0.87-3.512,4.403-4.403,4.403-4.403
			c0.891,1.748,1.786,2.622,3.555,2.613c1.769-0.009,2.647-0.895,3.529-2.652C203.608,851.642,207.15,852.499,207.158,855.13
			L207.158,855.13z"/>
		<path fill="#FFFFFF" d="M169.934,844.796c0.009,1.756-1.761,3.516-4.416,3.533c-1.769,0.009-3.546-1.739-3.555-3.499
			c-0.017-2.618,1.743-4.386,3.516-4.399C168.135,840.422,169.917,842.161,169.934,844.796L169.934,844.796z"/>
		
			<rect x="180.641" y="839.494" transform="matrix(-1 0.0047 -0.0047 -1 368.023 1736.8568)" fill="#FFFFFF" width="2.66" height="58.734"/>
	</g>
</g>
<g>
	<path fill="#1C1511" d="M261.634,966.553c0,20.15-16.455,36.486-36.754,36.486c-20.298,0-36.753-16.336-36.753-36.486
		c0-20.158,16.455-36.499,36.753-36.499C245.178,930.054,261.634,946.395,261.634,966.553z"/>
	<path fill="#FFFFFF" d="M238.769,944.295L238.769,944.295c0,0-7.169,6.231-14.338,13.354v-4.454c0-1.778-1.79-2.668-3.585-2.668
		c-0.895,0-2.685,0.891-2.685,2.668v9.791c-6.27,5.341-12.544,10.682-12.544,10.682c-0.895,0-2.69,0-2.69,0
		c-4.475,0-8.064,3.559-8.064,8.018c0,4.446,3.589,8.005,8.064,8.005h7.169c0,0,34.047-28.482,34.946-29.372
		c0.891,0,1.791,0,1.791,0c4.479,0,8.064-3.559,8.064-8.014c0-4.446-3.585-8.009-8.064-8.009h-8.064V944.295z M246.833,946.963
		c3.58,0,5.375,2.668,5.375,5.341c0,3.563-1.794,5.345-5.375,5.345h-2.69l-34.942,29.372c-0.895,0-6.274,0-6.274,0
		c-2.689,0-5.375-2.668-5.375-5.336s2.685-5.345,5.375-5.345h3.585c0,0,32.257-28.481,33.152-29.377
		C240.563,946.963,246.833,946.963,246.833,946.963L246.833,946.963z M224.43,946.073c0,1.786-1.79,3.559-3.585,3.559
		c-1.786,0-2.685-1.773-2.685-3.559c0-0.891,0.899-2.669,2.685-2.669C222.64,943.404,224.43,945.182,224.43,946.073L224.43,946.073z
		"/>
</g>
<g>
	<path fill="#1C1511" d="M1732.627,243.302c0,20.15-16.455,36.486-36.754,36.486c-20.298,0-36.753-16.336-36.753-36.486
		c0-20.158,16.455-36.499,36.753-36.499C1716.172,206.803,1732.627,223.144,1732.627,243.302z"/>
	<path fill="#FFFFFF" d="M1709.762,221.044L1709.762,221.044c0,0-7.169,6.231-14.338,13.354v-4.454c0-1.778-1.79-2.668-3.585-2.668
		c-0.895,0-2.685,0.891-2.685,2.668v9.791c-6.27,5.341-12.544,10.682-12.544,10.682c-0.895,0-2.69,0-2.69,0
		c-4.475,0-8.064,3.559-8.064,8.018c0,4.446,3.589,8.005,8.064,8.005h7.169c0,0,34.047-28.482,34.946-29.372
		c0.891,0,1.791,0,1.791,0c4.479,0,8.064-3.559,8.064-8.014c0-4.446-3.585-8.009-8.064-8.009h-8.064V221.044z M1717.826,223.712
		c3.58,0,5.375,2.668,5.375,5.341c0,3.563-1.794,5.345-5.375,5.345h-2.69l-34.942,29.372c-0.895,0-6.274,0-6.274,0
		c-2.689,0-5.375-2.668-5.375-5.337c0-2.668,2.685-5.345,5.375-5.345h3.585c0,0,32.257-28.481,33.152-29.377
		C1711.556,223.712,1717.826,223.712,1717.826,223.712L1717.826,223.712z M1695.423,222.822c0,1.786-1.79,3.559-3.585,3.559
		c-1.786,0-2.685-1.773-2.685-3.559c0-0.891,0.899-2.668,2.685-2.668C1693.633,220.153,1695.423,221.931,1695.423,222.822
		L1695.423,222.822z"/>
</g>
</svg>
