<?xml version="1.0" encoding="utf-8"?>
<!-- Generator: Adobe Illustrator 17.0.0, SVG Export Plug-In . SVG Version: 6.00 Build 0)  -->
<!DOCTYPE svg PUBLIC "-//W3C//DTD SVG 1.1//EN" "http://www.w3.org/Graphics/SVG/1.1/DTD/svg11.dtd">
<svg version="1.1" id="图层_1" xmlns="http://www.w3.org/2000/svg" xmlns:xlink="http://www.w3.org/1999/xlink" x="0px" y="0px"
	 width="1920px" height="1280px" viewBox="0 0 1920 1280" enable-background="new 0 0 1920 1280" xml:space="preserve">
<rect x="6.581" y="126" opacity="0.7" fill="#97F5AD" enable-background="new    " width="1907.912" height="1027.751"/>
<rect x="124.846" y="801.193" fill="#CFF9FF" width="67.85" height="59.299"/>
<rect x="202.694" y="801.193" fill="#F4D5BF" width="44.372" height="38.076"/>
<rect x="202.694" y="847.264" fill="#CFF9FF" width="44.372" height="75.529"/>
<rect x="124.846" y="869.111" fill="#CFF9FF" width="67.85" height="53.682"/>
<rect x="124.845" y="931.792" fill="#E2E2E2" width="187.002" height="69.168"/>
<rect x="1597.345" y="208.514" fill="#E2E2E2" width="187.779" height="69.168"/>
<rect x="1712.027" y="286.792" fill="#CFF9FF" width="73.098" height="68"/>
<rect x="1712.027" y="365.792" fill="#CFF9FF" width="73.098" height="56"/>
<rect x="1652.694" y="339.126" fill="#CFF9FF" width="53.098" height="82.667"/>
<polygon fill="#F4D5BF" points="1676.194,286.792 1676.194,311.292 1652.694,311.292 1652.694,329.292 1705.792,329.292 
	1705.792,318.292 1705.792,311.292 1705.792,286.792 "/>
<rect x="842.694" y="419.792" fill="#E2E2E2" width="65.015" height="181.781"/>
<rect x="1016.694" y="514.792" fill="#90CFC8" width="46.5" height="45.5"/>
<rect x="1016.694" y="419.792" fill="#FCFAD3" width="46.5" height="86.5"/>
<rect x="1016.694" y="565.959" fill="#90CFC8" width="46.5" height="45.5"/>
<rect x="1016.694" y="617.126" fill="#90CFC8" width="46.5" height="45.5"/>
<rect x="1016.694" y="668.292" fill="#90CFC8" width="46.5" height="45.5"/>
<rect x="842.694" y="611.459" fill="#FCFAD3" width="65.015" height="102.333"/>
<rect x="124.845" y="208.514" fill="#B6F5FF" width="701.779" height="583.344"/>
<rect x="317.162" y="860.493" fill="#FFE5C0" width="509.463" height="140.467"/>
<rect x="842.694" y="208.514" fill="#FFE5C0" width="742" height="157.278"/>
<rect x="1078.694" y="433.737" fill="#B6F5FF" width="706.431" height="567.223"/>
<rect x="1125.227" y="653.293" fill="none" stroke="#FFFFFF" stroke-width="2" stroke-miterlimit="10" width="150" height="304"/>
<rect x="1589.92" y="653.293" fill="none" stroke="#FFFFFF" stroke-width="2" stroke-miterlimit="10" width="150" height="304"/>
<rect x="1357.573" y="653.293" fill="none" stroke="#FFFFFF" stroke-width="2" stroke-miterlimit="10" width="150" height="304"/>
<rect x="1597.346" y="208.514" fill="none" stroke="#99C4E9" stroke-width="2" stroke-miterlimit="10" width="14.445" height="69.168"/>
<rect x="1611.79" y="208.514" fill="none" stroke="#99C4E9" stroke-width="2" stroke-miterlimit="10" width="14.445" height="69.168"/>
<rect x="1626.235" y="208.514" fill="none" stroke="#99C4E9" stroke-width="2" stroke-miterlimit="10" width="14.445" height="69.168"/>
<rect x="1640.679" y="208.514" fill="none" stroke="#99C4E9" stroke-width="2" stroke-miterlimit="10" width="14.445" height="69.168"/>
<rect x="1655.124" y="208.514" fill="none" stroke="#99C4E9" stroke-width="2" stroke-miterlimit="10" width="14.445" height="69.168"/>
<rect x="1669.568" y="208.514" fill="none" stroke="#99C4E9" stroke-width="2" stroke-miterlimit="10" width="14.445" height="69.168"/>
<rect x="1684.013" y="208.514" fill="none" stroke="#99C4E9" stroke-width="2" stroke-miterlimit="10" width="14.445" height="69.168"/>
<rect x="1698.458" y="208.514" fill="none" stroke="#99C4E9" stroke-width="2" stroke-miterlimit="10" width="14.445" height="69.168"/>
<rect x="1712.902" y="208.514" fill="none" stroke="#99C4E9" stroke-width="2" stroke-miterlimit="10" width="14.445" height="69.168"/>
<rect x="1727.347" y="208.514" fill="none" stroke="#99C4E9" stroke-width="2" stroke-miterlimit="10" width="14.445" height="69.168"/>
<rect x="1741.791" y="208.514" fill="none" stroke="#99C4E9" stroke-width="2" stroke-miterlimit="10" width="14.445" height="69.168"/>
<rect x="1756.236" y="208.514" fill="none" stroke="#99C4E9" stroke-width="2" stroke-miterlimit="10" width="14.445" height="69.168"/>
<rect x="1770.68" y="208.514" fill="none" stroke="#99C4E9" stroke-width="2" stroke-miterlimit="10" width="14.445" height="69.168"/>
<rect x="124.845" y="931.792" fill="none" stroke="#99C4E9" stroke-width="2" stroke-miterlimit="10" width="14.445" height="69.168"/>
<rect x="139.29" y="931.792" fill="none" stroke="#99C4E9" stroke-width="2" stroke-miterlimit="10" width="14.445" height="69.168"/>
<rect x="153.735" y="931.792" fill="none" stroke="#99C4E9" stroke-width="2" stroke-miterlimit="10" width="14.445" height="69.168"/>
<rect x="168.179" y="931.792" fill="none" stroke="#99C4E9" stroke-width="2" stroke-miterlimit="10" width="14.445" height="69.168"/>
<rect x="182.624" y="931.792" fill="none" stroke="#99C4E9" stroke-width="2" stroke-miterlimit="10" width="14.445" height="69.168"/>
<rect x="197.068" y="931.792" fill="none" stroke="#99C4E9" stroke-width="2" stroke-miterlimit="10" width="14.445" height="69.168"/>
<rect x="211.513" y="931.792" fill="none" stroke="#99C4E9" stroke-width="2" stroke-miterlimit="10" width="14.445" height="69.168"/>
<rect x="225.957" y="931.792" fill="none" stroke="#99C4E9" stroke-width="2" stroke-miterlimit="10" width="14.445" height="69.168"/>
<rect x="240.402" y="931.792" fill="none" stroke="#99C4E9" stroke-width="2" stroke-miterlimit="10" width="14.445" height="69.168"/>
<rect x="254.847" y="931.792" fill="none" stroke="#99C4E9" stroke-width="2" stroke-miterlimit="10" width="14.445" height="69.168"/>
<rect x="269.291" y="931.792" fill="none" stroke="#99C4E9" stroke-width="2" stroke-miterlimit="10" width="14.445" height="69.168"/>
<rect x="283.736" y="931.792" fill="none" stroke="#99C4E9" stroke-width="2" stroke-miterlimit="10" width="14.445" height="69.168"/>
<rect x="298.18" y="931.792" fill="none" stroke="#99C4E9" stroke-width="2" stroke-miterlimit="10" width="14.445" height="69.168"/>
<rect x="842.694" y="419.792" fill="none" stroke="#99C4E9" stroke-width="2" stroke-miterlimit="10" width="65.015" height="14.445"/>
<rect x="842.694" y="433.737" fill="none" stroke="#99C4E9" stroke-width="2" stroke-miterlimit="10" width="65.015" height="14.445"/>
<rect x="842.694" y="447.682" fill="none" stroke="#99C4E9" stroke-width="2" stroke-miterlimit="10" width="65.015" height="14.445"/>
<rect x="842.694" y="461.627" fill="none" stroke="#99C4E9" stroke-width="2" stroke-miterlimit="10" width="65.015" height="14.445"/>
<rect x="842.694" y="475.571" fill="none" stroke="#99C4E9" stroke-width="2" stroke-miterlimit="10" width="65.015" height="14.445"/>
<rect x="842.694" y="489.516" fill="none" stroke="#99C4E9" stroke-width="2" stroke-miterlimit="10" width="65.015" height="14.445"/>
<rect x="842.694" y="503.461" fill="none" stroke="#99C4E9" stroke-width="2" stroke-miterlimit="10" width="65.015" height="14.445"/>
<rect x="842.694" y="517.406" fill="none" stroke="#99C4E9" stroke-width="2" stroke-miterlimit="10" width="65.015" height="14.445"/>
<rect x="842.694" y="531.35" fill="none" stroke="#99C4E9" stroke-width="2" stroke-miterlimit="10" width="65.015" height="14.445"/>
<rect x="842.694" y="545.295" fill="none" stroke="#99C4E9" stroke-width="2" stroke-miterlimit="10" width="65.015" height="14.445"/>
<rect x="842.694" y="559.24" fill="none" stroke="#99C4E9" stroke-width="2" stroke-miterlimit="10" width="65.015" height="14.445"/>
<rect x="842.694" y="573.185" fill="none" stroke="#99C4E9" stroke-width="2" stroke-miterlimit="10" width="65.015" height="14.445"/>
<rect x="842.694" y="587.129" fill="none" stroke="#99C4E9" stroke-width="2" stroke-miterlimit="10" width="65.015" height="14.445"/>
<g>
	<path fill="#1C1511" d="M911.955,524.635c0,20.15-16.455,36.486-36.754,36.486c-20.298,0-36.753-16.336-36.753-36.486
		c0-20.158,16.455-36.499,36.753-36.499C895.5,488.136,911.955,504.476,911.955,524.635z"/>
	<path fill="#FFFFFF" d="M889.09,502.377L889.09,502.377c0,0-7.169,6.231-14.338,13.354v-4.454c0-1.778-1.79-2.668-3.585-2.668
		c-0.895,0-2.685,0.891-2.685,2.668v9.791c-6.27,5.341-12.544,10.682-12.544,10.682c-0.895,0-2.69,0-2.69,0
		c-4.475,0-8.064,3.559-8.064,8.018c0,4.446,3.589,8.005,8.064,8.005h7.169c0,0,34.047-28.482,34.946-29.372
		c0.891,0,1.791,0,1.791,0c4.479,0,8.064-3.559,8.064-8.014c0-4.446-3.585-8.009-8.064-8.009L889.09,502.377L889.09,502.377z
		 M897.155,505.045c3.58,0,5.375,2.668,5.375,5.341c0,3.563-1.794,5.345-5.375,5.345h-2.69l-34.942,29.372c-0.895,0-6.274,0-6.274,0
		c-2.689,0-5.375-2.668-5.375-5.336s2.685-5.345,5.375-5.345h3.585c0,0,32.257-28.481,33.152-29.377
		C890.885,505.045,897.155,505.045,897.155,505.045L897.155,505.045z M874.752,504.154c0,1.786-1.79,3.559-3.585,3.559
		c-1.786,0-2.685-1.773-2.685-3.559c0-0.891,0.899-2.668,2.685-2.668C872.962,501.486,874.752,503.263,874.752,504.154
		L874.752,504.154z"/>
</g>
<g>
	<path fill="#1C1511" d="M262.712,966.382c0,20.15-16.455,36.486-36.754,36.486c-20.298,0-36.753-16.336-36.753-36.486
		c0-20.158,16.455-36.499,36.753-36.499S262.712,946.224,262.712,966.382z"/>
	<path fill="#FFFFFF" d="M239.847,944.124L239.847,944.124c0,0-7.169,6.231-14.338,13.354v-4.454c0-1.778-1.79-2.668-3.585-2.668
		c-0.895,0-2.685,0.891-2.685,2.668v9.791c-6.27,5.341-12.544,10.682-12.544,10.682c-0.895,0-2.69,0-2.69,0
		c-4.475,0-8.064,3.559-8.064,8.018c0,4.446,3.589,8.005,8.064,8.005h7.169c0,0,34.047-28.482,34.946-29.372
		c0.891,0,1.791,0,1.791,0c4.479,0,8.064-3.559,8.064-8.014c0-4.446-3.585-8.009-8.064-8.009h-8.064V944.124z M247.911,946.792
		c3.58,0,5.375,2.668,5.375,5.341c0,3.563-1.794,5.345-5.375,5.345h-2.69l-34.942,29.372c-0.895,0-6.274,0-6.274,0
		c-2.689,0-5.375-2.668-5.375-5.336s2.685-5.345,5.375-5.345h3.585c0,0,32.257-28.481,33.152-29.377
		C241.641,946.792,247.911,946.792,247.911,946.792L247.911,946.792z M225.508,945.902c0,1.786-1.79,3.559-3.585,3.559
		c-1.786,0-2.685-1.773-2.685-3.559c0-0.891,0.899-2.669,2.685-2.669C223.718,943.233,225.508,945.011,225.508,945.902
		L225.508,945.902z"/>
</g>
<g>
	<path fill="#1C1511" d="M1727.989,243.104c0,20.15-16.455,36.486-36.754,36.486c-20.298,0-36.753-16.336-36.753-36.486
		c0-20.158,16.455-36.499,36.753-36.499C1711.534,206.605,1727.989,222.946,1727.989,243.104z"/>
	<path fill="#FFFFFF" d="M1705.124,220.846L1705.124,220.846c0,0-7.169,6.231-14.338,13.354v-4.454c0-1.778-1.79-2.668-3.585-2.668
		c-0.895,0-2.685,0.891-2.685,2.668v9.791c-6.27,5.341-12.544,10.682-12.544,10.682c-0.895,0-2.69,0-2.69,0
		c-4.475,0-8.064,3.559-8.064,8.018c0,4.446,3.589,8.005,8.064,8.005h7.169c0,0,34.047-28.482,34.946-29.372
		c0.891,0,1.791,0,1.791,0c4.479,0,8.064-3.559,8.064-8.014c0-4.446-3.585-8.009-8.064-8.009h-8.064V220.846z M1713.188,223.514
		c3.58,0,5.375,2.668,5.375,5.341c0,3.563-1.794,5.345-5.375,5.345h-2.69l-34.942,29.372c-0.895,0-6.274,0-6.274,0
		c-2.689,0-5.375-2.668-5.375-5.337c0-2.668,2.685-5.345,5.375-5.345h3.585c0,0,32.257-28.481,33.152-29.377
		C1706.918,223.514,1713.188,223.514,1713.188,223.514L1713.188,223.514z M1690.786,222.624c0,1.786-1.79,3.559-3.585,3.559
		c-1.786,0-2.685-1.773-2.685-3.559c0-0.891,0.899-2.668,2.685-2.668C1688.995,219.955,1690.786,221.733,1690.786,222.624
		L1690.786,222.624z"/>
</g>
<g>
	<path d="M1004.658,615.849c-0.182,19.772-16.633,35.659-36.75,35.468c-20.116-0.191-36.279-16.383-36.104-36.168
		c0.182-19.777,16.633-35.659,36.749-35.468C988.669,579.868,1004.84,596.064,1004.658,615.849z"/>
	<path fill="#FFFFFF" d="M971.892,639.138l-3.907,3.767l-3.835-4.611l0.038-3.042l3.067,3.071l0.034-3.797l2.321,0.021l-0.038,3.801
		l2.346-2.261L971.892,639.138z M964.566,592.619l3.911-4.53l3.826,4.607l-0.025,3.046l-2.291-3.067l-0.03,3.801l-3.101-0.021
		l0.034-3.809l-2.341,2.257L964.566,592.619z M962.02,617.724c0,0-0.784,0.751-1.557,0.742l-0.768-0.772l0.085-9.134
		c0,0,0.793-1.514,2.346-2.261l5.421,0.055c0,0,0.768,0.009,1.531,1.54l1.523,2.291c0,0,0.759,0.776,0.776,0.013l1.557-1.506
		c0.772,0.004,1.549,0.013,1.549,0.013c0.764,0.772,0.764,0.772-0.017,1.519l-2.346,3.024c0,0-0.776,0.751-2.32-0.021l-2.282-3.831
		l-0.179,19.035c-0.004,0.763-0.789,1.514-0.789,1.514c-0.772-0.004-1.544-0.776-1.531-1.536l0.097-10.66
		c0,0-0.768-0.764-0.776-0.004l-0.093,10.656c-0.013,0.764-0.013,1.532-0.789,1.515c-0.776-0.009-1.544-0.772-1.536-1.536
		l0.178-19.03c0,0,0,0-0.013,0.755L962.02,617.724z M977.512,615.586c-0.004,0.764-0.013,1.519-0.785,1.515
		c0,0-0.764-0.768-0.755-1.532l0.776-0.755C977.525,614.822,977.512,615.586,977.512,615.586L977.512,615.586z M977.542,612.541
		c0,0-0.004,0.763-0.785,0.751l-0.759-0.768c0.004-0.76,0.785-1.515,0.785-1.515C977.555,611.018,977.547,611.781,977.542,612.541
		L977.542,612.541z M977.572,609.499c-0.013,0.755-0.013,0.755-0.781,0.746c0,0-0.772,0-0.764-0.768
		c0.009-0.759,0.777-0.759,0.777-0.759C977.576,608.731,977.576,608.731,977.572,609.499L977.572,609.499z M977.606,605.689
		c0,0.764,0,0.764-0.785,0.755c0,0-0.768-0.013-0.764-0.772s0.781-0.751,0.781-0.751
		C977.614,604.934,977.614,604.934,977.606,605.689L977.606,605.689z M966.78,604.06c0,0.764-0.784,1.519-2.329,1.506
		c-0.772-0.009-1.544-0.781-1.535-1.54c0.013-1.523,0.797-2.278,1.574-2.27C966.034,601.77,966.805,602.542,966.78,604.06
		L966.78,604.06z M981.538,598.872l-27.086-0.259l-0.306,34.268l28.626,0.258l0.31-34.255L981.538,598.872z M980.749,600.387
		c-0.013,2.287-0.259,28.935-0.276,30.454c-2.325-0.03-22.437-0.212-24.766-0.237c0.017-1.519,0.263-28.168,0.28-30.45
		C958.304,600.183,978.429,600.365,980.749,600.387L980.749,600.387z M991.965,643.126l-7.733-0.072l0.492-54.808l7.738,0.068
		L991.965,643.126z M951.738,642.753l-7.733-0.072l0.488-54.812l7.737,0.063L951.738,642.753z"/>
</g>
<g>
	<path fill="#1C1511" d="M1748.346,354.61c0.098,19.849-16.077,36.02-36.138,36.121c-20.057,0.098-36.397-15.916-36.499-35.761
		c-0.093-19.849,16.086-36.015,36.147-36.117C1731.911,318.747,1748.248,334.761,1748.346,354.61z"/>
	<g>
		<path fill="#FFFFFF" d="M1733.872,331.893c0.009,2.63-1.752,4.39-4.407,4.403c-2.656,0.008-4.433-1.731-4.45-4.361
			c-0.013-2.63,1.752-4.391,4.407-4.403C1732.073,327.52,1733.855,329.263,1733.872,331.893L1733.872,331.893z"/>
		<path fill="#FFFFFF" d="M1688.837,357.532c0.009,0.878-0.874,1.761-1.76,1.765c-0.883,0-1.778-0.874-1.778-1.748l-0.085-17.528
			c0,0,0.866-4.387,4.403-4.408l10.631-0.051c0,0,4.42-0.021,4.441,4.361l0.089,17.533c0,0.878-0.878,1.752-1.765,1.76
			c-0.887,0.004-1.773-0.87-1.782-1.743l-0.076-15.777c0,0-0.891-0.878-0.878,0.883l0.182,38.569
			c0.013,1.748-0.861,2.626-2.638,2.643c-0.882,0-1.777-0.874-1.782-2.626l-0.11-22.789c0,0-0.891-0.878-0.887,0l0.107,22.793
			c0.012,1.752-1.756,2.639-2.643,2.643c-0.878,0.004-2.656-0.87-2.669-2.617l-0.187-38.565c0,0-0.004-0.878-0.882,0.004
			L1688.837,357.532z"/>
		<path fill="#FFFFFF" d="M1736.561,340.641l0.059,9.647l2.681,6.121c0.891,0.874,0.009,1.756-0.874,1.761
			c-0.887,0.878-1.773,0.009-1.781-0.87l-2.685-6.121l-0.025-7.012c-0.013-0.882-0.895,0-0.895,0l0.038,7.012l6.278,16.621
			l-6.197,0.03l0.072,14.033c0.004,0.874-0.878,1.756-1.765,1.756c-0.882,0.009-1.773-0.861-1.778-1.739l-0.063-13.15
			c-0.009-0.87-0.891-0.87-0.891-0.87l0.064,14.02c0.009,0.878-0.869,1.761-1.76,1.765c-0.887,0.008-1.778-0.87-1.778-1.744
			l-0.068-14.024l-6.202,0.026l7.008-16.685l-0.042-7.012h-0.883l0.038,7.012l-2.626,6.151c-0.882,0.883-1.765,1.761-2.656,0.895
			c-0.882,0.004-0.891-0.878-0.891-1.756l2.626-6.143l-0.043-8.768c0.87-3.512,4.403-4.403,4.403-4.403
			c0.891,1.748,1.786,2.622,3.555,2.613s2.647-0.895,3.53-2.652C1733.011,337.153,1736.553,338.01,1736.561,340.641
			L1736.561,340.641z"/>
		<path fill="#FFFFFF" d="M1699.337,330.307c0.009,1.756-1.761,3.516-4.416,3.533c-1.769,0.009-3.546-1.739-3.555-3.499
			c-0.017-2.618,1.743-4.387,3.516-4.399C1697.538,325.933,1699.32,327.672,1699.337,330.307L1699.337,330.307z"/>
		
			<rect x="1710.079" y="325.054" transform="matrix(-1 0.0047 -0.0047 -1 3424.4658 700.795)" fill="#FFFFFF" width="2.66" height="58.734"/>
	</g>
</g>
<g>
	<path fill="#1C1511" d="M229.015,860.31c0.098,19.849-16.077,36.02-36.138,36.121c-20.057,0.098-36.397-15.916-36.499-35.761
		c-0.093-19.849,16.086-36.015,36.147-36.117C212.581,824.447,228.917,840.461,229.015,860.31z"/>
	<g>
		<path fill="#FFFFFF" d="M214.541,837.593c0.009,2.63-1.752,4.39-4.407,4.403c-2.656,0.008-4.433-1.731-4.45-4.361
			c-0.013-2.63,1.752-4.391,4.407-4.403C212.742,833.22,214.524,834.963,214.541,837.593L214.541,837.593z"/>
		<path fill="#FFFFFF" d="M169.506,863.232c0.009,0.878-0.874,1.761-1.76,1.765c-0.883,0-1.778-0.874-1.778-1.748l-0.085-17.528
			c0,0,0.866-4.386,4.403-4.408l10.631-0.051c0,0,4.42-0.021,4.441,4.361l0.089,17.533c0,0.878-0.878,1.752-1.765,1.76
			c-0.887,0.004-1.773-0.87-1.782-1.743l-0.076-15.777c0,0-0.891-0.878-0.878,0.883l0.182,38.569
			c0.013,1.748-0.861,2.626-2.639,2.643c-0.882,0-1.777-0.874-1.782-2.626l-0.11-22.789c0,0-0.891-0.878-0.887,0l0.107,22.793
			c0.012,1.752-1.756,2.639-2.643,2.643c-0.878,0.004-2.656-0.87-2.668-2.617l-0.187-38.565c0,0-0.004-0.878-0.882,0.004
			L169.506,863.232z"/>
		<path fill="#FFFFFF" d="M217.23,846.341l0.059,9.647l2.681,6.121c0.891,0.874,0.009,1.756-0.874,1.761
			c-0.887,0.878-1.773,0.009-1.781-0.87l-2.685-6.121l-0.025-7.012c-0.013-0.882-0.895,0-0.895,0l0.038,7.012l6.278,16.621
			l-6.197,0.03l0.072,14.033c0.004,0.874-0.878,1.756-1.765,1.756c-0.882,0.009-1.773-0.861-1.778-1.739l-0.063-13.15
			c-0.009-0.87-0.891-0.87-0.891-0.87l0.064,14.02c0.009,0.878-0.869,1.761-1.76,1.765c-0.887,0.008-1.778-0.87-1.778-1.744
			l-0.068-14.024l-6.202,0.026l7.008-16.685l-0.042-7.012h-0.883l0.038,7.012l-2.626,6.151c-0.882,0.883-1.764,1.761-2.655,0.895
			c-0.882,0.004-0.891-0.878-0.891-1.756l2.626-6.143l-0.043-8.768c0.87-3.512,4.403-4.403,4.403-4.403
			c0.891,1.748,1.786,2.622,3.555,2.613c1.769-0.009,2.647-0.895,3.529-2.652C213.68,842.853,217.222,843.71,217.23,846.341
			L217.23,846.341z"/>
		<path fill="#FFFFFF" d="M180.006,836.007c0.009,1.756-1.761,3.516-4.416,3.533c-1.769,0.009-3.546-1.739-3.555-3.499
			c-0.017-2.618,1.743-4.386,3.516-4.399C178.207,831.633,179.989,833.372,180.006,836.007L180.006,836.007z"/>
		
			<rect x="190.713" y="830.705" transform="matrix(-1 0.0047 -0.0047 -1 388.1264 1719.2321)" fill="#FFFFFF" width="2.66" height="58.734"/>
	</g>
</g>
<g>
	<path fill="#148865" d="M863.102,397.693c-0.089,20.591-16.485,37.216-36.635,37.136c-20.141-0.093-36.41-16.85-36.321-37.432
		c0.085-20.591,16.485-37.216,36.635-37.135C846.927,360.345,863.187,377.106,863.102,397.693z"/>
	<path fill="#FFFFFF" d="M855.101,391.75l-35.561-0.144l13.392-13.583l-15.119-0.063l-19.645,19.013l19.48,20.087l16.009,0.068
		l-15.059-14.619l36.461,0.157L855.101,391.75z"/>
</g>
<g>
	<path fill="#148865" d="M1036.4,782.799c0.089-20.591,16.485-37.216,36.635-37.136c20.141,0.093,36.41,16.85,36.321,37.432
		c-0.085,20.591-16.485,37.216-36.635,37.135C1052.575,820.146,1036.315,803.385,1036.4,782.799z"/>
	<path fill="#FFFFFF" d="M1044.401,788.742l35.562,0.144l-13.392,13.583l15.119,0.063l19.645-19.013l-19.48-20.087l-16.01-0.068
		l15.059,14.619l-36.461-0.157L1044.401,788.742z"/>
</g>
<g>
	<path fill="#148865" d="M1597.493,404.482c20.592,0.089,37.216,16.485,37.136,36.635c-0.093,20.141-16.85,36.41-37.432,36.321
		c-20.591-0.085-37.216-16.485-37.135-36.635C1560.146,420.657,1576.906,404.396,1597.493,404.482z"/>
	<path fill="#FFFFFF" d="M1591.55,412.482l-0.144,35.561l-13.583-13.392l-0.063,15.119l19.013,19.645l20.087-19.48l0.068-16.009
		l-14.619,15.059l0.157-36.461L1591.55,412.482z"/>
</g>
<g>
	<path fill="#148865" d="M298.033,828.336c-20.591-0.089-37.216-16.485-37.136-36.635c0.093-20.141,16.85-36.41,37.432-36.321
		c20.591,0.085,37.216,16.485,37.135,36.635C335.38,812.161,318.62,828.421,298.033,828.336z"/>
	<path fill="#FFFFFF" d="M303.976,820.335l0.144-35.561l13.583,13.392l0.063-15.119l-19.013-19.645l-20.087,19.48l-0.068,16.01
		l14.619-15.06l-0.157,36.461L303.976,820.335z"/>
</g>
</svg>
