<?xml version="1.0" encoding="utf-8"?>
<!-- Generator: Adobe Illustrator 17.0.0, SVG Export Plug-In . SVG Version: 6.00 Build 0)  -->
<!DOCTYPE svg PUBLIC "-//W3C//DTD SVG 1.1//EN" "http://www.w3.org/Graphics/SVG/1.1/DTD/svg11.dtd">
<svg version="1.1" id="图层_1" xmlns="http://www.w3.org/2000/svg" xmlns:xlink="http://www.w3.org/1999/xlink" x="0px" y="0px"
	 width="1292.763px" height="1280px" viewBox="0 0 1292.763 1280" enable-background="new 0 0 1292.763 1280" xml:space="preserve">
<path opacity="0.7" fill="#97F5AD" enable-background="new    " d="M1,498.193v384.135l222.478,222.478
	c0,0,236.883-44.816,318.512-41.615c63.484-0.622,273.696,41.615,280.098,44.816l28.04-58.751c0,0,74.396,91.866,210.443,90.763
	c113.173-0.917,196.869-86.43,220.878-192.067c16.455-72.403,0-65.623,0-65.623l-22.408-14.405l-1.601-44.015l18.006-1.601
	l-0.399-325.714H850.898v108.838H261.892V498.193H1z"/>
<g>
	<g>
		<rect x="61.215" y="511.818" fill="#E2E2E2" width="168.629" height="38.305"/>
		
			<rect x="61.215" y="511.818" fill="none" stroke="#99C4E9" stroke-width="2" stroke-miterlimit="10" width="13.026" height="38.305"/>
		
			<rect x="74.241" y="511.818" fill="none" stroke="#99C4E9" stroke-width="2" stroke-miterlimit="10" width="13.026" height="38.305"/>
		
			<rect x="87.267" y="511.818" fill="none" stroke="#99C4E9" stroke-width="2" stroke-miterlimit="10" width="13.026" height="38.305"/>
		
			<rect x="100.29" y="511.818" fill="none" stroke="#99C4E9" stroke-width="2" stroke-miterlimit="10" width="13.026" height="38.305"/>
		
			<rect x="113.316" y="511.818" fill="none" stroke="#99C4E9" stroke-width="2" stroke-miterlimit="10" width="13.026" height="38.305"/>
		
			<rect x="126.341" y="511.818" fill="none" stroke="#99C4E9" stroke-width="2" stroke-miterlimit="10" width="13.026" height="38.305"/>
		
			<rect x="139.367" y="511.818" fill="none" stroke="#99C4E9" stroke-width="2" stroke-miterlimit="10" width="13.026" height="38.305"/>
		
			<rect x="152.391" y="511.818" fill="none" stroke="#99C4E9" stroke-width="2" stroke-miterlimit="10" width="13.026" height="38.305"/>
		
			<rect x="165.417" y="511.818" fill="none" stroke="#99C4E9" stroke-width="2" stroke-miterlimit="10" width="13.026" height="38.305"/>
		
			<rect x="178.443" y="511.818" fill="none" stroke="#99C4E9" stroke-width="2" stroke-miterlimit="10" width="13.026" height="38.305"/>
		
			<rect x="191.469" y="511.818" fill="none" stroke="#99C4E9" stroke-width="2" stroke-miterlimit="10" width="13.026" height="38.305"/>
		
			<rect x="204.495" y="511.818" fill="none" stroke="#99C4E9" stroke-width="2" stroke-miterlimit="10" width="13.026" height="38.305"/>
		
			<rect x="217.519" y="511.818" fill="none" stroke="#99C4E9" stroke-width="2" stroke-miterlimit="10" width="13.026" height="38.305"/>
	</g>
	<g>
		<rect x="60.864" y="558.107" fill="#E2E2E2" width="168.629" height="38.305"/>
		
			<rect x="60.864" y="558.107" fill="none" stroke="#99C4E9" stroke-width="2" stroke-miterlimit="10" width="13.026" height="38.305"/>
		
			<rect x="73.889" y="558.107" fill="none" stroke="#99C4E9" stroke-width="2" stroke-miterlimit="10" width="13.026" height="38.305"/>
		
			<rect x="86.915" y="558.107" fill="none" stroke="#99C4E9" stroke-width="2" stroke-miterlimit="10" width="13.026" height="38.305"/>
		
			<rect x="99.938" y="558.107" fill="none" stroke="#99C4E9" stroke-width="2" stroke-miterlimit="10" width="13.026" height="38.305"/>
		
			<rect x="112.964" y="558.107" fill="none" stroke="#99C4E9" stroke-width="2" stroke-miterlimit="10" width="13.026" height="38.305"/>
		
			<rect x="125.991" y="558.107" fill="none" stroke="#99C4E9" stroke-width="2" stroke-miterlimit="10" width="13.026" height="38.305"/>
		
			<rect x="139.017" y="558.107" fill="none" stroke="#99C4E9" stroke-width="2" stroke-miterlimit="10" width="13.026" height="38.305"/>
		
			<rect x="152.04" y="558.107" fill="none" stroke="#99C4E9" stroke-width="2" stroke-miterlimit="10" width="13.026" height="38.305"/>
		
			<rect x="165.066" y="558.107" fill="none" stroke="#99C4E9" stroke-width="2" stroke-miterlimit="10" width="13.026" height="38.305"/>
		
			<rect x="178.092" y="558.107" fill="none" stroke="#99C4E9" stroke-width="2" stroke-miterlimit="10" width="13.026" height="38.305"/>
		
			<rect x="191.119" y="558.107" fill="none" stroke="#99C4E9" stroke-width="2" stroke-miterlimit="10" width="13.026" height="38.305"/>
		
			<rect x="204.145" y="558.107" fill="none" stroke="#99C4E9" stroke-width="2" stroke-miterlimit="10" width="13.026" height="38.305"/>
		
			<rect x="217.168" y="558.107" fill="none" stroke="#99C4E9" stroke-width="2" stroke-miterlimit="10" width="13.026" height="38.305"/>
	</g>
</g>
<rect x="18.606" y="619.836" fill="#E6FFE6" width="161.657" height="236.883"/>
<polygon fill="#FFE5C0" points="20.328,867.923 177.062,867.923 177.062,1034.381 "/>
<rect x="1050.673" y="695.014" fill="#90CFC8" width="12.416" height="325.486"/>
<rect x="1102.054" y="888.923" fill="#B6F5FF" width="159.384" height="72.025"/>
<rect x="1105.563" y="974.563" fill="#B6F5FF" width="111.368" height="52.819"/>
<g>
	<path d="M1220.689,591.082c-0.239,26.007-21.879,46.904-48.339,46.653c-26.459-0.252-47.719-21.549-47.489-47.573
		c0.239-26.014,21.879-46.904,48.338-46.653C1199.658,543.754,1220.93,565.058,1220.689,591.082z"/>
	<path fill="#FFFFFF" d="M1177.591,621.714l-5.139,4.955l-5.045-6.066l0.05-4.001l4.034,4.04l0.045-4.994l3.053,0.028l-0.05,4.999
		l3.086-2.974L1177.591,621.714z M1167.955,560.526l5.144-5.959l5.032,6.059l-0.033,4.006l-3.014-4.034l-0.039,4.999l-4.079-0.028
		l0.045-5.011l-3.079,2.969L1167.955,560.526z M1164.606,593.548c0,0-1.031,0.988-2.048,0.976l-1.01-1.016l0.112-12.014
		c0,0,1.044-1.992,3.086-2.974l7.131,0.073c0,0,1.01,0.011,2.014,2.026l2.003,3.014c0,0,0.998,1.021,1.021,0.018l2.048-1.98
		c1.016,0.005,2.037,0.018,2.037,0.018c1.005,1.016,1.005,1.016-0.023,1.998l-3.086,3.977c0,0-1.021,0.988-3.052-0.028l-3.001-5.04
		l-0.235,25.037c-0.005,1.003-1.037,1.992-1.037,1.992c-1.016-0.005-2.031-1.021-2.014-2.021l0.128-14.021
		c0,0-1.01-1.005-1.021-0.005l-0.122,14.016c-0.018,1.005-0.018,2.016-1.037,1.993c-1.021-0.011-2.031-1.016-2.021-2.021
		l0.234-25.031c0,0,0,0-0.018,0.993L1164.606,593.548z M1184.983,590.736c-0.005,1.005-0.018,1.998-1.032,1.993
		c0,0-1.005-1.01-0.993-2.016l1.021-0.993C1185.001,589.73,1184.983,590.736,1184.983,590.736L1184.983,590.736z M1185.022,586.73
		c0,0-0.005,1.003-1.032,0.988l-0.998-1.01c0.005-1,1.032-1.993,1.032-1.993C1185.04,584.727,1185.029,585.73,1185.022,586.73
		L1185.022,586.73z M1185.063,582.729c-0.018,0.993-0.018,0.993-1.027,0.981c0,0-1.016,0-1.005-1.01
		c0.011-0.998,1.022-0.998,1.022-0.998C1185.068,581.719,1185.068,581.719,1185.063,582.729L1185.063,582.729z M1185.107,577.717
		c0,1.005,0,1.005-1.032,0.993c0,0-1.01-0.018-1.005-1.016s1.027-0.988,1.027-0.988
		C1185.118,576.725,1185.118,576.725,1185.107,577.717L1185.107,577.717z M1170.867,575.575c0,1.005-1.031,1.998-3.063,1.98
		c-1.016-0.011-2.031-1.027-2.019-2.026c0.018-2.003,1.049-2.996,2.071-2.986C1169.886,572.563,1170.9,573.578,1170.867,575.575
		L1170.867,575.575z M1190.28,568.751l-35.628-0.341l-0.402,45.075l37.654,0.339l0.407-45.057L1190.28,568.751z M1189.241,570.744
		c-0.018,3.008-0.341,38.06-0.363,40.058c-3.058-0.039-29.512-0.279-32.576-0.312c0.023-1.998,0.346-37.05,0.369-40.053
		C1159.718,570.476,1186.189,570.715,1189.241,570.744L1189.241,570.744z M1203.994,626.96l-10.171-0.094l0.648-72.092l10.178,0.089
		L1203.994,626.96z M1151.082,626.47l-10.171-0.094l0.641-72.097l10.177,0.083L1151.082,626.47z"/>
</g>
<g>
	<rect x="1161.246" y="683.754" fill="#CFF9FF" width="86.721" height="80.672"/>
	<rect x="1161.246" y="777.477" fill="#CFF9FF" width="86.721" height="66.436"/>
	<rect x="1090.855" y="745.842" fill="#CFF9FF" width="62.994" height="98.073"/>
	<polygon fill="#F4D5BF" points="1118.735,683.754 1118.735,712.821 1090.855,712.821 1090.855,734.174 1153.849,734.174 
		1153.849,721.124 1153.849,712.821 1153.849,683.754 	"/>
	<g>
		<path fill="#1C1511" d="M1204.334,764.211c0.116,23.548-19.073,42.733-42.872,42.853c-23.795,0.116-43.18-18.883-43.301-42.426
			c-0.11-23.548,19.084-42.727,42.884-42.848C1184.836,721.664,1204.218,740.663,1204.334,764.211z"/>
		<g>
			<path fill="#FFFFFF" d="M1187.163,737.26c0.012,3.12-2.078,5.208-5.228,5.224c-3.151,0.01-5.259-2.053-5.28-5.174
				c-0.015-3.12,2.078-5.21,5.228-5.224C1185.028,732.072,1187.142,734.14,1187.163,737.26L1187.163,737.26z"/>
			<path fill="#FFFFFF" d="M1133.734,767.678c0.011,1.042-1.037,2.089-2.088,2.094c-1.047,0-2.109-1.037-2.109-2.073l-0.102-20.794
				c0,0,1.028-5.205,5.224-5.229l12.612-0.061c0,0,5.244-0.025,5.268,5.174l0.106,20.801c0,1.042-1.042,2.078-2.094,2.088
				c-1.052,0.005-2.104-1.032-2.114-2.068l-0.09-18.718c0,0-1.057-1.042-1.042,1.047l0.216,45.757
				c0.015,2.073-1.021,3.115-3.13,3.135c-1.045,0-2.107-1.037-2.114-3.115l-0.131-27.036c0,0-1.057-1.042-1.052,0l0.128,27.041
				c0.015,2.078-2.083,3.132-3.135,3.135c-1.042,0.005-3.151-1.032-3.166-3.105l-0.223-45.752c0,0-0.005-1.042-1.047,0.005
				L1133.734,767.678z"/>
			<path fill="#FFFFFF" d="M1190.352,747.638l0.07,11.445l3.181,7.261c1.057,1.037,0.011,2.083-1.037,2.089
				c-1.052,1.042-2.104,0.01-2.112-1.032l-3.186-7.261l-0.03-8.318c-0.015-1.047-1.062,0-1.062,0l0.046,8.318l7.448,19.719
				l-7.351,0.036l0.085,16.648c0.005,1.037-1.042,2.083-2.094,2.083c-1.047,0.01-2.104-1.021-2.109-2.063l-0.075-15.601
				c-0.011-1.032-1.057-1.032-1.057-1.032l0.075,16.633c0.011,1.042-1.031,2.089-2.088,2.094c-1.052,0.01-2.109-1.032-2.109-2.07
				l-0.08-16.638l-7.358,0.031l8.313-19.794l-0.049-8.318h-1.047l0.046,8.318l-3.115,7.297c-1.047,1.047-2.094,2.089-3.151,1.062
				c-1.047,0.005-1.057-1.042-1.057-2.083l3.115-7.287l-0.051-10.403c1.032-4.167,5.224-5.224,5.224-5.224
				c1.057,2.073,2.119,3.11,4.218,3.101c2.099-0.01,3.14-1.062,4.189-3.146C1186.14,743.5,1190.344,744.518,1190.352,747.638
				L1190.352,747.638z"/>
			<path fill="#FFFFFF" d="M1146.192,735.378c0.011,2.083-2.089,4.171-5.239,4.192c-2.099,0.011-4.207-2.063-4.218-4.151
				c-0.02-3.105,2.068-5.205,4.171-5.219C1144.057,730.19,1146.171,732.253,1146.192,735.378L1146.192,735.378z"/>
			
				<rect x="1158.918" y="729.143" transform="matrix(1 -0.0047 0.0047 1 -3.5779 5.4627)" fill="#FFFFFF" width="3.156" height="69.685"/>
		</g>
	</g>
</g>
<g>
	<g>
		<rect x="881.343" y="515.81" fill="#E2E2E2" width="168.629" height="38.305"/>
		
			<rect x="881.343" y="515.81" fill="none" stroke="#99C4E9" stroke-width="2" stroke-miterlimit="10" width="13.026" height="38.305"/>
		
			<rect x="894.369" y="515.81" fill="none" stroke="#99C4E9" stroke-width="2" stroke-miterlimit="10" width="13.026" height="38.305"/>
		
			<rect x="907.395" y="515.81" fill="none" stroke="#99C4E9" stroke-width="2" stroke-miterlimit="10" width="13.026" height="38.305"/>
		
			<rect x="920.419" y="515.81" fill="none" stroke="#99C4E9" stroke-width="2" stroke-miterlimit="10" width="13.026" height="38.305"/>
		
			<rect x="933.445" y="515.81" fill="none" stroke="#99C4E9" stroke-width="2" stroke-miterlimit="10" width="13.026" height="38.305"/>
		
			<rect x="946.47" y="515.81" fill="none" stroke="#99C4E9" stroke-width="2" stroke-miterlimit="10" width="13.026" height="38.305"/>
		
			<rect x="959.496" y="515.81" fill="none" stroke="#99C4E9" stroke-width="2" stroke-miterlimit="10" width="13.026" height="38.305"/>
		
			<rect x="972.519" y="515.81" fill="none" stroke="#99C4E9" stroke-width="2" stroke-miterlimit="10" width="13.026" height="38.305"/>
		
			<rect x="985.545" y="515.81" fill="none" stroke="#99C4E9" stroke-width="2" stroke-miterlimit="10" width="13.026" height="38.305"/>
		
			<rect x="998.572" y="515.81" fill="none" stroke="#99C4E9" stroke-width="2" stroke-miterlimit="10" width="13.026" height="38.305"/>
		
			<rect x="1011.598" y="515.81" fill="none" stroke="#99C4E9" stroke-width="2" stroke-miterlimit="10" width="13.026" height="38.305"/>
		
			<rect x="1024.624" y="515.81" fill="none" stroke="#99C4E9" stroke-width="2" stroke-miterlimit="10" width="13.026" height="38.305"/>
		
			<rect x="1037.647" y="515.81" fill="none" stroke="#99C4E9" stroke-width="2" stroke-miterlimit="10" width="13.026" height="38.305"/>
	</g>
	<g>
		<rect x="880.992" y="562.099" fill="#E2E2E2" width="168.629" height="38.305"/>
		
			<rect x="880.992" y="562.099" fill="none" stroke="#99C4E9" stroke-width="2" stroke-miterlimit="10" width="13.026" height="38.305"/>
		
			<rect x="894.017" y="562.099" fill="none" stroke="#99C4E9" stroke-width="2" stroke-miterlimit="10" width="13.026" height="38.305"/>
		
			<rect x="907.043" y="562.099" fill="none" stroke="#99C4E9" stroke-width="2" stroke-miterlimit="10" width="13.026" height="38.305"/>
		
			<rect x="920.067" y="562.099" fill="none" stroke="#99C4E9" stroke-width="2" stroke-miterlimit="10" width="13.026" height="38.305"/>
		
			<rect x="933.093" y="562.099" fill="none" stroke="#99C4E9" stroke-width="2" stroke-miterlimit="10" width="13.026" height="38.305"/>
		
			<rect x="946.119" y="562.099" fill="none" stroke="#99C4E9" stroke-width="2" stroke-miterlimit="10" width="13.026" height="38.305"/>
		
			<rect x="959.145" y="562.099" fill="none" stroke="#99C4E9" stroke-width="2" stroke-miterlimit="10" width="13.026" height="38.305"/>
		
			<rect x="972.169" y="562.099" fill="none" stroke="#99C4E9" stroke-width="2" stroke-miterlimit="10" width="13.026" height="38.305"/>
		
			<rect x="985.195" y="562.099" fill="none" stroke="#99C4E9" stroke-width="2" stroke-miterlimit="10" width="13.026" height="38.305"/>
		
			<rect x="998.221" y="562.099" fill="none" stroke="#99C4E9" stroke-width="2" stroke-miterlimit="10" width="13.026" height="38.305"/>
		
			<rect x="1011.247" y="562.099" fill="none" stroke="#99C4E9" stroke-width="2" stroke-miterlimit="10" width="13.026" height="38.305"/>
		
			<rect x="1024.273" y="562.099" fill="none" stroke="#99C4E9" stroke-width="2" stroke-miterlimit="10" width="13.026" height="38.305"/>
		
			<rect x="1037.297" y="562.099" fill="none" stroke="#99C4E9" stroke-width="2" stroke-miterlimit="10" width="13.026" height="38.305"/>
	</g>
</g>
<g>
	<path fill="#1C1511" d="M995.918,558.284c0,15.59-12.731,28.228-28.435,28.228c-15.703,0-28.434-12.639-28.434-28.228
		c0-15.595,12.731-28.238,28.434-28.238C983.187,530.047,995.918,542.689,995.918,558.284z"/>
	<path fill="#FFFFFF" d="M978.228,541.064L978.228,541.064c0,0-5.546,4.821-11.092,10.331v-3.446c0-1.376-1.384-2.063-2.773-2.063
		c-0.692,0-2.078,0.689-2.078,2.063v7.575c-4.852,4.132-9.705,8.264-9.705,8.264c-0.692,0-2.08,0-2.08,0
		c-3.462,0-6.239,2.754-6.239,6.203c0,3.44,2.776,6.194,6.239,6.194h5.546c0,0,26.341-22.036,27.036-22.723c0.689,0,1.386,0,1.386,0
		c3.466,0,6.239-2.754,6.239-6.2c0-3.44-2.773-6.197-6.239-6.197L978.228,541.064L978.228,541.064z M984.468,543.129
		c2.77,0,4.159,2.063,4.159,4.132c0,2.756-1.388,4.136-4.159,4.136h-2.08l-27.034,22.723c-0.692,0-4.854,0-4.854,0
		c-2.08,0-4.159-2.063-4.159-4.128c0-2.063,2.078-4.136,4.159-4.136h2.773c0,0,24.956-22.035,25.649-22.728
		C979.617,543.129,984.468,543.129,984.468,543.129L984.468,543.129z M967.136,542.439c0,1.382-1.384,2.754-2.773,2.754
		c-1.382,0-2.078-1.371-2.078-2.754c0-0.689,0.696-2.063,2.078-2.063C965.75,540.374,967.136,541.749,967.136,542.439
		L967.136,542.439z"/>
</g>
<g>
	<path fill="#1C1511" d="M174.608,555.859c0,16.395-13.389,29.686-29.904,29.686s-29.903-13.291-29.903-29.686
		c0-16.401,13.389-29.697,29.903-29.697C161.22,526.163,174.608,539.458,174.608,555.859z"/>
	<path fill="#FFFFFF" d="M156.003,537.75L156.003,537.75c0,0-5.832,5.07-11.665,10.865v-3.624c0-1.447-1.456-2.17-2.917-2.17
		c-0.728,0-2.185,0.724-2.185,2.17v7.967c-5.102,4.345-10.207,8.691-10.207,8.691c-0.728,0-2.188,0-2.188,0
		c-3.641,0-6.561,2.896-6.561,6.524c0,3.617,2.919,6.513,6.561,6.513h5.832c0,0,27.702-23.174,28.432-23.897
		c0.724,0,1.458,0,1.458,0c3.645,0,6.561-2.896,6.561-6.52c0-3.617-2.917-6.517-6.561-6.517L156.003,537.75L156.003,537.75z
		 M162.565,539.92c2.913,0,4.373,2.17,4.373,4.345c0,2.899-1.46,4.349-4.373,4.349h-2.188l-28.43,23.897c-0.728,0-5.104,0-5.104,0
		c-2.188,0-4.373-2.17-4.373-4.342c0-2.17,2.185-4.349,4.373-4.349h2.917c0,0,26.246-23.173,26.974-23.902
		C157.465,539.92,162.565,539.92,162.565,539.92L162.565,539.92z M144.339,539.196c0,1.453-1.456,2.896-2.917,2.896
		c-1.453,0-2.185-1.442-2.185-2.896c0-0.724,0.732-2.17,2.185-2.17C142.882,537.024,144.339,538.47,144.339,539.196L144.339,539.196
		z"/>
</g>
<g>
	<path fill="#148865" d="M144.785,857.908c11.292,0.049,20.41,9.041,20.365,20.092c-0.051,11.045-9.241,19.967-20.527,19.918
		c-11.292-0.047-20.41-9.041-20.365-20.09C124.304,866.779,133.495,857.862,144.785,857.908z"/>
	<path fill="#FFFFFF" d="M141.527,862.296l-0.079,19.501L134,874.453l-0.035,8.291l10.427,10.773l11.016-10.683l0.037-8.78
		l-8.017,8.26l0.086-19.995L141.527,862.296z"/>
</g>
<rect x="1017.014" y="600.405" opacity="0.5" fill="#EFA8EF" enable-background="new    " width="6.398" height="209.314"/>
<rect x="1016.579" y="857.167" opacity="0.5" fill="#EFA8EF" enable-background="new    " width="5.36" height="280.616"/>
<rect x="1047.673" y="1041.5" fill="#E7F498" width="31.208" height="56"/>
<g>
	<path fill="#148865" d="M194.418,647.488c-0.049,11.292-9.041,20.41-20.092,20.365c-11.045-0.051-19.967-9.241-19.918-20.527
		c0.047-11.292,9.041-20.41,20.09-20.365C185.547,627.007,194.465,636.198,194.418,647.488z"/>
	<path fill="#FFFFFF" d="M190.031,644.229l-19.501-0.079l7.344-7.448l-8.291-0.035l-10.773,10.427l10.683,11.016l8.78,0.037
		l-8.26-8.017l19.995,0.086L190.031,644.229z"/>
</g>
<g>
	<path fill="#148865" d="M1040.218,833.222c-0.049,11.292-9.041,20.41-20.092,20.365c-11.045-0.051-19.967-9.241-19.918-20.527
		c0.047-11.292,9.041-20.41,20.09-20.365C1031.347,812.741,1040.264,821.932,1040.218,833.222z"/>
	<path fill="#FFFFFF" d="M1035.83,829.964l-19.501-0.079l7.344-7.448l-8.291-0.035l-10.773,10.427l10.683,11.016l8.78,0.037
		l-8.26-8.017l19.995,0.086L1035.83,829.964z"/>
</g>
</svg>
