<?xml version="1.0" encoding="utf-8"?>
<!-- Generator: Adobe Illustrator 17.0.0, SVG Export Plug-In . SVG Version: 6.00 Build 0)  -->
<!DOCTYPE svg PUBLIC "-//W3C//DTD SVG 1.1//EN" "http://www.w3.org/Graphics/SVG/1.1/DTD/svg11.dtd">
<svg version="1.1" id="图层_1" xmlns="http://www.w3.org/2000/svg" xmlns:xlink="http://www.w3.org/1999/xlink" x="0px" y="0px"
	 width="1920px" height="1280px" viewBox="0 0 1920 1280" enable-background="new 0 0 1920 1280" xml:space="preserve">
<path opacity="0.7" fill="#B7EDE4" enable-background="new    " d="M0,498.193v384.135l222.478,222.478
	c0,0,236.883-44.816,318.512-41.615c63.484-0.622,273.696,41.615,280.098,44.816l28.04-58.751c0,0,74.396,91.866,210.443,90.763
	c113.173-0.917,196.869-86.43,220.878-192.067c16.455-72.403,0-65.623,0-65.623l-22.408-14.405l-1.601-44.015l18.006-1.601
	l-0.399-325.714H849.898v108.838H260.892V498.193H0z"/>
<g>
	<g>
		<rect x="60.215" y="511.818" fill="#E2E2E2" width="168.629" height="38.305"/>
		
			<rect x="60.215" y="511.818" fill="none" stroke="#99C4E9" stroke-width="2" stroke-miterlimit="10" width="13.026" height="38.305"/>
		
			<rect x="73.241" y="511.818" fill="none" stroke="#99C4E9" stroke-width="2" stroke-miterlimit="10" width="13.026" height="38.305"/>
		
			<rect x="86.267" y="511.818" fill="none" stroke="#99C4E9" stroke-width="2" stroke-miterlimit="10" width="13.026" height="38.305"/>
		
			<rect x="99.29" y="511.818" fill="none" stroke="#99C4E9" stroke-width="2" stroke-miterlimit="10" width="13.026" height="38.305"/>
		
			<rect x="112.316" y="511.818" fill="none" stroke="#99C4E9" stroke-width="2" stroke-miterlimit="10" width="13.026" height="38.305"/>
		
			<rect x="125.341" y="511.818" fill="none" stroke="#99C4E9" stroke-width="2" stroke-miterlimit="10" width="13.026" height="38.305"/>
		
			<rect x="138.367" y="511.818" fill="none" stroke="#99C4E9" stroke-width="2" stroke-miterlimit="10" width="13.026" height="38.305"/>
		
			<rect x="151.391" y="511.818" fill="none" stroke="#99C4E9" stroke-width="2" stroke-miterlimit="10" width="13.026" height="38.305"/>
		
			<rect x="164.417" y="511.818" fill="none" stroke="#99C4E9" stroke-width="2" stroke-miterlimit="10" width="13.026" height="38.305"/>
		
			<rect x="177.443" y="511.818" fill="none" stroke="#99C4E9" stroke-width="2" stroke-miterlimit="10" width="13.026" height="38.305"/>
		
			<rect x="190.469" y="511.818" fill="none" stroke="#99C4E9" stroke-width="2" stroke-miterlimit="10" width="13.026" height="38.305"/>
		
			<rect x="203.495" y="511.818" fill="none" stroke="#99C4E9" stroke-width="2" stroke-miterlimit="10" width="13.026" height="38.305"/>
		
			<rect x="216.519" y="511.818" fill="none" stroke="#99C4E9" stroke-width="2" stroke-miterlimit="10" width="13.026" height="38.305"/>
	</g>
	<g>
		<rect x="59.864" y="558.107" fill="#E2E2E2" width="168.629" height="38.305"/>
		
			<rect x="59.864" y="558.107" fill="none" stroke="#99C4E9" stroke-width="2" stroke-miterlimit="10" width="13.026" height="38.305"/>
		
			<rect x="72.889" y="558.107" fill="none" stroke="#99C4E9" stroke-width="2" stroke-miterlimit="10" width="13.026" height="38.305"/>
		
			<rect x="85.915" y="558.107" fill="none" stroke="#99C4E9" stroke-width="2" stroke-miterlimit="10" width="13.026" height="38.305"/>
		
			<rect x="98.938" y="558.107" fill="none" stroke="#99C4E9" stroke-width="2" stroke-miterlimit="10" width="13.026" height="38.305"/>
		
			<rect x="111.964" y="558.107" fill="none" stroke="#99C4E9" stroke-width="2" stroke-miterlimit="10" width="13.026" height="38.305"/>
		
			<rect x="124.991" y="558.107" fill="none" stroke="#99C4E9" stroke-width="2" stroke-miterlimit="10" width="13.026" height="38.305"/>
		
			<rect x="138.017" y="558.107" fill="none" stroke="#99C4E9" stroke-width="2" stroke-miterlimit="10" width="13.026" height="38.305"/>
		
			<rect x="151.04" y="558.107" fill="none" stroke="#99C4E9" stroke-width="2" stroke-miterlimit="10" width="13.026" height="38.305"/>
		
			<rect x="164.066" y="558.107" fill="none" stroke="#99C4E9" stroke-width="2" stroke-miterlimit="10" width="13.026" height="38.305"/>
		
			<rect x="177.092" y="558.107" fill="none" stroke="#99C4E9" stroke-width="2" stroke-miterlimit="10" width="13.026" height="38.305"/>
		
			<rect x="190.119" y="558.107" fill="none" stroke="#99C4E9" stroke-width="2" stroke-miterlimit="10" width="13.026" height="38.305"/>
		
			<rect x="203.145" y="558.107" fill="none" stroke="#99C4E9" stroke-width="2" stroke-miterlimit="10" width="13.026" height="38.305"/>
		
			<rect x="216.168" y="558.107" fill="none" stroke="#99C4E9" stroke-width="2" stroke-miterlimit="10" width="13.026" height="38.305"/>
	</g>
</g>
<rect x="17.606" y="619.836" fill="#9AF4A3" width="161.657" height="236.883"/>
<polygon fill="#FFE5C0" points="19.328,867.923 176.062,867.923 176.062,1034.381 "/>
<rect x="1049.673" y="695.014" fill="#90CFC8" width="12.416" height="325.486"/>
<rect x="1101.054" y="888.923" fill="#F4E8BE" width="159.384" height="72.025"/>
<rect x="1104.563" y="974.563" fill="#B6F5FF" width="111.368" height="52.819"/>
<g>
	<path d="M1219.689,591.082c-0.239,26.007-21.879,46.904-48.339,46.653c-26.459-0.252-47.719-21.549-47.489-47.573
		c0.239-26.014,21.879-46.904,48.338-46.653C1198.658,543.754,1219.931,565.058,1219.689,591.082z"/>
	<path fill="#FFFFFF" d="M1176.591,621.714l-5.139,4.955l-5.045-6.066l0.05-4.001l4.034,4.04l0.045-4.994l3.053,0.028l-0.05,4.999
		l3.086-2.974L1176.591,621.714z M1166.955,560.526l5.144-5.959l5.032,6.059l-0.033,4.006l-3.014-4.034l-0.039,4.999l-4.079-0.028
		l0.045-5.011l-3.079,2.969L1166.955,560.526z M1163.606,593.548c0,0-1.031,0.988-2.048,0.976l-1.01-1.016l0.112-12.014
		c0,0,1.044-1.992,3.086-2.974l7.131,0.073c0,0,1.01,0.011,2.014,2.026l2.003,3.014c0,0,0.998,1.021,1.021,0.018l2.048-1.98
		c1.016,0.005,2.037,0.018,2.037,0.018c1.005,1.016,1.005,1.016-0.023,1.998l-3.086,3.977c0,0-1.021,0.988-3.052-0.028l-3.001-5.04
		l-0.235,25.037c-0.005,1.003-1.037,1.992-1.037,1.992c-1.016-0.005-2.031-1.021-2.014-2.021l0.128-14.021
		c0,0-1.01-1.005-1.021-0.005l-0.122,14.016c-0.018,1.005-0.018,2.016-1.037,1.993c-1.021-0.011-2.031-1.016-2.021-2.021
		l0.234-25.031c0,0,0,0-0.018,0.993L1163.606,593.548z M1183.984,590.736c-0.005,1.005-0.018,1.998-1.032,1.993
		c0,0-1.005-1.01-0.993-2.016l1.021-0.993C1184.001,589.73,1183.984,590.736,1183.984,590.736L1183.984,590.736z M1184.022,586.73
		c0,0-0.005,1.003-1.032,0.988l-0.998-1.01c0.005-1,1.032-1.993,1.032-1.993C1184.041,584.727,1184.03,585.73,1184.022,586.73
		L1184.022,586.73z M1184.063,582.729c-0.018,0.993-0.018,0.993-1.027,0.981c0,0-1.016,0-1.005-1.01
		c0.011-0.998,1.022-0.998,1.022-0.998C1184.068,581.719,1184.068,581.719,1184.063,582.729L1184.063,582.729z M1184.108,577.717
		c0,1.005,0,1.005-1.032,0.993c0,0-1.01-0.018-1.005-1.016s1.027-0.988,1.027-0.988
		C1184.119,576.725,1184.119,576.725,1184.108,577.717L1184.108,577.717z M1169.867,575.575c0,1.005-1.031,1.998-3.063,1.98
		c-1.016-0.011-2.031-1.027-2.019-2.026c0.018-2.003,1.049-2.996,2.071-2.986C1168.886,572.563,1169.9,573.578,1169.867,575.575
		L1169.867,575.575z M1189.28,568.751l-35.628-0.341l-0.402,45.075l37.654,0.339l0.407-45.057L1189.28,568.751z M1188.241,570.744
		c-0.018,3.008-0.341,38.06-0.363,40.058c-3.058-0.039-29.512-0.279-32.576-0.312c0.023-1.998,0.346-37.05,0.369-40.053
		C1158.718,570.476,1185.189,570.715,1188.241,570.744L1188.241,570.744z M1202.994,626.96l-10.171-0.094l0.648-72.092l10.178,0.089
		L1202.994,626.96z M1150.083,626.47l-10.171-0.094l0.641-72.097l10.177,0.083L1150.083,626.47z"/>
</g>
<g>
	<rect x="1160.246" y="683.754" fill="#CFF9FF" width="86.721" height="80.672"/>
	<rect x="1160.246" y="777.477" fill="#CFF9FF" width="86.721" height="66.436"/>
	<rect x="1089.855" y="745.842" fill="#CFF9FF" width="62.994" height="98.073"/>
	<polygon fill="#F4D5BF" points="1117.735,683.754 1117.735,712.821 1089.855,712.821 1089.855,734.174 1152.849,734.174 
		1152.849,721.124 1152.849,712.821 1152.849,683.754 	"/>
	<g>
		<path fill="#1C1511" d="M1203.334,764.211c0.116,23.548-19.073,42.733-42.872,42.853c-23.795,0.116-43.18-18.883-43.301-42.426
			c-0.11-23.548,19.084-42.727,42.884-42.848C1183.837,721.664,1203.218,740.663,1203.334,764.211z"/>
		<g>
			<path fill="#FFFFFF" d="M1186.163,737.26c0.012,3.12-2.078,5.208-5.228,5.224c-3.151,0.01-5.259-2.053-5.28-5.174
				c-0.015-3.12,2.078-5.21,5.228-5.224C1184.028,732.072,1186.142,734.14,1186.163,737.26L1186.163,737.26z"/>
			<path fill="#FFFFFF" d="M1132.734,767.678c0.011,1.042-1.037,2.089-2.088,2.094c-1.047,0-2.109-1.037-2.109-2.073l-0.102-20.794
				c0,0,1.028-5.205,5.224-5.229l12.612-0.061c0,0,5.244-0.025,5.268,5.174l0.106,20.801c0,1.042-1.042,2.078-2.094,2.088
				c-1.052,0.005-2.104-1.032-2.114-2.068l-0.09-18.718c0,0-1.057-1.042-1.042,1.047l0.216,45.757
				c0.015,2.073-1.021,3.115-3.13,3.135c-1.045,0-2.107-1.037-2.114-3.115l-0.131-27.036c0,0-1.057-1.042-1.052,0l0.128,27.041
				c0.015,2.078-2.083,3.132-3.135,3.135c-1.042,0.005-3.151-1.032-3.166-3.105l-0.223-45.752c0,0-0.005-1.042-1.047,0.005
				L1132.734,767.678z"/>
			<path fill="#FFFFFF" d="M1189.353,747.638l0.07,11.445l3.181,7.261c1.057,1.037,0.011,2.083-1.037,2.089
				c-1.052,1.042-2.104,0.01-2.112-1.032l-3.186-7.261l-0.03-8.318c-0.015-1.047-1.062,0-1.062,0l0.046,8.318l7.448,19.719
				l-7.351,0.036l0.085,16.648c0.005,1.037-1.042,2.083-2.094,2.083c-1.047,0.01-2.104-1.021-2.109-2.063l-0.075-15.601
				c-0.011-1.032-1.057-1.032-1.057-1.032l0.075,16.633c0.011,1.042-1.031,2.089-2.088,2.094c-1.052,0.01-2.109-1.032-2.109-2.07
				l-0.08-16.638l-7.358,0.031l8.313-19.794l-0.049-8.318h-1.047l0.046,8.318l-3.115,7.297c-1.047,1.047-2.094,2.089-3.151,1.062
				c-1.047,0.005-1.057-1.042-1.057-2.083l3.115-7.287l-0.051-10.403c1.032-4.167,5.224-5.224,5.224-5.224
				c1.057,2.073,2.119,3.11,4.218,3.101c2.099-0.01,3.14-1.062,4.189-3.146C1185.14,743.5,1189.344,744.518,1189.353,747.638
				L1189.353,747.638z"/>
			<path fill="#FFFFFF" d="M1145.192,735.378c0.011,2.083-2.089,4.171-5.239,4.192c-2.099,0.011-4.207-2.063-4.218-4.151
				c-0.02-3.105,2.068-5.205,4.171-5.219C1143.057,730.19,1145.171,732.253,1145.192,735.378L1145.192,735.378z"/>
			
				<rect x="1157.922" y="729.142" transform="matrix(1 -0.0047 0.0047 1 -3.5779 5.458)" fill="#FFFFFF" width="3.156" height="69.687"/>
		</g>
	</g>
</g>
<g>
	<g>
		<rect x="880.343" y="515.81" fill="#E2E2E2" width="168.629" height="38.305"/>
		
			<rect x="880.343" y="515.81" fill="none" stroke="#99C4E9" stroke-width="2" stroke-miterlimit="10" width="13.026" height="38.305"/>
		
			<rect x="893.369" y="515.81" fill="none" stroke="#99C4E9" stroke-width="2" stroke-miterlimit="10" width="13.026" height="38.305"/>
		
			<rect x="906.395" y="515.81" fill="none" stroke="#99C4E9" stroke-width="2" stroke-miterlimit="10" width="13.026" height="38.305"/>
		
			<rect x="919.419" y="515.81" fill="none" stroke="#99C4E9" stroke-width="2" stroke-miterlimit="10" width="13.026" height="38.305"/>
		
			<rect x="932.445" y="515.81" fill="none" stroke="#99C4E9" stroke-width="2" stroke-miterlimit="10" width="13.026" height="38.305"/>
		
			<rect x="945.47" y="515.81" fill="none" stroke="#99C4E9" stroke-width="2" stroke-miterlimit="10" width="13.026" height="38.305"/>
		
			<rect x="958.496" y="515.81" fill="none" stroke="#99C4E9" stroke-width="2" stroke-miterlimit="10" width="13.026" height="38.305"/>
		
			<rect x="971.519" y="515.81" fill="none" stroke="#99C4E9" stroke-width="2" stroke-miterlimit="10" width="13.026" height="38.305"/>
		
			<rect x="984.545" y="515.81" fill="none" stroke="#99C4E9" stroke-width="2" stroke-miterlimit="10" width="13.026" height="38.305"/>
		
			<rect x="997.572" y="515.81" fill="none" stroke="#99C4E9" stroke-width="2" stroke-miterlimit="10" width="13.026" height="38.305"/>
		
			<rect x="1010.598" y="515.81" fill="none" stroke="#99C4E9" stroke-width="2" stroke-miterlimit="10" width="13.026" height="38.305"/>
		
			<rect x="1023.624" y="515.81" fill="none" stroke="#99C4E9" stroke-width="2" stroke-miterlimit="10" width="13.026" height="38.305"/>
		
			<rect x="1036.647" y="515.81" fill="none" stroke="#99C4E9" stroke-width="2" stroke-miterlimit="10" width="13.026" height="38.305"/>
	</g>
	<g>
		<rect x="879.992" y="562.099" fill="#E2E2E2" width="168.629" height="38.305"/>
		
			<rect x="879.992" y="562.099" fill="none" stroke="#99C4E9" stroke-width="2" stroke-miterlimit="10" width="13.026" height="38.305"/>
		
			<rect x="893.017" y="562.099" fill="none" stroke="#99C4E9" stroke-width="2" stroke-miterlimit="10" width="13.026" height="38.305"/>
		
			<rect x="906.043" y="562.099" fill="none" stroke="#99C4E9" stroke-width="2" stroke-miterlimit="10" width="13.026" height="38.305"/>
		
			<rect x="919.067" y="562.099" fill="none" stroke="#99C4E9" stroke-width="2" stroke-miterlimit="10" width="13.026" height="38.305"/>
		
			<rect x="932.093" y="562.099" fill="none" stroke="#99C4E9" stroke-width="2" stroke-miterlimit="10" width="13.026" height="38.305"/>
		
			<rect x="945.119" y="562.099" fill="none" stroke="#99C4E9" stroke-width="2" stroke-miterlimit="10" width="13.026" height="38.305"/>
		
			<rect x="958.145" y="562.099" fill="none" stroke="#99C4E9" stroke-width="2" stroke-miterlimit="10" width="13.026" height="38.305"/>
		
			<rect x="971.169" y="562.099" fill="none" stroke="#99C4E9" stroke-width="2" stroke-miterlimit="10" width="13.026" height="38.305"/>
		
			<rect x="984.195" y="562.099" fill="none" stroke="#99C4E9" stroke-width="2" stroke-miterlimit="10" width="13.026" height="38.305"/>
		
			<rect x="997.221" y="562.099" fill="none" stroke="#99C4E9" stroke-width="2" stroke-miterlimit="10" width="13.026" height="38.305"/>
		
			<rect x="1010.247" y="562.099" fill="none" stroke="#99C4E9" stroke-width="2" stroke-miterlimit="10" width="13.026" height="38.305"/>
		
			<rect x="1023.273" y="562.099" fill="none" stroke="#99C4E9" stroke-width="2" stroke-miterlimit="10" width="13.026" height="38.305"/>
		
			<rect x="1036.297" y="562.099" fill="none" stroke="#99C4E9" stroke-width="2" stroke-miterlimit="10" width="13.026" height="38.305"/>
	</g>
</g>
<g>
	<path fill="#1C1511" d="M994.918,558.284c0,15.59-12.731,28.228-28.435,28.228c-15.703,0-28.434-12.639-28.434-28.228
		c0-15.595,12.731-28.238,28.434-28.238C982.187,530.047,994.918,542.689,994.918,558.284z"/>
	<path fill="#FFFFFF" d="M977.228,541.064L977.228,541.064c0,0-5.546,4.821-11.092,10.331v-3.446c0-1.376-1.384-2.063-2.773-2.063
		c-0.692,0-2.078,0.689-2.078,2.063v7.575c-4.852,4.132-9.705,8.264-9.705,8.264c-0.692,0-2.08,0-2.08,0
		c-3.462,0-6.239,2.754-6.239,6.203c0,3.44,2.776,6.194,6.239,6.194h5.546c0,0,26.341-22.036,27.036-22.723c0.689,0,1.386,0,1.386,0
		c3.466,0,6.239-2.754,6.239-6.2c0-3.44-2.773-6.197-6.239-6.197L977.228,541.064L977.228,541.064z M983.468,543.129
		c2.77,0,4.159,2.063,4.159,4.132c0,2.756-1.388,4.136-4.159,4.136h-2.08l-27.034,22.723c-0.692,0-4.854,0-4.854,0
		c-2.08,0-4.159-2.063-4.159-4.128c0-2.063,2.078-4.136,4.159-4.136h2.773c0,0,24.956-22.035,25.649-22.728
		C978.617,543.129,983.468,543.129,983.468,543.129L983.468,543.129z M966.136,542.439c0,1.382-1.384,2.754-2.773,2.754
		c-1.382,0-2.078-1.371-2.078-2.754c0-0.689,0.696-2.063,2.078-2.063C964.75,540.374,966.136,541.749,966.136,542.439
		L966.136,542.439z"/>
</g>
<g>
	<path fill="#1C1511" d="M173.608,555.859c0,16.395-13.389,29.686-29.904,29.686s-29.903-13.291-29.903-29.686
		c0-16.401,13.389-29.697,29.903-29.697C160.22,526.163,173.608,539.458,173.608,555.859z"/>
	<path fill="#FFFFFF" d="M155.003,537.75L155.003,537.75c0,0-5.832,5.07-11.665,10.865v-3.624c0-1.447-1.456-2.17-2.917-2.17
		c-0.728,0-2.185,0.724-2.185,2.17v7.967c-5.102,4.345-10.207,8.691-10.207,8.691c-0.728,0-2.188,0-2.188,0
		c-3.641,0-6.561,2.896-6.561,6.524c0,3.617,2.919,6.513,6.561,6.513h5.832c0,0,27.702-23.174,28.432-23.897
		c0.724,0,1.458,0,1.458,0c3.645,0,6.561-2.896,6.561-6.52c0-3.617-2.917-6.517-6.561-6.517L155.003,537.75L155.003,537.75z
		 M161.565,539.92c2.913,0,4.373,2.17,4.373,4.345c0,2.899-1.46,4.349-4.373,4.349h-2.188l-28.43,23.897c-0.728,0-5.104,0-5.104,0
		c-2.188,0-4.373-2.17-4.373-4.342c0-2.17,2.185-4.349,4.373-4.349h2.917c0,0,26.246-23.173,26.974-23.902
		C156.465,539.92,161.565,539.92,161.565,539.92L161.565,539.92z M143.339,539.196c0,1.453-1.456,2.896-2.917,2.896
		c-1.453,0-2.185-1.442-2.185-2.896c0-0.724,0.732-2.17,2.185-2.17C141.882,537.024,143.339,538.47,143.339,539.196L143.339,539.196
		z"/>
</g>
<g>
	<path fill="#148865" d="M143.785,857.908c11.292,0.049,20.41,9.041,20.365,20.092c-0.051,11.045-9.241,19.967-20.527,19.918
		c-11.292-0.047-20.41-9.041-20.365-20.09C123.304,866.779,132.495,857.862,143.785,857.908z"/>
	<path fill="#FFFFFF" d="M140.527,862.296l-0.079,19.501L133,874.453l-0.035,8.291l10.427,10.773l11.016-10.683l0.037-8.78
		l-8.017,8.26l0.086-19.995L140.527,862.296z"/>
</g>
<rect x="1016.014" y="600.405" opacity="0.5" fill="#1F447F" enable-background="new    " width="6.398" height="209.314"/>
<rect x="1015.579" y="857.167" opacity="0.5" fill="#1F447F" enable-background="new    " width="5.36" height="280.616"/>
<rect x="1046.673" y="1041.5" fill="#E7F498" width="31.208" height="56"/>
<g>
	<path fill="#148865" d="M193.418,647.488c-0.049,11.292-9.041,20.41-20.092,20.365c-11.045-0.051-19.967-9.241-19.918-20.527
		c0.047-11.292,9.041-20.41,20.09-20.365C184.547,627.007,193.465,636.198,193.418,647.488z"/>
	<path fill="#FFFFFF" d="M189.031,644.229l-19.501-0.079l7.344-7.448l-8.291-0.035l-10.773,10.427l10.683,11.016l8.78,0.037
		l-8.26-8.017l19.995,0.086L189.031,644.229z"/>
</g>
<g>
	<path fill="#148865" d="M1039.218,833.222c-0.049,11.292-9.041,20.41-20.092,20.365c-11.045-0.051-19.967-9.241-19.918-20.527
		c0.047-11.292,9.041-20.41,20.09-20.365C1030.348,812.741,1039.265,821.932,1039.218,833.222z"/>
	<path fill="#FFFFFF" d="M1034.83,829.964l-19.501-0.079l7.344-7.448l-8.291-0.035l-10.773,10.427l10.683,11.016l8.78,0.037
		l-8.26-8.017l19.995,0.086L1034.83,829.964z"/>
</g>
<path opacity="0.7" fill="#B7EDE4" enable-background="new    " d="M979.267,197.611v287.034h308.14v185.728h406.07
	c0.281,0.281,1.595,0.657,1.97,0.938c34.613,29.923,67.538,47.839,113.97,63.316c54.218,18.01,98.117-30.204,106.935-64.254l0,0
	V484.645V197.611H979.267L979.267,197.611z"/>
<rect x="988.647" y="206.709" fill="#F7F79A" width="191.356" height="211.055"/>
<rect x="1807.541" y="206.709" fill="#FFDEB6" width="101.306" height="269.212"/>
<rect x="988.647" y="428.552" fill="#FFE5C0" width="191.356" height="46.057"/>
<g>
	<path fill="#148865" d="M1188.231,388.213c0,11.802-9.527,21.328-21.044,21.328c-11.517,0-20.901-9.669-20.901-21.471
		s9.527-21.328,21.044-21.328C1178.846,366.744,1188.231,376.27,1188.231,388.213z"/>
	<path fill="#FFFFFF" d="M1183.539,384.801l-20.476-0.142l7.678-7.82h-8.673l-11.233,10.949l11.233,11.517h9.242l-8.673-8.389
		l20.901,0.142L1183.539,384.801L1183.539,384.801z"/>
</g>
<g>
	<path fill="#148865" d="M1745.859,448.153c0-10.901,9.156-19.699,20.225-19.699s20.088,8.93,20.088,19.831
		s-9.156,19.699-20.224,19.699C1754.742,467.983,1745.722,459.053,1745.859,448.153z"/>
	<path fill="#FFFFFF" d="M1750.231,451.305l19.678,0.132l-7.38,7.223h8.336l10.795-10.113l-10.795-10.638h-8.883l8.336,7.749
		l-20.088-0.132L1750.231,451.305L1750.231,451.305z"/>
</g>
<g>
	<path fill="#148865" d="M1204.778,453.639c0,9.775-7.89,17.664-17.429,17.664c-9.539,0-17.311-8.008-17.311-17.782
		c0-9.774,7.89-17.664,17.429-17.664C1197.122,435.858,1204.894,443.866,1204.778,453.639z"/>
	<path fill="#FFFFFF" d="M1201.008,450.814l-16.958-0.118l6.359-6.477h-7.183l-9.303,9.068l9.303,9.539h7.655l-7.183-6.948
		l17.311,0.118L1201.008,450.814L1201.008,450.814z"/>
</g>
<rect x="1763.304" y="206.709" fill="#3F7AD8" width="10.499" height="211.055"/>
<rect x="1623.81" y="407.292" fill="#3F7AD8" width="144.743" height="10.499"/>
<rect x="1623.81" y="477.672" fill="#3F7AD8" width="283.486" height="10.499"/>
<rect x="1197.796" y="206.709" fill="#C7D4FF" width="552.434" height="192.596"/>
<rect x="1305.326" y="501.517" fill="#C7D4FF" width="598.701" height="153.739"/>
<g>
	<path fill="#148865" d="M1085.617,447.083c14.853,0,26.842,12.181,26.842,26.907s-12.168,26.725-27.021,26.725
		c-14.853,0-26.842-12.181-26.842-26.907C1058.596,458.9,1070.586,447.083,1085.617,447.083z"/>
	<path fill="#FFFFFF" d="M1081.321,452.9l-0.179,26.18l-9.842-9.817v11.09l13.779,14.362l14.495-14.362v-11.818l-10.558,11.09
		l0.179-26.725H1081.321z"/>
</g>
</svg>
