<?xml version="1.0" encoding="utf-8"?>
<!-- Generator: Adobe Illustrator 17.0.0, SVG Export Plug-In . SVG Version: 6.00 Build 0)  -->
<!DOCTYPE svg PUBLIC "-//W3C//DTD SVG 1.1//EN" "http://www.w3.org/Graphics/SVG/1.1/DTD/svg11.dtd">
<svg version="1.1" id="图层_1" xmlns="http://www.w3.org/2000/svg" xmlns:xlink="http://www.w3.org/1999/xlink" x="0px" y="0px"
	 width="1920px" height="1280px" viewBox="0 0 1920 1280" enable-background="new 0 0 1920 1280" xml:space="preserve">
<path opacity="0.7" fill="#97F5AD" d="M5,460.318v384.135l222.478,222.478c0,0,236.883-44.816,318.512-41.615
	c50.22,1.969,273.696,41.615,280.098,44.816l28.04-58.751c0,0,74.396,91.866,210.443,90.763
	c113.173-0.917,196.869-86.43,220.878-192.067c16.455-72.403,0-65.623,0-65.623l-22.408-14.405l-1.601-44.015l18.006-1.601
	l-0.399-325.714H854.898v108.838H265.892V460.318H5z"/>
<rect x="22.606" y="581.961" fill="#FFE5C0" width="161.657" height="236.883"/>
<polygon fill="#FFE5C0" points="14.603,830.048 181.062,830.048 181.062,996.506 "/>
<rect x="1032.561" y="581.961" fill="#90CFC8" width="19.207" height="489.772"/>
<rect x="1098.855" y="830.048" fill="#B6F5FF" width="159.384" height="72.025"/>
<rect x="1098.855" y="943.688" fill="#B6F5FF" width="111.368" height="52.819"/>
<rect x="181.062" y="460.318" fill="#97F5AD" width="12.804" height="16.006"/>
<g>
	<path d="M1224.689,553.207c-0.239,26.007-21.879,46.904-48.339,46.653c-26.459-0.252-47.719-21.549-47.489-47.573
		c0.239-26.014,21.879-46.904,48.338-46.653C1203.658,505.879,1224.93,527.183,1224.689,553.207z"/>
	<path fill="#FFFFFF" d="M1181.591,583.839l-5.139,4.955l-5.045-6.066l0.05-4.001l4.034,4.04l0.045-4.994l3.053,0.028l-0.05,4.999
		l3.086-2.974L1181.591,583.839z M1171.955,522.651l5.144-5.959l5.032,6.059l-0.033,4.006l-3.014-4.034l-0.039,4.999l-4.079-0.028
		l0.045-5.011l-3.079,2.969L1171.955,522.651z M1168.606,555.673c0,0-1.031,0.988-2.048,0.976l-1.01-1.016l0.112-12.014
		c0,0,1.044-1.992,3.086-2.974l7.131,0.073c0,0,1.01,0.011,2.014,2.026l2.003,3.014c0,0,0.998,1.021,1.021,0.018l2.048-1.98
		c1.016,0.005,2.037,0.018,2.037,0.018c1.005,1.016,1.005,1.016-0.023,1.998l-3.086,3.977c0,0-1.021,0.988-3.052-0.028l-3.001-5.04
		l-0.235,25.037c-0.005,1.003-1.037,1.992-1.037,1.992c-1.016-0.005-2.031-1.021-2.014-2.021l0.128-14.021
		c0,0-1.01-1.005-1.021-0.005l-0.122,14.016c-0.018,1.005-0.018,2.016-1.037,1.993c-1.021-0.011-2.031-1.016-2.021-2.021
		l0.234-25.031c0,0,0,0-0.018,0.993L1168.606,555.673z M1188.983,552.861c-0.005,1.005-0.018,1.998-1.032,1.993
		c0,0-1.005-1.01-0.993-2.016l1.021-0.993C1189.001,551.855,1188.983,552.861,1188.983,552.861L1188.983,552.861z M1189.022,548.855
		c0,0-0.005,1.003-1.032,0.988l-0.998-1.01c0.005-1,1.032-1.993,1.032-1.993C1189.04,546.852,1189.029,547.855,1189.022,548.855
		L1189.022,548.855z M1189.063,544.854c-0.018,0.993-0.018,0.993-1.027,0.981c0,0-1.016,0-1.005-1.01
		c0.011-0.998,1.022-0.998,1.022-0.998C1189.068,543.844,1189.068,543.844,1189.063,544.854L1189.063,544.854z M1189.107,539.842
		c0,1.005,0,1.005-1.032,0.993c0,0-1.01-0.018-1.005-1.016c0.005-0.998,1.027-0.988,1.027-0.988
		C1189.118,538.85,1189.118,538.85,1189.107,539.842L1189.107,539.842z M1174.867,537.7c0,1.005-1.031,1.998-3.063,1.98
		c-1.016-0.011-2.031-1.027-2.019-2.026c0.018-2.003,1.049-2.996,2.071-2.986C1173.886,534.688,1174.9,535.703,1174.867,537.7
		L1174.867,537.7z M1194.28,530.876l-35.628-0.341l-0.402,45.075l37.654,0.339l0.407-45.057L1194.28,530.876z M1193.241,532.869
		c-0.018,3.008-0.341,38.06-0.363,40.058c-3.058-0.039-29.512-0.279-32.576-0.312c0.023-1.998,0.346-37.05,0.369-40.053
		C1163.718,532.601,1190.189,532.84,1193.241,532.869L1193.241,532.869z M1207.994,589.085l-10.171-0.094l0.648-72.092l10.178,0.089
		L1207.994,589.085z M1155.082,588.595l-10.171-0.094l0.641-72.097l10.177,0.083L1155.082,588.595z"/>
</g>
<g>
	<rect x="1169.246" y="641.879" fill="#CFF9FF" width="86.721" height="80.672"/>
	<rect x="1169.246" y="735.602" fill="#CFF9FF" width="86.721" height="66.436"/>
	<rect x="1098.855" y="703.967" fill="#CFF9FF" width="62.994" height="98.073"/>
	<polygon fill="#F4D5BF" points="1126.735,641.879 1126.735,670.946 1098.855,670.946 1098.855,692.299 1161.849,692.299 
		1161.849,679.249 1161.849,670.946 1161.849,641.879 	"/>
	<g>
		<path fill="#1C1511" d="M1212.334,722.336c0.116,23.548-19.073,42.733-42.872,42.853c-23.795,0.116-43.18-18.883-43.301-42.426
			c-0.11-23.548,19.084-42.727,42.884-42.848C1192.836,679.789,1212.218,698.788,1212.334,722.336z"/>
		<g>
			<path fill="#FFFFFF" d="M1195.163,695.385c0.012,3.12-2.078,5.208-5.228,5.224c-3.151,0.01-5.259-2.053-5.28-5.174
				c-0.015-3.12,2.078-5.21,5.228-5.224C1193.028,690.197,1195.142,692.265,1195.163,695.385L1195.163,695.385z"/>
			<path fill="#FFFFFF" d="M1141.734,725.803c0.011,1.042-1.037,2.089-2.088,2.094c-1.047,0-2.109-1.037-2.109-2.073l-0.102-20.794
				c0,0,1.028-5.205,5.224-5.229l12.612-0.061c0,0,5.244-0.025,5.268,5.174l0.106,20.801c0,1.042-1.042,2.078-2.094,2.088
				c-1.052,0.005-2.104-1.032-2.114-2.068l-0.09-18.718c0,0-1.057-1.042-1.042,1.047l0.216,45.757
				c0.015,2.073-1.021,3.115-3.13,3.135c-1.045,0-2.107-1.037-2.114-3.115l-0.131-27.036c0,0-1.057-1.042-1.052,0l0.128,27.041
				c0.015,2.078-2.083,3.132-3.135,3.135c-1.042,0.005-3.151-1.032-3.166-3.105l-0.223-45.752c0,0-0.005-1.042-1.047,0.005
				L1141.734,725.803z"/>
			<path fill="#FFFFFF" d="M1198.352,705.763l0.07,11.445l3.181,7.261c1.057,1.037,0.011,2.083-1.037,2.089
				c-1.052,1.042-2.104,0.01-2.112-1.032l-3.186-7.261l-0.03-8.318c-0.015-1.047-1.062,0-1.062,0l0.046,8.318l7.448,19.719
				l-7.351,0.036l0.085,16.648c0.005,1.037-1.042,2.083-2.094,2.083c-1.047,0.01-2.104-1.021-2.109-2.063l-0.075-15.601
				c-0.011-1.032-1.057-1.032-1.057-1.032l0.075,16.633c0.011,1.042-1.031,2.089-2.088,2.094c-1.052,0.01-2.109-1.032-2.109-2.07
				l-0.08-16.638l-7.358,0.031l8.313-19.794l-0.049-8.318h-1.047l0.046,8.318l-3.115,7.297c-1.047,1.047-2.094,2.089-3.151,1.062
				c-1.047,0.005-1.057-1.042-1.057-2.083l3.115-7.287l-0.051-10.403c1.032-4.167,5.224-5.224,5.224-5.224
				c1.057,2.073,2.119,3.11,4.218,3.101c2.099-0.01,3.14-1.062,4.189-3.146C1194.14,701.625,1198.344,702.643,1198.352,705.763
				L1198.352,705.763z"/>
			<path fill="#FFFFFF" d="M1154.192,693.503c0.011,2.083-2.089,4.171-5.239,4.192c-2.099,0.011-4.207-2.063-4.218-4.151
				c-0.02-3.105,2.068-5.205,4.171-5.219C1152.057,688.315,1154.171,690.378,1154.192,693.503L1154.192,693.503z"/>
			
				<rect x="1166.93" y="687.277" transform="matrix(-1 0.0047 -0.0047 -1 2340.3979 1438.7365)" fill="#FFFFFF" width="3.156" height="69.682"/>
		</g>
	</g>
</g>
<g>
	<g>
		<rect x="885.282" y="485.267" fill="#E2E2E2" width="139.397" height="31.665"/>
		
			<rect x="885.282" y="485.267" fill="none" stroke="#99C4E9" stroke-width="2" stroke-miterlimit="10" width="10.768" height="31.665"/>
		
			<rect x="896.05" y="485.267" fill="none" stroke="#99C4E9" stroke-width="2" stroke-miterlimit="10" width="10.768" height="31.665"/>
		
			<rect x="906.818" y="485.267" fill="none" stroke="#99C4E9" stroke-width="2" stroke-miterlimit="10" width="10.768" height="31.665"/>
		
			<rect x="917.584" y="485.267" fill="none" stroke="#99C4E9" stroke-width="2" stroke-miterlimit="10" width="10.768" height="31.665"/>
		
			<rect x="928.352" y="485.267" fill="none" stroke="#99C4E9" stroke-width="2" stroke-miterlimit="10" width="10.768" height="31.665"/>
		
			<rect x="939.119" y="485.267" fill="none" stroke="#99C4E9" stroke-width="2" stroke-miterlimit="10" width="10.768" height="31.665"/>
		
			<rect x="949.887" y="485.267" fill="none" stroke="#99C4E9" stroke-width="2" stroke-miterlimit="10" width="10.768" height="31.665"/>
		
			<rect x="960.653" y="485.267" fill="none" stroke="#99C4E9" stroke-width="2" stroke-miterlimit="10" width="10.768" height="31.665"/>
		
			<rect x="971.421" y="485.267" fill="none" stroke="#99C4E9" stroke-width="2" stroke-miterlimit="10" width="10.768" height="31.665"/>
		
			<rect x="982.189" y="485.267" fill="none" stroke="#99C4E9" stroke-width="2" stroke-miterlimit="10" width="10.768" height="31.665"/>
		
			<rect x="992.957" y="485.267" fill="none" stroke="#99C4E9" stroke-width="2" stroke-miterlimit="10" width="10.768" height="31.665"/>
		
			<rect x="1003.725" y="485.267" fill="none" stroke="#99C4E9" stroke-width="2" stroke-miterlimit="10" width="10.768" height="31.665"/>
		
			<rect x="1014.491" y="485.267" fill="none" stroke="#99C4E9" stroke-width="2" stroke-miterlimit="10" width="10.768" height="31.665"/>
	</g>
	<g>
		<rect x="884.992" y="523.532" fill="#E2E2E2" width="139.397" height="31.665"/>
		
			<rect x="884.992" y="523.532" fill="none" stroke="#99C4E9" stroke-width="2" stroke-miterlimit="10" width="10.768" height="31.665"/>
		
			<rect x="895.759" y="523.532" fill="none" stroke="#99C4E9" stroke-width="2" stroke-miterlimit="10" width="10.768" height="31.665"/>
		
			<rect x="906.527" y="523.532" fill="none" stroke="#99C4E9" stroke-width="2" stroke-miterlimit="10" width="10.768" height="31.665"/>
		
			<rect x="917.293" y="523.532" fill="none" stroke="#99C4E9" stroke-width="2" stroke-miterlimit="10" width="10.768" height="31.665"/>
		
			<rect x="928.061" y="523.532" fill="none" stroke="#99C4E9" stroke-width="2" stroke-miterlimit="10" width="10.768" height="31.665"/>
		
			<rect x="938.829" y="523.532" fill="none" stroke="#99C4E9" stroke-width="2" stroke-miterlimit="10" width="10.768" height="31.665"/>
		
			<rect x="949.597" y="523.532" fill="none" stroke="#99C4E9" stroke-width="2" stroke-miterlimit="10" width="10.768" height="31.665"/>
		
			<rect x="960.363" y="523.532" fill="none" stroke="#99C4E9" stroke-width="2" stroke-miterlimit="10" width="10.768" height="31.665"/>
		
			<rect x="971.131" y="523.532" fill="none" stroke="#99C4E9" stroke-width="2" stroke-miterlimit="10" width="10.768" height="31.665"/>
		
			<rect x="981.899" y="523.532" fill="none" stroke="#99C4E9" stroke-width="2" stroke-miterlimit="10" width="10.768" height="31.665"/>
		
			<rect x="992.667" y="523.532" fill="none" stroke="#99C4E9" stroke-width="2" stroke-miterlimit="10" width="10.768" height="31.665"/>
		
			<rect x="1003.435" y="523.532" fill="none" stroke="#99C4E9" stroke-width="2" stroke-miterlimit="10" width="10.768" height="31.665"/>
		
			<rect x="1014.201" y="523.532" fill="none" stroke="#99C4E9" stroke-width="2" stroke-miterlimit="10" width="10.768" height="31.665"/>
	</g>
</g>
<g>
	<path fill="#1C1511" d="M986.483,516.409c0,17.544-14.327,31.767-32,31.767c-17.672,0-31.999-14.223-31.999-31.767
		c0-17.55,14.327-31.778,31.999-31.778C972.156,484.632,986.483,498.859,986.483,516.409z"/>
	<path fill="#FFFFFF" d="M966.575,497.031L966.575,497.031c0,0-6.241,5.425-12.483,11.626v-3.878c0-1.548-1.558-2.322-3.121-2.322
		c-0.779,0-2.338,0.775-2.338,2.322v8.525c-5.46,4.65-10.922,9.3-10.922,9.3c-0.779,0-2.341,0-2.341,0
		c-3.896,0-7.021,3.099-7.021,6.981c0,3.871,3.124,6.97,7.021,6.97h6.241c0,0,29.643-24.798,30.425-25.572c0.775,0,1.56,0,1.56,0
		c3.9,0,7.021-3.099,7.021-6.977c0-3.871-3.121-6.974-7.021-6.974L966.575,497.031L966.575,497.031z M973.597,499.354
		c3.117,0,4.68,2.322,4.68,4.65c0,3.102-1.562,4.654-4.68,4.654h-2.341l-30.423,25.572c-0.779,0-5.462,0-5.462,0
		c-2.341,0-4.68-2.322-4.68-4.646c0-2.322,2.338-4.654,4.68-4.654h3.121c0,0,28.085-24.797,28.864-25.577
		C968.138,499.354,973.597,499.354,973.597,499.354L973.597,499.354z M954.092,498.578c0,1.555-1.558,3.099-3.121,3.099
		c-1.555,0-2.338-1.543-2.338-3.099c0-0.775,0.783-2.322,2.338-2.322C952.533,496.254,954.092,497.801,954.092,498.578
		L954.092,498.578z"/>
</g>
<g>
	<g>
		<rect x="37.304" y="484.641" fill="#E2E2E2" width="140.524" height="31.665"/>
		
			<rect x="37.304" y="484.641" fill="none" stroke="#99C4E9" stroke-width="2" stroke-miterlimit="10" width="10.855" height="31.665"/>
		
			<rect x="48.159" y="484.641" fill="none" stroke="#99C4E9" stroke-width="2" stroke-miterlimit="10" width="10.855" height="31.665"/>
		
			<rect x="59.014" y="484.641" fill="none" stroke="#99C4E9" stroke-width="2" stroke-miterlimit="10" width="10.855" height="31.665"/>
		
			<rect x="69.867" y="484.641" fill="none" stroke="#99C4E9" stroke-width="2" stroke-miterlimit="10" width="10.855" height="31.665"/>
		
			<rect x="80.722" y="484.641" fill="none" stroke="#99C4E9" stroke-width="2" stroke-miterlimit="10" width="10.855" height="31.665"/>
		
			<rect x="91.577" y="484.641" fill="none" stroke="#99C4E9" stroke-width="2" stroke-miterlimit="10" width="10.855" height="31.665"/>
		
			<rect x="102.432" y="484.641" fill="none" stroke="#99C4E9" stroke-width="2" stroke-miterlimit="10" width="10.855" height="31.665"/>
		
			<rect x="113.285" y="484.641" fill="none" stroke="#99C4E9" stroke-width="2" stroke-miterlimit="10" width="10.855" height="31.665"/>
		
			<rect x="124.14" y="484.641" fill="none" stroke="#99C4E9" stroke-width="2" stroke-miterlimit="10" width="10.855" height="31.665"/>
		
			<rect x="134.995" y="484.641" fill="none" stroke="#99C4E9" stroke-width="2" stroke-miterlimit="10" width="10.855" height="31.665"/>
		
			<rect x="145.85" y="484.641" fill="none" stroke="#99C4E9" stroke-width="2" stroke-miterlimit="10" width="10.855" height="31.665"/>
		
			<rect x="156.705" y="484.641" fill="none" stroke="#99C4E9" stroke-width="2" stroke-miterlimit="10" width="10.855" height="31.665"/>
		
			<rect x="167.558" y="484.641" fill="none" stroke="#99C4E9" stroke-width="2" stroke-miterlimit="10" width="10.855" height="31.665"/>
	</g>
	<g>
		<rect x="37.011" y="522.906" fill="#E2E2E2" width="140.524" height="31.665"/>
		
			<rect x="37.011" y="522.906" fill="none" stroke="#99C4E9" stroke-width="2" stroke-miterlimit="10" width="10.855" height="31.665"/>
		
			<rect x="47.866" y="522.906" fill="none" stroke="#99C4E9" stroke-width="2" stroke-miterlimit="10" width="10.855" height="31.665"/>
		
			<rect x="58.721" y="522.906" fill="none" stroke="#99C4E9" stroke-width="2" stroke-miterlimit="10" width="10.855" height="31.665"/>
		
			<rect x="69.574" y="522.906" fill="none" stroke="#99C4E9" stroke-width="2" stroke-miterlimit="10" width="10.855" height="31.665"/>
		
			<rect x="80.429" y="522.906" fill="none" stroke="#99C4E9" stroke-width="2" stroke-miterlimit="10" width="10.855" height="31.665"/>
		
			<rect x="91.284" y="522.906" fill="none" stroke="#99C4E9" stroke-width="2" stroke-miterlimit="10" width="10.855" height="31.665"/>
		
			<rect x="102.139" y="522.906" fill="none" stroke="#99C4E9" stroke-width="2" stroke-miterlimit="10" width="10.855" height="31.665"/>
		
			<rect x="112.992" y="522.906" fill="none" stroke="#99C4E9" stroke-width="2" stroke-miterlimit="10" width="10.855" height="31.665"/>
		
			<rect x="123.847" y="522.906" fill="none" stroke="#99C4E9" stroke-width="2" stroke-miterlimit="10" width="10.855" height="31.665"/>
		
			<rect x="134.702" y="522.906" fill="none" stroke="#99C4E9" stroke-width="2" stroke-miterlimit="10" width="10.855" height="31.665"/>
		
			<rect x="145.557" y="522.906" fill="none" stroke="#99C4E9" stroke-width="2" stroke-miterlimit="10" width="10.855" height="31.665"/>
		
			<rect x="156.412" y="522.906" fill="none" stroke="#99C4E9" stroke-width="2" stroke-miterlimit="10" width="10.855" height="31.665"/>
		
			<rect x="167.265" y="522.906" fill="none" stroke="#99C4E9" stroke-width="2" stroke-miterlimit="10" width="10.855" height="31.665"/>
	</g>
</g>
<g>
	<path fill="#1C1511" d="M141.704,518.984c0,17.544-14.327,31.767-32,31.767c-17.672,0-31.999-14.223-31.999-31.767
		c0-17.55,14.327-31.778,31.999-31.778C127.377,487.207,141.704,501.433,141.704,518.984z"/>
	<path fill="#FFFFFF" d="M121.795,499.606L121.795,499.606c0,0-6.241,5.425-12.483,11.626v-3.878c0-1.548-1.558-2.322-3.121-2.322
		c-0.779,0-2.338,0.775-2.338,2.322v8.525c-5.46,4.65-10.922,9.3-10.922,9.3c-0.779,0-2.341,0-2.341,0
		c-3.896,0-7.021,3.099-7.021,6.981c0,3.871,3.124,6.97,7.021,6.97h6.241c0,0,29.644-24.798,30.425-25.572c0.775,0,1.56,0,1.56,0
		c3.9,0,7.021-3.099,7.021-6.977c0-3.871-3.121-6.974-7.021-6.974L121.795,499.606L121.795,499.606z M128.817,501.928
		c3.117,0,4.68,2.322,4.68,4.65c0,3.102-1.562,4.654-4.68,4.654h-2.341l-30.423,25.572c-0.779,0-5.462,0-5.462,0
		c-2.341,0-4.68-2.322-4.68-4.646c0-2.322,2.338-4.654,4.68-4.654h3.121c0,0,28.085-24.797,28.864-25.577
		C123.359,501.928,128.817,501.928,128.817,501.928L128.817,501.928z M109.313,501.153c0,1.555-1.558,3.099-3.121,3.099
		c-1.555,0-2.338-1.543-2.338-3.099c0-0.775,0.783-2.322,2.338-2.322C107.754,498.829,109.313,500.376,109.313,501.153
		L109.313,501.153z"/>
</g>
<g>
	<path fill="#148865" d="M101.526,793.661c16.243,0.071,29.358,13.004,29.293,28.9c-0.073,15.888-13.292,28.721-29.527,28.651
		c-16.243-0.068-29.358-13.004-29.293-28.898C72.066,806.421,85.286,793.594,101.526,793.661z"/>
	<path fill="#FFFFFF" d="M96.839,799.972l-0.113,28.051l-10.714-10.564l-0.05,11.926l14.998,15.496l15.845-15.367l0.053-12.629
		l-11.532,11.881l0.124-28.761L96.839,799.972z"/>
</g>
<g>
	<path fill="#97F5AD" d="M976.514,167.446V454.48h308.14v185.728h406.07c0.281,0.281,1.595,0.657,1.97,0.938
		c34.613,29.923,67.538,47.839,113.97,63.316c54.218,18.01,98.117-30.204,106.935-64.254l0,0V454.48V167.446L976.514,167.446
		L976.514,167.446z"/>
	<rect x="985.894" y="176.544" fill="#FFE5C0" width="191.356" height="211.055"/>
	<rect x="1185.693" y="176.544" fill="#B6F5FF" width="607.745" height="211.055"/>
	<rect x="1804.788" y="176.544" fill="#FFE5C0" width="101.306" height="269.212"/>
	<rect x="985.894" y="398.387" fill="#B6F5FF" width="191.356" height="46.057"/>
	<rect x="1292.628" y="454.668" fill="#FFE5C0" width="144.924" height="179.162"/>
	<rect x="1450.497" y="454.668" fill="#B6F5FF" width="455.597" height="179.162"/>
</g>
<g>
	<path fill="#148865" d="M1143.368,357.905c0-11.894,9.601-21.494,21.208-21.494s21.064,9.744,21.064,21.638
		s-9.601,21.494-21.208,21.494C1152.825,379.542,1143.368,369.941,1143.368,357.905z"/>
	<path fill="#FFFFFF" d="M1148.096,361.344l20.635,0.143l-7.738,7.881h8.741l11.32-11.034l-11.32-11.607h-9.314l8.741,8.454
		l-21.064-0.143V361.344z"/>
</g>
<g>
	<path fill="#148865" d="M1828.462,415.495c0,13.349-10.775,24.124-23.802,24.124c-13.027,0-23.641-10.936-23.641-24.285
		s10.775-24.124,23.802-24.124C1818.009,391.211,1828.623,402.147,1828.462,415.495z"/>
	<path fill="#FFFFFF" d="M1823.316,411.636l-23.159-0.161l8.685-8.845h-9.81l-12.705,12.384l12.705,13.027h10.454l-9.81-9.489
		l23.641,0.161V411.636z"/>
</g>
<g>
	<path fill="#148865" d="M1082.863,416.918c14.853,0,26.842,12.181,26.842,26.907c0,14.726-12.168,26.725-27.021,26.725
		s-26.842-12.181-26.842-26.907C1055.842,428.735,1067.832,416.918,1082.863,416.918z"/>
	<path fill="#FFFFFF" d="M1078.568,422.735l-0.179,26.18l-9.842-9.817v11.09l13.779,14.362l14.495-14.362V438.37l-10.558,11.09
		l0.179-26.725L1078.568,422.735z"/>
</g>
<g>
	<path fill="#148865" d="M1160.934,423.335c0-13.349,10.775-24.124,23.802-24.124c13.027,0,23.641,10.936,23.641,24.285
		s-10.775,24.124-23.802,24.124C1171.388,447.619,1160.774,436.683,1160.934,423.335z"/>
	<path fill="#FFFFFF" d="M1166.081,427.194l23.159,0.161l-8.685,8.845h9.81l12.705-12.384l-12.705-13.027h-10.454l9.81,9.489
		l-23.641-0.161V427.194z"/>
</g>
</svg>
