<?xml version="1.0" encoding="utf-8"?>
<!-- Generator: Adobe Illustrator 17.0.0, SVG Export Plug-In . SVG Version: 6.00 Build 0)  -->
<!DOCTYPE svg PUBLIC "-//W3C//DTD SVG 1.1//EN" "http://www.w3.org/Graphics/SVG/1.1/DTD/svg11.dtd">
<svg version="1.1" id="图层_1" xmlns="http://www.w3.org/2000/svg" xmlns:xlink="http://www.w3.org/1999/xlink" x="0px" y="0px"
	 width="1920px" height="1280px" viewBox="0 0 1920 1280" enable-background="new 0 0 1920 1280" xml:space="preserve">
<path opacity="0.7" fill="#97F5AD" d="M958.395,588.535h-20V332.296H608.5V432.5H126.867V332.296H1v327.142l185.989,208.142
	c47.566-24.487,89.137-61.497,204.026-62.079c76.192-0.386,106.965,34.397,144.097,43.889l37.498-62.806
	c32.134,38.395,87.949,80.996,189.75,80.996c134.578,0,196.035-190.678,196.035-260.868c0-3.739-0.185-7.346-0.513-10.854h0.513
	V588.535z"/>
<g>
	<path opacity="0.7" fill="#97F5AD" enable-background="new    " d="M1916.525,859.343c0.313-2.771,0.475-5.462,0.475-8.046
		c0-1.937-0.163-3.87-0.475-5.795V331.32H977.743v365.134h304.484v171.055h329.83c30.035,36.709,136.431,89.172,205.995,89.172
		c53.217,0,88.961-49.894,97.152-89.172h1.321V859.343z"/>
	<rect x="1737.593" y="346.358" fill="#B6F5FF" width="162.544" height="337.002"/>
	<rect x="995.482" y="346.033" fill="#B6F5FF" width="479.368" height="248.849"/>
	<rect x="995.482" y="605.735" fill="#FFE5C0" width="210.898" height="77.625"/>
	<rect x="1294.824" y="696.128" fill="#B2CDF9" width="605.314" height="153.261"/>
	<g>
		<path fill="#148865" d="M1744.561,646.674c0.043-10.068,8.06-18.197,17.912-18.157c9.848,0.045,17.802,8.239,17.759,18.302
			c-0.042,10.068-8.06,18.197-17.912,18.157C1752.469,664.935,1744.519,656.74,1744.561,646.674z"/>
		<path fill="#FFFFFF" d="M1748.472,649.58l17.387,0.07l-6.548,6.641l7.392,0.031l9.605-9.296l-9.525-9.821l-7.828-0.033
			l7.363,7.148l-17.828-0.077L1748.472,649.58z"/>
	</g>
	<g>
		<path fill="#148865" d="M1165.774,646.673c0.043-10.068,8.06-18.197,17.912-18.157c9.848,0.045,17.802,8.239,17.759,18.302
			c-0.042,10.068-8.06,18.197-17.912,18.157C1173.682,664.934,1165.732,656.739,1165.774,646.673z"/>
		<path fill="#FFFFFF" d="M1169.686,649.579l17.387,0.07l-6.548,6.641l7.392,0.031l9.605-9.296l-9.525-9.821l-7.828-0.033
			l7.363,7.148l-17.827-0.077L1169.686,649.579z"/>
	</g>
	<rect x="1486.218" y="346.522" fill="#FFE5C0" width="240.512" height="248.36"/>
</g>
<rect x="125.739" y="450.009" fill="#B6F5FF" width="636.761" height="322.749"/>
<g>
	<path fill="#148865" d="M737.085,591.468c0.043-10.068,8.06-18.197,17.912-18.157c9.848,0.045,17.802,8.239,17.759,18.302
		c-0.042,10.068-8.06,18.197-17.913,18.157C744.994,609.729,737.044,601.534,737.085,591.468z"/>
	<path fill="#FFFFFF" d="M740.997,594.374l17.387,0.07l-6.548,6.641l7.392,0.031l9.605-9.296l-9.525-9.821l-7.828-0.033l7.364,7.148
		l-17.827-0.077L740.997,594.374z"/>
</g>
<rect x="16.475" y="450.009" fill="#FFE5C0" width="96.025" height="188.137"/>
<g>
	<g>
		<rect x="21.198" y="335.296" fill="#E2E2E2" width="73.039" height="42.204"/>
		
			<rect x="21.198" y="335.296" fill="none" stroke="#99C4E9" stroke-width="2" stroke-miterlimit="10" width="5.642" height="42.204"/>
		
			<rect x="26.84" y="335.296" fill="none" stroke="#99C4E9" stroke-width="2" stroke-miterlimit="10" width="5.642" height="42.204"/>
		
			<rect x="32.482" y="335.296" fill="none" stroke="#99C4E9" stroke-width="2" stroke-miterlimit="10" width="5.642" height="42.204"/>
		
			<rect x="38.123" y="335.296" fill="none" stroke="#99C4E9" stroke-width="2" stroke-miterlimit="10" width="5.642" height="42.204"/>
		
			<rect x="43.765" y="335.296" fill="none" stroke="#99C4E9" stroke-width="2" stroke-miterlimit="10" width="5.642" height="42.204"/>
		
			<rect x="49.407" y="335.296" fill="none" stroke="#99C4E9" stroke-width="2" stroke-miterlimit="10" width="5.642" height="42.204"/>
		
			<rect x="55.049" y="335.296" fill="none" stroke="#99C4E9" stroke-width="2" stroke-miterlimit="10" width="5.642" height="42.204"/>
		
			<rect x="60.69" y="335.296" fill="none" stroke="#99C4E9" stroke-width="2" stroke-miterlimit="10" width="5.642" height="42.204"/>
		
			<rect x="66.332" y="335.296" fill="none" stroke="#99C4E9" stroke-width="2" stroke-miterlimit="10" width="5.642" height="42.204"/>
		
			<rect x="71.974" y="335.296" fill="none" stroke="#99C4E9" stroke-width="2" stroke-miterlimit="10" width="5.642" height="42.204"/>
		
			<rect x="77.616" y="335.296" fill="none" stroke="#99C4E9" stroke-width="2" stroke-miterlimit="10" width="5.642" height="42.204"/>
		
			<rect x="83.258" y="335.296" fill="none" stroke="#99C4E9" stroke-width="2" stroke-miterlimit="10" width="5.642" height="42.204"/>
		
			<rect x="88.899" y="335.296" fill="none" stroke="#99C4E9" stroke-width="2" stroke-miterlimit="10" width="5.642" height="42.204"/>
	</g>
	<g>
		<rect x="21.046" y="386.296" fill="#E2E2E2" width="73.039" height="42.204"/>
		
			<rect x="21.046" y="386.296" fill="none" stroke="#99C4E9" stroke-width="2" stroke-miterlimit="10" width="5.642" height="42.204"/>
		
			<rect x="26.688" y="386.296" fill="none" stroke="#99C4E9" stroke-width="2" stroke-miterlimit="10" width="5.642" height="42.204"/>
		
			<rect x="32.33" y="386.296" fill="none" stroke="#99C4E9" stroke-width="2" stroke-miterlimit="10" width="5.642" height="42.204"/>
		
			<rect x="37.971" y="386.296" fill="none" stroke="#99C4E9" stroke-width="2" stroke-miterlimit="10" width="5.642" height="42.204"/>
		
			<rect x="43.613" y="386.296" fill="none" stroke="#99C4E9" stroke-width="2" stroke-miterlimit="10" width="5.642" height="42.204"/>
		
			<rect x="49.255" y="386.296" fill="none" stroke="#99C4E9" stroke-width="2" stroke-miterlimit="10" width="5.642" height="42.204"/>
		
			<rect x="54.897" y="386.296" fill="none" stroke="#99C4E9" stroke-width="2" stroke-miterlimit="10" width="5.642" height="42.204"/>
		
			<rect x="60.538" y="386.296" fill="none" stroke="#99C4E9" stroke-width="2" stroke-miterlimit="10" width="5.642" height="42.204"/>
		
			<rect x="66.18" y="386.296" fill="none" stroke="#99C4E9" stroke-width="2" stroke-miterlimit="10" width="5.642" height="42.204"/>
		
			<rect x="71.822" y="386.296" fill="none" stroke="#99C4E9" stroke-width="2" stroke-miterlimit="10" width="5.642" height="42.204"/>
		
			<rect x="77.464" y="386.296" fill="none" stroke="#99C4E9" stroke-width="2" stroke-miterlimit="10" width="5.642" height="42.204"/>
		
			<rect x="83.106" y="386.296" fill="none" stroke="#99C4E9" stroke-width="2" stroke-miterlimit="10" width="5.642" height="42.204"/>
		
			<rect x="88.747" y="386.296" fill="none" stroke="#99C4E9" stroke-width="2" stroke-miterlimit="10" width="5.642" height="42.204"/>
	</g>
</g>
<g>
	<g>
		<rect x="635.933" y="337.694" fill="#E2E2E2" width="73.039" height="42.204"/>
		
			<rect x="635.933" y="337.694" fill="none" stroke="#99C4E9" stroke-width="2" stroke-miterlimit="10" width="5.642" height="42.204"/>
		
			<rect x="641.575" y="337.694" fill="none" stroke="#99C4E9" stroke-width="2" stroke-miterlimit="10" width="5.642" height="42.204"/>
		
			<rect x="647.216" y="337.694" fill="none" stroke="#99C4E9" stroke-width="2" stroke-miterlimit="10" width="5.642" height="42.204"/>
		
			<rect x="652.858" y="337.694" fill="none" stroke="#99C4E9" stroke-width="2" stroke-miterlimit="10" width="5.642" height="42.204"/>
		
			<rect x="658.5" y="337.694" fill="none" stroke="#99C4E9" stroke-width="2" stroke-miterlimit="10" width="5.642" height="42.204"/>
		
			<rect x="664.142" y="337.694" fill="none" stroke="#99C4E9" stroke-width="2" stroke-miterlimit="10" width="5.642" height="42.204"/>
		
			<rect x="669.784" y="337.694" fill="none" stroke="#99C4E9" stroke-width="2" stroke-miterlimit="10" width="5.642" height="42.204"/>
		
			<rect x="675.425" y="337.694" fill="none" stroke="#99C4E9" stroke-width="2" stroke-miterlimit="10" width="5.642" height="42.204"/>
		
			<rect x="681.067" y="337.694" fill="none" stroke="#99C4E9" stroke-width="2" stroke-miterlimit="10" width="5.642" height="42.204"/>
		
			<rect x="686.709" y="337.694" fill="none" stroke="#99C4E9" stroke-width="2" stroke-miterlimit="10" width="5.642" height="42.204"/>
		
			<rect x="692.35" y="337.694" fill="none" stroke="#99C4E9" stroke-width="2" stroke-miterlimit="10" width="5.642" height="42.204"/>
		
			<rect x="697.992" y="337.694" fill="none" stroke="#99C4E9" stroke-width="2" stroke-miterlimit="10" width="5.642" height="42.204"/>
		
			<rect x="703.634" y="337.694" fill="none" stroke="#99C4E9" stroke-width="2" stroke-miterlimit="10" width="5.642" height="42.204"/>
	</g>
	<g>
		<rect x="635.781" y="388.694" fill="#E2E2E2" width="73.039" height="42.204"/>
		
			<rect x="635.781" y="388.694" fill="none" stroke="#99C4E9" stroke-width="2" stroke-miterlimit="10" width="5.642" height="42.204"/>
		
			<rect x="641.423" y="388.694" fill="none" stroke="#99C4E9" stroke-width="2" stroke-miterlimit="10" width="5.642" height="42.204"/>
		
			<rect x="647.065" y="388.694" fill="none" stroke="#99C4E9" stroke-width="2" stroke-miterlimit="10" width="5.642" height="42.204"/>
		
			<rect x="652.706" y="388.694" fill="none" stroke="#99C4E9" stroke-width="2" stroke-miterlimit="10" width="5.642" height="42.204"/>
		
			<rect x="658.348" y="388.694" fill="none" stroke="#99C4E9" stroke-width="2" stroke-miterlimit="10" width="5.642" height="42.204"/>
		
			<rect x="663.99" y="388.694" fill="none" stroke="#99C4E9" stroke-width="2" stroke-miterlimit="10" width="5.642" height="42.204"/>
		
			<rect x="669.632" y="388.694" fill="none" stroke="#99C4E9" stroke-width="2" stroke-miterlimit="10" width="5.642" height="42.204"/>
		
			<rect x="675.273" y="388.694" fill="none" stroke="#99C4E9" stroke-width="2" stroke-miterlimit="10" width="5.642" height="42.204"/>
		
			<rect x="680.915" y="388.694" fill="none" stroke="#99C4E9" stroke-width="2" stroke-miterlimit="10" width="5.642" height="42.204"/>
		
			<rect x="686.557" y="388.694" fill="none" stroke="#99C4E9" stroke-width="2" stroke-miterlimit="10" width="5.642" height="42.204"/>
		
			<rect x="692.199" y="388.694" fill="none" stroke="#99C4E9" stroke-width="2" stroke-miterlimit="10" width="5.642" height="42.204"/>
		
			<rect x="697.84" y="388.694" fill="none" stroke="#99C4E9" stroke-width="2" stroke-miterlimit="10" width="5.642" height="42.204"/>
		
			<rect x="703.482" y="388.694" fill="none" stroke="#99C4E9" stroke-width="2" stroke-miterlimit="10" width="5.642" height="42.204"/>
	</g>
</g>
<g>
	<rect x="870.728" y="497.848" fill="#CFF9FF" width="53.003" height="49.306"/>
	<rect x="870.728" y="555.13" fill="#CFF9FF" width="53.003" height="40.605"/>
	<rect x="827.706" y="535.795" fill="#CFF9FF" width="38.501" height="59.941"/>
	<polygon fill="#F4D5BF" points="844.746,497.848 844.746,515.613 827.706,515.613 827.706,528.664 866.207,528.664 
		866.207,520.688 866.207,515.613 866.207,497.848 	"/>
	<g>
		<path fill="#1C1511" d="M897.063,547.022c0.071,14.392-11.657,26.118-26.203,26.191c-14.543,0.071-26.391-11.541-26.465-25.93
			c-0.067-14.392,11.664-26.114,26.21-26.188C885.146,521.018,896.992,532.63,897.063,547.022z"/>
		<g>
			<path fill="#FFFFFF" d="M886.568,530.55c0.007,1.907-1.27,3.183-3.195,3.193c-1.926,0.006-3.214-1.255-3.227-3.162
				c-0.009-1.907,1.27-3.184,3.195-3.193C885.263,527.379,886.555,528.643,886.568,530.55L886.568,530.55z"/>
			<path fill="#FFFFFF" d="M853.913,549.141c0.007,0.637-0.634,1.277-1.276,1.28c-0.64,0-1.289-0.634-1.289-1.267l-0.062-12.709
				c0,0,0.628-3.181,3.193-3.196l7.708-0.037c0,0,3.205-0.015,3.22,3.162l0.065,12.713c0,0.637-0.637,1.27-1.28,1.276
				c-0.643,0.003-1.286-0.631-1.292-1.264l-0.055-11.44c0,0-0.646-0.637-0.637,0.64l0.132,27.966
				c0.009,1.267-0.624,1.904-1.913,1.916c-0.639,0-1.288-0.634-1.292-1.904l-0.08-16.524c0,0-0.646-0.637-0.643,0l0.078,16.527
				c0.009,1.27-1.273,1.914-1.916,1.916c-0.637,0.003-1.926-0.631-1.935-1.898l-0.136-27.963c0,0-0.003-0.637-0.64,0.003
				L853.913,549.141z"/>
			<path fill="#FFFFFF" d="M888.517,536.893l0.043,6.995l1.944,4.438c0.646,0.634,0.007,1.273-0.634,1.277
				c-0.643,0.637-1.286,0.006-1.291-0.631l-1.947-4.438l-0.018-5.084c-0.009-0.64-0.649,0-0.649,0l0.028,5.084l4.552,12.052
				l-4.493,0.022l0.052,10.175c0.003,0.634-0.637,1.273-1.28,1.273c-0.64,0.006-1.286-0.624-1.289-1.261l-0.046-9.535
				c-0.007-0.631-0.646-0.631-0.646-0.631l0.046,10.166c0.007,0.637-0.63,1.277-1.276,1.28c-0.643,0.006-1.289-0.631-1.289-1.265
				l-0.049-10.169l-4.497,0.019l5.081-12.098l-0.03-5.084h-0.64l0.028,5.084l-1.904,4.46c-0.64,0.64-1.28,1.277-1.926,0.649
				c-0.64,0.003-0.646-0.637-0.646-1.273l1.904-4.454l-0.031-6.358c0.631-2.547,3.193-3.193,3.193-3.193
				c0.646,1.267,1.295,1.901,2.578,1.895s1.919-0.649,2.56-1.923C885.943,534.364,888.512,534.986,888.517,536.893L888.517,536.893z
				"/>
			<path fill="#FFFFFF" d="M861.527,529.4c0.007,1.273-1.277,2.549-3.202,2.562c-1.283,0.007-2.571-1.261-2.578-2.537
				c-0.012-1.898,1.264-3.181,2.549-3.19C860.222,526.229,861.514,527.49,861.527,529.4L861.527,529.4z"/>
			
				<rect x="869.303" y="525.589" transform="matrix(1 -0.0047 0.0047 1 -2.5607 4.0962)" fill="#FFFFFF" width="1.929" height="42.588"/>
		</g>
	</g>
</g>
<g>
	<path d="M899.595,394.852c-0.19,20.683-17.4,37.303-38.444,37.103c-21.043-0.2-37.951-17.138-37.768-37.835
		c0.19-20.689,17.4-37.303,38.443-37.103C882.869,357.212,899.786,374.155,899.595,394.852z"/>
	<path fill="#FFFFFF" d="M865.319,419.214l-4.087,3.941l-4.012-4.824l0.04-3.182l3.208,3.213l0.036-3.972l2.428,0.022l-0.04,3.976
		l2.454-2.365L865.319,419.214z M857.655,370.551l4.091-4.739l4.002,4.819l-0.026,3.186l-2.397-3.208l-0.031,3.976l-3.244-0.022
		l0.036-3.985l-2.449,2.361L857.655,370.551z M854.992,396.813c0,0-0.82,0.786-1.629,0.776l-0.803-0.808l0.089-9.555
		c0,0,0.83-1.584,2.454-2.365l5.671,0.058c0,0,0.803,0.009,1.602,1.611l1.593,2.397c0,0,0.794,0.812,0.812,0.014l1.629-1.575
		c0.808,0.004,1.62,0.014,1.62,0.014c0.799,0.808,0.799,0.808-0.018,1.589l-2.454,3.163c0,0-0.812,0.786-2.427-0.022l-2.387-4.008
		l-0.187,19.912c-0.004,0.798-0.825,1.584-0.825,1.584c-0.808-0.004-1.615-0.812-1.602-1.607l0.102-11.151
		c0,0-0.803-0.799-0.812-0.004l-0.097,11.147c-0.014,0.799-0.014,1.603-0.825,1.585c-0.812-0.009-1.615-0.808-1.607-1.607
		l0.186-19.907c0,0,0,0-0.014,0.79L854.992,396.813z M871.198,394.577c-0.004,0.799-0.014,1.589-0.821,1.585
		c0,0-0.799-0.803-0.79-1.603l0.812-0.79C871.212,393.777,871.198,394.577,871.198,394.577L871.198,394.577z M871.229,391.391
		c0,0-0.004,0.798-0.821,0.786l-0.794-0.803c0.004-0.795,0.821-1.585,0.821-1.585C871.243,389.798,871.234,390.596,871.229,391.391
		L871.229,391.391z M871.261,388.209c-0.014,0.79-0.014,0.79-0.817,0.78c0,0-0.808,0-0.799-0.803
		c0.009-0.794,0.813-0.794,0.813-0.794C871.265,387.406,871.265,387.406,871.261,388.209L871.261,388.209z M871.296,384.223
		c0,0.799,0,0.799-0.821,0.79c0,0-0.803-0.014-0.799-0.808c0.004-0.794,0.817-0.786,0.817-0.786
		C871.305,383.434,871.305,383.434,871.296,384.223L871.296,384.223z M859.971,382.519c0,0.799-0.82,1.589-2.436,1.575
		c-0.808-0.009-1.615-0.817-1.606-1.611c0.014-1.593,0.834-2.383,1.647-2.375C859.191,380.124,859.997,380.931,859.971,382.519
		L859.971,382.519z M875.41,377.092l-28.335-0.271l-0.32,35.848l29.946,0.27l0.324-35.834L875.41,377.092z M874.584,378.677
		c-0.014,2.392-0.271,30.269-0.289,31.858c-2.432-0.031-23.471-0.222-25.908-0.248c0.018-1.589,0.275-29.466,0.293-31.854
		C851.104,378.464,872.157,378.654,874.584,378.677L874.584,378.677z M886.317,423.386l-8.089-0.075l0.515-57.335l8.095,0.071
		L886.317,423.386z M844.236,422.996l-8.089-0.075l0.51-57.339l8.094,0.066L844.236,422.996z"/>
</g>
<g>
	<path fill="#1C1511" d="M697.515,379.902c0,13.824-11.289,25.031-25.215,25.031c-13.925,0-25.214-11.207-25.214-25.031
		c0-13.829,11.289-25.04,25.214-25.04C686.226,354.863,697.515,366.073,697.515,379.902z"/>
	<path fill="#FFFFFF" d="M681.828,364.633L681.828,364.633c0,0-4.918,4.275-9.836,9.161v-3.056c0-1.22-1.228-1.83-2.459-1.83
		c-0.614,0-1.842,0.611-1.842,1.83v6.717c-4.302,3.664-8.606,7.328-8.606,7.328c-0.614,0-1.845,0-1.845,0
		c-3.07,0-5.532,2.442-5.532,5.501c0,3.05,2.462,5.492,5.532,5.492h4.918c0,0,23.358-19.54,23.974-20.15c0.611,0,1.229,0,1.229,0
		c3.073,0,5.532-2.442,5.532-5.498c0-3.05-2.459-5.495-5.532-5.495L681.828,364.633L681.828,364.633z M687.361,366.463
		c2.456,0,3.688,1.83,3.688,3.664c0,2.444-1.231,3.667-3.688,3.667h-1.845l-23.972,20.15c-0.614,0-4.304,0-4.304,0
		c-1.845,0-3.688-1.83-3.688-3.661c0-1.83,1.842-3.667,3.688-3.667h2.459c0,0,22.13-19.539,22.744-20.154
		C683.06,366.463,687.361,366.463,687.361,366.463L687.361,366.463z M671.992,365.852c0,1.225-1.228,2.442-2.459,2.442
		c-1.225,0-1.842-1.216-1.842-2.442c0-0.611,0.617-1.83,1.842-1.83C670.764,364.021,671.992,365.24,671.992,365.852L671.992,365.852
		z"/>
</g>
<g>
	<path fill="#1C1511" d="M82.932,379.902c0,13.824-11.289,25.031-25.215,25.031c-13.925,0-25.214-11.207-25.214-25.031
		c0-13.829,11.289-25.04,25.214-25.04C71.643,354.863,82.932,366.073,82.932,379.902z"/>
	<path fill="#FFFFFF" d="M67.246,364.633L67.246,364.633c0,0-4.918,4.275-9.836,9.161v-3.056c0-1.22-1.228-1.83-2.459-1.83
		c-0.614,0-1.842,0.611-1.842,1.83v6.717c-4.301,3.664-8.606,7.328-8.606,7.328c-0.614,0-1.845,0-1.845,0
		c-3.07,0-5.532,2.442-5.532,5.501c0,3.05,2.462,5.492,5.532,5.492h4.918c0,0,23.358-19.54,23.974-20.15c0.611,0,1.229,0,1.229,0
		c3.073,0,5.532-2.442,5.532-5.498c0-3.05-2.459-5.495-5.532-5.495L67.246,364.633L67.246,364.633z M72.779,366.463
		c2.456,0,3.687,1.83,3.687,3.664c0,2.444-1.231,3.667-3.687,3.667h-1.845l-23.972,20.15c-0.614,0-4.304,0-4.304,0
		c-1.845,0-3.687-1.83-3.687-3.661c0-1.83,1.842-3.667,3.687-3.667h2.459c0,0,22.13-19.539,22.744-20.154
		C68.477,366.463,72.779,366.463,72.779,366.463L72.779,366.463z M57.409,365.852c0,1.225-1.228,2.442-2.459,2.442
		c-1.225,0-1.842-1.216-1.842-2.442c0-0.611,0.617-1.83,1.842-1.83C56.181,364.021,57.409,365.24,57.409,365.852L57.409,365.852z"/>
</g>
<rect x="778.561" y="450.009" fill="#90CFC8" width="16.939" height="322.749"/>
<g>
	<path fill="#148865" d="M85.011,622.164c10.068,0.044,18.197,8.06,18.157,17.913c-0.045,9.848-8.239,17.802-18.302,17.759
		c-10.068-0.042-18.197-8.06-18.157-17.912C66.751,630.073,74.945,622.123,85.011,622.164z"/>
	<path fill="#FFFFFF" d="M82.106,626.076l-0.07,17.387l-6.641-6.548l-0.031,7.392l9.296,9.605l9.821-9.525l0.033-7.828l-7.148,7.364
		l0.077-17.827L82.106,626.076z"/>
</g>
<rect x="827.706" y="613.515" fill="#B6F5FF" width="92.794" height="36.459"/>
<rect x="827.706" y="662.515" fill="#B6F5FF" width="92.794" height="36.459"/>
</svg>
